G04 Layer_Physical_Order=1*
G04 Layer_Color=255*
%FSLAX45Y45*%
%MOMM*%
%TF.FileFunction,Copper,L1,Top,Signal*%
%TF.Part,Single*%
G01*
G75*
%TA.AperFunction,ConnectorPad*%
%ADD10R,1.95000X1.90000*%
%TA.AperFunction,SMDPad,CuDef*%
%ADD11R,0.90000X0.70000*%
%ADD12R,0.70000X0.90000*%
%TA.AperFunction,Conductor*%
%ADD13C,0.25400*%
%TA.AperFunction,ComponentPad*%
%ADD14R,1.50000X1.50000*%
%ADD15C,1.50000*%
%TA.AperFunction,ViaPad*%
%ADD16C,6.00000*%
%TA.AperFunction,ComponentPad*%
%ADD17C,1.00000*%
%ADD18R,1.00000X1.00000*%
%ADD19C,1.40000*%
%ADD20R,1.40000X1.40000*%
%ADD21O,1.10800X2.21600*%
%ADD22O,1.52400X3.04800*%
%ADD23C,1.20000*%
%ADD24R,1.20000X1.20000*%
%ADD25R,1.50000X1.50000*%
G36*
X7543284Y7100466D02*
X7535932Y7091858D01*
X7509170Y7048187D01*
X7489569Y7000866D01*
X7477612Y6951063D01*
X7473594Y6900001D01*
X7477612Y6848940D01*
X7489569Y6799137D01*
X7509170Y6751816D01*
X7535932Y6708145D01*
X7569196Y6669197D01*
X7608143Y6635933D01*
X7651815Y6609171D01*
X7699135Y6589571D01*
X7748939Y6577614D01*
X7800000Y6573595D01*
X7851061Y6577614D01*
X7900865Y6589571D01*
X7948185Y6609171D01*
X7988300Y6633754D01*
X8001000Y6628557D01*
Y2271446D01*
X7988300Y2266248D01*
X7948185Y2290831D01*
X7900865Y2310432D01*
X7851061Y2322389D01*
X7800000Y2326407D01*
X7748939Y2322389D01*
X7699135Y2310432D01*
X7651815Y2290831D01*
X7608143Y2264069D01*
X7569196Y2230805D01*
X7535932Y2191858D01*
X7509170Y2148186D01*
X7489569Y2100866D01*
X7477612Y2051062D01*
X7473594Y2000001D01*
X7477612Y1948940D01*
X7489569Y1899136D01*
X7509170Y1851816D01*
X7535932Y1808144D01*
X7551827Y1789534D01*
X7546510Y1778000D01*
X3409558D01*
X3404347Y1784350D01*
Y1886268D01*
X3885805Y2367726D01*
X3898505Y2362465D01*
Y2259602D01*
X3901282Y2238509D01*
X3909423Y2218853D01*
X3922375Y2201975D01*
X3939253Y2189023D01*
X3958909Y2180882D01*
X3980002Y2178105D01*
X4001095Y2180882D01*
X4020751Y2189023D01*
X4037629Y2201975D01*
X4050581Y2218853D01*
X4058722Y2238509D01*
X4061499Y2259602D01*
Y2370402D01*
X4058722Y2391495D01*
X4050581Y2411150D01*
X4037629Y2428029D01*
X4020751Y2440980D01*
X4001095Y2449122D01*
X3987015Y2450976D01*
X3982463Y2464384D01*
X3989970Y2471891D01*
X3998391Y2484494D01*
X4001348Y2499360D01*
Y2519600D01*
X4085402D01*
Y2760400D01*
X3839602D01*
Y2519600D01*
X3909844D01*
X3915104Y2506900D01*
X3338031Y1929827D01*
X3329611Y1917224D01*
X3326653Y1902358D01*
Y1800441D01*
X3304213Y1778000D01*
X3260399D01*
Y1990399D01*
X3176346D01*
Y2102869D01*
X3375189Y2301711D01*
X3383609Y2314314D01*
X3386567Y2329180D01*
Y2814320D01*
X3383609Y2829186D01*
X3375189Y2841789D01*
X2989510Y3227467D01*
X2976907Y3235888D01*
X2962041Y3238845D01*
X2574398D01*
Y3260399D01*
X2433598D01*
Y3139599D01*
X2574398D01*
Y3161152D01*
X2945951D01*
X3308873Y2798229D01*
Y2345271D01*
X3110031Y2146428D01*
X3101610Y2133825D01*
X3098653Y2118959D01*
Y1990399D01*
X3014600D01*
Y1778000D01*
X2988637D01*
X2759187Y2007451D01*
Y2762250D01*
X2756229Y2777116D01*
X2747809Y2789719D01*
X2710059Y2827468D01*
X2697456Y2835889D01*
X2682591Y2838846D01*
X2574398D01*
Y2860399D01*
X2433598D01*
Y2739600D01*
X2574398D01*
Y2761153D01*
X2666500D01*
X2681493Y2746159D01*
Y1991360D01*
X2684451Y1976494D01*
X2692871Y1963891D01*
X2867030Y1789733D01*
X2862169Y1778000D01*
X2253491D01*
X2248174Y1789534D01*
X2264069Y1808144D01*
X2290831Y1851816D01*
X2310432Y1899136D01*
X2322389Y1948940D01*
X2326407Y2000001D01*
X2322389Y2051062D01*
X2310432Y2100866D01*
X2290831Y2148186D01*
X2264069Y2191858D01*
X2230805Y2230805D01*
X2191858Y2264069D01*
X2148186Y2290831D01*
X2100866Y2310432D01*
X2051062Y2322389D01*
X2000001Y2326407D01*
X1948940Y2322389D01*
X1899136Y2310432D01*
X1851816Y2290831D01*
X1808144Y2264069D01*
X1789534Y2248174D01*
X1778000Y2253491D01*
Y6646511D01*
X1789534Y6651829D01*
X1808144Y6635933D01*
X1851816Y6609171D01*
X1899136Y6589571D01*
X1948940Y6577614D01*
X2000001Y6573595D01*
X2051062Y6577614D01*
X2100866Y6589571D01*
X2148186Y6609171D01*
X2191858Y6635933D01*
X2230805Y6669197D01*
X2264069Y6708145D01*
X2290831Y6751816D01*
X2310432Y6799137D01*
X2322389Y6848940D01*
X2326407Y6900001D01*
X2322389Y6951063D01*
X2310432Y7000866D01*
X2290831Y7048187D01*
X2264069Y7091858D01*
X2256717Y7100466D01*
X2262034Y7112000D01*
X2413092D01*
X2417175Y7099974D01*
X2415394Y7098608D01*
X2399301Y7077635D01*
X2389185Y7053211D01*
X2387406Y7039701D01*
X2586595D01*
X2584816Y7053211D01*
X2574699Y7077635D01*
X2558607Y7098608D01*
X2556826Y7099974D01*
X2560908Y7112000D01*
X2667092D01*
X2671175Y7099974D01*
X2669394Y7098608D01*
X2653301Y7077635D01*
X2643185Y7053211D01*
X2641406Y7039701D01*
X2840595D01*
X2838816Y7053211D01*
X2828699Y7077635D01*
X2812607Y7098608D01*
X2810826Y7099974D01*
X2814908Y7112000D01*
X2921092D01*
X2925175Y7099974D01*
X2923394Y7098608D01*
X2907301Y7077635D01*
X2897185Y7053211D01*
X2893734Y7027001D01*
X2897185Y7000792D01*
X2902067Y6989005D01*
X2840191Y6927130D01*
X2831771Y6914527D01*
X2828813Y6899661D01*
Y6844348D01*
X2816113Y6840037D01*
X2812607Y6844608D01*
X2791633Y6860701D01*
X2767210Y6870817D01*
X2741000Y6874268D01*
X2714791Y6870817D01*
X2690367Y6860701D01*
X2669394Y6844608D01*
X2653301Y6823635D01*
X2643185Y6799211D01*
X2639734Y6773001D01*
X2643185Y6746792D01*
X2653301Y6722368D01*
X2669394Y6701395D01*
X2690367Y6685302D01*
X2714791Y6675186D01*
X2741000Y6671735D01*
X2767210Y6675186D01*
X2791633Y6685302D01*
X2812607Y6701395D01*
X2816113Y6705966D01*
X2828813Y6701655D01*
Y5837755D01*
X2808994Y5817936D01*
X2797208Y5822818D01*
X2770998Y5826269D01*
X2744788Y5822818D01*
X2720365Y5812702D01*
X2699392Y5796609D01*
X2683299Y5775636D01*
X2673182Y5751212D01*
X2669732Y5725003D01*
X2673182Y5698793D01*
X2683299Y5674369D01*
X2699392Y5653396D01*
X2720365Y5637303D01*
X2744788Y5627187D01*
X2770998Y5623736D01*
X2797208Y5627187D01*
X2821631Y5637303D01*
X2842604Y5653396D01*
X2858697Y5674369D01*
X2868813Y5698793D01*
X2872264Y5725003D01*
X2868813Y5751212D01*
X2863931Y5762999D01*
X2895129Y5794196D01*
X2903549Y5806799D01*
X2906507Y5821665D01*
Y6702542D01*
X2919207Y6706853D01*
X2923394Y6701395D01*
X2944367Y6685302D01*
X2968791Y6675186D01*
X2995000Y6671735D01*
X3021210Y6675186D01*
X3045633Y6685302D01*
X3066607Y6701395D01*
X3082699Y6722368D01*
X3092816Y6746792D01*
X3096267Y6773001D01*
X3092816Y6799211D01*
X3082699Y6823635D01*
X3066607Y6844608D01*
X3045633Y6860701D01*
X3021210Y6870817D01*
X2995000Y6874268D01*
X2968791Y6870817D01*
X2944367Y6860701D01*
X2923394Y6844608D01*
X2919207Y6839150D01*
X2906507Y6843461D01*
Y6883570D01*
X2957004Y6934068D01*
X2968791Y6929186D01*
X2995000Y6925735D01*
X3021210Y6929186D01*
X3045633Y6939302D01*
X3066607Y6955395D01*
X3082699Y6976368D01*
X3092816Y7000792D01*
X3096267Y7027001D01*
X3092816Y7053211D01*
X3082699Y7077635D01*
X3066607Y7098608D01*
X3064826Y7099974D01*
X3068908Y7112000D01*
X3175092D01*
X3179175Y7099974D01*
X3177394Y7098608D01*
X3161301Y7077635D01*
X3151185Y7053211D01*
X3147734Y7027001D01*
X3151185Y7000792D01*
X3161301Y6976368D01*
X3177394Y6955395D01*
X3198367Y6939302D01*
X3222791Y6929186D01*
X3249000Y6925735D01*
X3275210Y6929186D01*
X3299633Y6939302D01*
X3320607Y6955395D01*
X3336699Y6976368D01*
X3346816Y7000792D01*
X3350267Y7027001D01*
X3346816Y7053211D01*
X3336699Y7077635D01*
X3320607Y7098608D01*
X3318826Y7099974D01*
X3322908Y7112000D01*
X3429092D01*
X3433175Y7099974D01*
X3431394Y7098608D01*
X3415301Y7077635D01*
X3405185Y7053211D01*
X3401734Y7027001D01*
X3405185Y7000792D01*
X3410067Y6989005D01*
X3349710Y6928649D01*
X3341289Y6916046D01*
X3338332Y6901180D01*
Y6842369D01*
X3325632Y6838058D01*
X3320607Y6844608D01*
X3299633Y6860701D01*
X3275210Y6870817D01*
X3249000Y6874268D01*
X3222791Y6870817D01*
X3198367Y6860701D01*
X3177394Y6844608D01*
X3161301Y6823635D01*
X3151185Y6799211D01*
X3147734Y6773001D01*
X3151185Y6746792D01*
X3161301Y6722368D01*
X3177394Y6701395D01*
X3198367Y6685302D01*
X3222791Y6675186D01*
X3249000Y6671735D01*
X3275210Y6675186D01*
X3299633Y6685302D01*
X3320607Y6701395D01*
X3325632Y6707945D01*
X3338332Y6703634D01*
Y6161870D01*
X2999356Y5822893D01*
X2998788Y5822818D01*
X2974365Y5812702D01*
X2953392Y5796609D01*
X2937299Y5775636D01*
X2927182Y5751212D01*
X2923732Y5725003D01*
X2927182Y5698793D01*
X2937299Y5674369D01*
X2953392Y5653396D01*
X2974365Y5637303D01*
X2998788Y5627187D01*
X3024998Y5623736D01*
X3051208Y5627187D01*
X3075631Y5637303D01*
X3096604Y5653396D01*
X3112697Y5674369D01*
X3122813Y5698793D01*
X3126264Y5725003D01*
X3122813Y5751212D01*
X3112697Y5775636D01*
X3096604Y5796609D01*
X3096517Y5796676D01*
X3095686Y5809349D01*
X3404647Y6118310D01*
X3413068Y6130913D01*
X3416025Y6145779D01*
Y6701669D01*
X3428052Y6705752D01*
X3431394Y6701395D01*
X3452367Y6685302D01*
X3476791Y6675186D01*
X3503000Y6671735D01*
X3529210Y6675186D01*
X3553633Y6685302D01*
X3574607Y6701395D01*
X3590699Y6722368D01*
X3600816Y6746792D01*
X3604267Y6773001D01*
X3600816Y6799211D01*
X3590699Y6823635D01*
X3574607Y6844608D01*
X3553633Y6860701D01*
X3529210Y6870817D01*
X3503000Y6874268D01*
X3476791Y6870817D01*
X3452367Y6860701D01*
X3431394Y6844608D01*
X3428052Y6840251D01*
X3416025Y6844334D01*
Y6885089D01*
X3465004Y6934068D01*
X3476791Y6929186D01*
X3503000Y6925735D01*
X3529210Y6929186D01*
X3553633Y6939302D01*
X3574607Y6955395D01*
X3590699Y6976368D01*
X3600816Y7000792D01*
X3604267Y7027001D01*
X3600816Y7053211D01*
X3590699Y7077635D01*
X3574607Y7098608D01*
X3572826Y7099974D01*
X3576908Y7112000D01*
X3683092D01*
X3687175Y7099974D01*
X3685394Y7098608D01*
X3669301Y7077635D01*
X3659185Y7053211D01*
X3655734Y7027001D01*
X3659185Y7000792D01*
X3669301Y6976368D01*
X3685394Y6955395D01*
X3706367Y6939302D01*
X3730791Y6929186D01*
X3757000Y6925735D01*
X3783210Y6929186D01*
X3807633Y6939302D01*
X3828607Y6955395D01*
X3844699Y6976368D01*
X3854816Y7000792D01*
X3858267Y7027001D01*
X3854816Y7053211D01*
X3844699Y7077635D01*
X3828607Y7098608D01*
X3826826Y7099974D01*
X3830908Y7112000D01*
X3937092D01*
X3941175Y7099974D01*
X3939394Y7098608D01*
X3923301Y7077635D01*
X3913185Y7053211D01*
X3909734Y7027001D01*
X3913185Y7000792D01*
X3918067Y6989005D01*
X3858731Y6929670D01*
X3850311Y6917067D01*
X3847353Y6902201D01*
Y6841038D01*
X3834653Y6836727D01*
X3828607Y6844608D01*
X3807633Y6860701D01*
X3783210Y6870817D01*
X3757000Y6874268D01*
X3730791Y6870817D01*
X3706367Y6860701D01*
X3685394Y6844608D01*
X3669301Y6823635D01*
X3659185Y6799211D01*
X3655734Y6773001D01*
X3659185Y6746792D01*
X3669301Y6722368D01*
X3685394Y6701395D01*
X3706367Y6685302D01*
X3730791Y6675186D01*
X3757000Y6671735D01*
X3783210Y6675186D01*
X3807633Y6685302D01*
X3828607Y6701395D01*
X3834653Y6709276D01*
X3847353Y6704965D01*
Y6284803D01*
X3850311Y6269937D01*
X3858731Y6257335D01*
X3950895Y6165171D01*
X3947058Y6155906D01*
X3943779Y6131001D01*
X3947058Y6106097D01*
X3956671Y6082890D01*
X3971962Y6062961D01*
X3991890Y6047670D01*
X4015098Y6038057D01*
X4040002Y6034778D01*
X4064907Y6038057D01*
X4088114Y6047670D01*
X4108042Y6062961D01*
X4123334Y6082890D01*
X4132947Y6106097D01*
X4136225Y6131001D01*
X4132947Y6155906D01*
X4123334Y6179113D01*
X4108042Y6199041D01*
X4088114Y6214333D01*
X4064907Y6223946D01*
X4040002Y6227224D01*
X4015098Y6223946D01*
X4005832Y6220108D01*
X3925047Y6300894D01*
Y6700339D01*
X3937073Y6704421D01*
X3939394Y6701395D01*
X3960367Y6685302D01*
X3984791Y6675186D01*
X4011000Y6671735D01*
X4037210Y6675186D01*
X4061633Y6685302D01*
X4082607Y6701395D01*
X4098699Y6722368D01*
X4108816Y6746792D01*
X4112267Y6773001D01*
X4108816Y6799211D01*
X4098699Y6823635D01*
X4082607Y6844608D01*
X4061633Y6860701D01*
X4037210Y6870817D01*
X4011000Y6874268D01*
X3984791Y6870817D01*
X3960367Y6860701D01*
X3939394Y6844608D01*
X3937073Y6841582D01*
X3925047Y6845664D01*
Y6886110D01*
X3973004Y6934068D01*
X3984791Y6929186D01*
X4011000Y6925735D01*
X4037210Y6929186D01*
X4061633Y6939302D01*
X4082607Y6955395D01*
X4098699Y6976368D01*
X4108816Y7000792D01*
X4112267Y7027001D01*
X4108816Y7053211D01*
X4098699Y7077635D01*
X4082607Y7098608D01*
X4080826Y7099974D01*
X4084908Y7112000D01*
X4191092D01*
X4195175Y7099974D01*
X4193394Y7098608D01*
X4177301Y7077635D01*
X4167185Y7053211D01*
X4163734Y7027001D01*
X4167185Y7000792D01*
X4177301Y6976368D01*
X4193394Y6955395D01*
X4214367Y6939302D01*
X4238791Y6929186D01*
X4265000Y6925735D01*
X4291210Y6929186D01*
X4315633Y6939302D01*
X4336607Y6955395D01*
X4345193Y6966586D01*
X4357893Y6962275D01*
Y6837728D01*
X4345193Y6833417D01*
X4336607Y6844608D01*
X4315633Y6860701D01*
X4291210Y6870817D01*
X4265000Y6874268D01*
X4238791Y6870817D01*
X4214367Y6860701D01*
X4193394Y6844608D01*
X4177301Y6823635D01*
X4167185Y6799211D01*
X4163734Y6773001D01*
X4167185Y6746792D01*
X4177301Y6722368D01*
X4193394Y6701395D01*
X4214367Y6685302D01*
X4238791Y6675186D01*
X4265000Y6671735D01*
X4291210Y6675186D01*
X4315633Y6685302D01*
X4336607Y6701395D01*
X4345193Y6712586D01*
X4357893Y6708275D01*
Y6282263D01*
X4360851Y6267397D01*
X4369271Y6254795D01*
X4458895Y6165171D01*
X4455058Y6155906D01*
X4451779Y6131001D01*
X4455058Y6106097D01*
X4464671Y6082890D01*
X4479962Y6062961D01*
X4499890Y6047670D01*
X4523098Y6038057D01*
X4548002Y6034778D01*
X4572907Y6038057D01*
X4596114Y6047670D01*
X4616042Y6062961D01*
X4618994Y6066809D01*
X4632573Y6063643D01*
X4632631Y6063354D01*
X4641051Y6050751D01*
X4735031Y5956771D01*
X4747634Y5948351D01*
X4762500Y5945393D01*
X4909241D01*
X4924107Y5948351D01*
X4936709Y5956771D01*
X5021832Y6041894D01*
X5031098Y6038057D01*
X5056002Y6034778D01*
X5080907Y6038057D01*
X5104114Y6047670D01*
X5124042Y6062961D01*
X5139334Y6082890D01*
X5148947Y6106097D01*
X5152225Y6131001D01*
X5148947Y6155906D01*
X5139334Y6179113D01*
X5124042Y6199041D01*
X5104114Y6214333D01*
X5080907Y6223946D01*
X5056002Y6227224D01*
X5031098Y6223946D01*
X5007890Y6214333D01*
X4987962Y6199041D01*
X4972671Y6179113D01*
X4963058Y6155906D01*
X4959779Y6131001D01*
X4963058Y6106097D01*
X4966895Y6096832D01*
X4893150Y6023087D01*
X4810494D01*
X4809662Y6035787D01*
X4826907Y6038057D01*
X4850114Y6047670D01*
X4870042Y6062961D01*
X4885334Y6082890D01*
X4894947Y6106097D01*
X4898225Y6131001D01*
X4894947Y6155906D01*
X4891109Y6165171D01*
X5054469Y6328531D01*
X5062890Y6341134D01*
X5065847Y6355999D01*
Y6680420D01*
X5077633Y6685302D01*
X5098607Y6701395D01*
X5104653Y6709276D01*
X5117353Y6704965D01*
Y6284803D01*
X5120311Y6269937D01*
X5128731Y6257335D01*
X5220895Y6165171D01*
X5217058Y6155906D01*
X5213779Y6131001D01*
X5217058Y6106097D01*
X5226671Y6082890D01*
X5241962Y6062961D01*
X5261890Y6047670D01*
X5285098Y6038057D01*
X5310002Y6034778D01*
X5334907Y6038057D01*
X5358114Y6047670D01*
X5378042Y6062961D01*
X5393334Y6082890D01*
X5402947Y6106097D01*
X5406225Y6131001D01*
X5402947Y6155906D01*
X5393334Y6179113D01*
X5378042Y6199041D01*
X5358114Y6214333D01*
X5334907Y6223946D01*
X5310002Y6227224D01*
X5285098Y6223946D01*
X5275832Y6220108D01*
X5195047Y6300894D01*
Y6700339D01*
X5207073Y6704421D01*
X5209394Y6701395D01*
X5230367Y6685302D01*
X5254791Y6675186D01*
X5281000Y6671735D01*
X5307210Y6675186D01*
X5331633Y6685302D01*
X5352607Y6701395D01*
X5368699Y6722368D01*
X5378816Y6746792D01*
X5382267Y6773001D01*
X5378816Y6799211D01*
X5373934Y6810998D01*
X5432589Y6869653D01*
X5441009Y6882255D01*
X5443967Y6897121D01*
Y6959852D01*
X5456667Y6964163D01*
X5463394Y6955395D01*
X5484367Y6939302D01*
X5508791Y6929186D01*
X5535000Y6925735D01*
X5561210Y6929186D01*
X5585633Y6939302D01*
X5606607Y6955395D01*
X5622699Y6976368D01*
X5632816Y7000792D01*
X5636267Y7027001D01*
X5632816Y7053211D01*
X5622699Y7077635D01*
X5606607Y7098608D01*
X5604826Y7099974D01*
X5608908Y7112000D01*
X5715092D01*
X5719175Y7099974D01*
X5717394Y7098608D01*
X5701301Y7077635D01*
X5691185Y7053211D01*
X5687734Y7027001D01*
X5691185Y7000792D01*
X5701301Y6976368D01*
X5717394Y6955395D01*
X5738367Y6939302D01*
X5762791Y6929186D01*
X5789000Y6925735D01*
X5815210Y6929186D01*
X5839633Y6939302D01*
X5860607Y6955395D01*
X5876699Y6976368D01*
X5886816Y7000792D01*
X5890267Y7027001D01*
X5886816Y7053211D01*
X5876699Y7077635D01*
X5860607Y7098608D01*
X5858826Y7099974D01*
X5862908Y7112000D01*
X5969092D01*
X5973175Y7099974D01*
X5971394Y7098608D01*
X5955301Y7077635D01*
X5945185Y7053211D01*
X5941734Y7027001D01*
X5945185Y7000792D01*
X5955301Y6976368D01*
X5971394Y6955395D01*
X5992367Y6939302D01*
X6016791Y6929186D01*
X6043000Y6925735D01*
X6069210Y6929186D01*
X6093633Y6939302D01*
X6114607Y6955395D01*
X6130699Y6976368D01*
X6140816Y7000792D01*
X6144267Y7027001D01*
X6140816Y7053211D01*
X6130699Y7077635D01*
X6114607Y7098608D01*
X6112826Y7099974D01*
X6116908Y7112000D01*
X6223092D01*
X6227175Y7099974D01*
X6225394Y7098608D01*
X6209301Y7077635D01*
X6199185Y7053211D01*
X6195734Y7027001D01*
X6199185Y7000792D01*
X6209301Y6976368D01*
X6225394Y6955395D01*
X6246367Y6939302D01*
X6270791Y6929186D01*
X6297000Y6925735D01*
X6323210Y6929186D01*
X6347633Y6939302D01*
X6368607Y6955395D01*
X6384699Y6976368D01*
X6394816Y7000792D01*
X6398267Y7027001D01*
X6394816Y7053211D01*
X6384699Y7077635D01*
X6368607Y7098608D01*
X6366826Y7099974D01*
X6370908Y7112000D01*
X6477092D01*
X6481175Y7099974D01*
X6479394Y7098608D01*
X6463301Y7077635D01*
X6453185Y7053211D01*
X6449734Y7027001D01*
X6453185Y7000792D01*
X6463301Y6976368D01*
X6479394Y6955395D01*
X6500367Y6939302D01*
X6524791Y6929186D01*
X6551000Y6925735D01*
X6577210Y6929186D01*
X6601633Y6939302D01*
X6622607Y6955395D01*
X6638699Y6976368D01*
X6648816Y7000792D01*
X6652267Y7027001D01*
X6648816Y7053211D01*
X6638699Y7077635D01*
X6622607Y7098608D01*
X6620826Y7099974D01*
X6624908Y7112000D01*
X6731092D01*
X6735175Y7099974D01*
X6733394Y7098608D01*
X6717301Y7077635D01*
X6707185Y7053211D01*
X6703734Y7027001D01*
X6707185Y7000792D01*
X6717301Y6976368D01*
X6733394Y6955395D01*
X6754367Y6939302D01*
X6778791Y6929186D01*
X6805000Y6925735D01*
X6831210Y6929186D01*
X6842997Y6934068D01*
X6895353Y6881711D01*
Y6841038D01*
X6882653Y6836727D01*
X6876607Y6844608D01*
X6855633Y6860701D01*
X6831210Y6870817D01*
X6805000Y6874268D01*
X6778791Y6870817D01*
X6754367Y6860701D01*
X6733394Y6844608D01*
X6717301Y6823635D01*
X6707185Y6799211D01*
X6703734Y6773001D01*
X6707185Y6746792D01*
X6717301Y6722368D01*
X6733394Y6701395D01*
X6754367Y6685302D01*
X6778791Y6675186D01*
X6805000Y6671735D01*
X6831210Y6675186D01*
X6855633Y6685302D01*
X6876607Y6701395D01*
X6882653Y6709276D01*
X6895353Y6704965D01*
Y6527800D01*
X6898311Y6512934D01*
X6906731Y6500331D01*
X7198930Y6208133D01*
X7194069Y6196400D01*
X7011600D01*
Y6134847D01*
X6704400D01*
Y6196400D01*
X6503600D01*
Y5995600D01*
X6704400D01*
Y6057153D01*
X7011600D01*
Y5995600D01*
X7212400D01*
Y6178069D01*
X7224133Y6182930D01*
X7273066Y6133996D01*
X7268184Y6122210D01*
X7264734Y6096000D01*
X7268184Y6069790D01*
X7278301Y6045367D01*
X7294394Y6024394D01*
X7315367Y6008301D01*
X7339790Y5998184D01*
X7366000Y5994734D01*
X7392210Y5998184D01*
X7416633Y6008301D01*
X7437606Y6024394D01*
X7453699Y6045367D01*
X7463816Y6069790D01*
X7467266Y6096000D01*
X7463816Y6122210D01*
X7453699Y6146633D01*
X7437606Y6167606D01*
X7416633Y6183699D01*
X7392210Y6193816D01*
X7366000Y6197266D01*
X7339790Y6193816D01*
X7328004Y6188934D01*
X6973047Y6543891D01*
Y6700339D01*
X6985073Y6704421D01*
X6987394Y6701395D01*
X7008367Y6685302D01*
X7032791Y6675186D01*
X7059000Y6671735D01*
X7085210Y6675186D01*
X7109633Y6685302D01*
X7130607Y6701395D01*
X7146699Y6722368D01*
X7156816Y6746792D01*
X7160267Y6773001D01*
X7156816Y6799211D01*
X7146699Y6823635D01*
X7130607Y6844608D01*
X7109633Y6860701D01*
X7085210Y6870817D01*
X7059000Y6874268D01*
X7032791Y6870817D01*
X7008367Y6860701D01*
X6987394Y6844608D01*
X6985073Y6841582D01*
X6973047Y6845664D01*
Y6897802D01*
X6970089Y6912668D01*
X6961669Y6925270D01*
X6897934Y6989005D01*
X6902816Y7000792D01*
X6906267Y7027001D01*
X6902816Y7053211D01*
X6892699Y7077635D01*
X6876607Y7098608D01*
X6874826Y7099974D01*
X6878908Y7112000D01*
X6985092D01*
X6989175Y7099974D01*
X6987394Y7098608D01*
X6971301Y7077635D01*
X6961185Y7053211D01*
X6957734Y7027001D01*
X6961185Y7000792D01*
X6971301Y6976368D01*
X6987394Y6955395D01*
X7008367Y6939302D01*
X7032791Y6929186D01*
X7059000Y6925735D01*
X7085210Y6929186D01*
X7109633Y6939302D01*
X7130607Y6955395D01*
X7146699Y6976368D01*
X7156816Y7000792D01*
X7160267Y7027001D01*
X7156816Y7053211D01*
X7146699Y7077635D01*
X7130607Y7098608D01*
X7128826Y7099974D01*
X7132908Y7112000D01*
X7239092D01*
X7243175Y7099974D01*
X7241394Y7098608D01*
X7225301Y7077635D01*
X7215185Y7053211D01*
X7211734Y7027001D01*
X7215185Y7000792D01*
X7225301Y6976368D01*
X7241394Y6955395D01*
X7262367Y6939302D01*
X7286791Y6929186D01*
X7313000Y6925735D01*
X7339210Y6929186D01*
X7363633Y6939302D01*
X7384607Y6955395D01*
X7400699Y6976368D01*
X7410816Y7000792D01*
X7414267Y7027001D01*
X7410816Y7053211D01*
X7400699Y7077635D01*
X7384607Y7098608D01*
X7382826Y7099974D01*
X7386908Y7112000D01*
X7537967D01*
X7543284Y7100466D01*
D02*
G37*
%LPC*%
G36*
X2905999Y4278266D02*
X2879789Y4274815D01*
X2855366Y4264699D01*
X2834393Y4248606D01*
X2818300Y4227633D01*
X2808183Y4203209D01*
X2804733Y4177000D01*
X2808183Y4150790D01*
X2818300Y4126366D01*
X2834393Y4105393D01*
X2855366Y4089300D01*
X2879789Y4079184D01*
X2905999Y4075733D01*
X2932209Y4079184D01*
X2956632Y4089300D01*
X2977605Y4105393D01*
X2993698Y4126366D01*
X3003814Y4150790D01*
X3007265Y4177000D01*
X3003814Y4203209D01*
X2993698Y4227633D01*
X2977605Y4248606D01*
X2956632Y4264699D01*
X2932209Y4274815D01*
X2905999Y4278266D01*
D02*
G37*
G36*
X7044399Y4169399D02*
X6843599D01*
Y3968599D01*
X7044399D01*
Y4169399D01*
D02*
G37*
G36*
X2893299Y4418300D02*
X2806405D01*
X2808183Y4404790D01*
X2818300Y4380366D01*
X2834393Y4359393D01*
X2855366Y4343300D01*
X2879789Y4333184D01*
X2893299Y4331405D01*
Y4418300D01*
D02*
G37*
G36*
X3450001Y4386138D02*
X3427707Y4383203D01*
X3406932Y4374598D01*
X3389093Y4360909D01*
X3375404Y4343070D01*
X3366799Y4322295D01*
X3363864Y4300002D01*
X3366799Y4277708D01*
X3375404Y4256933D01*
X3389093Y4239094D01*
X3406932Y4225405D01*
X3427707Y4216800D01*
X3450001Y4213865D01*
X3472295Y4216800D01*
X3493069Y4225405D01*
X3510909Y4239094D01*
X3524597Y4256933D01*
X3533202Y4277708D01*
X3536137Y4300002D01*
X3533202Y4322295D01*
X3524597Y4343070D01*
X3510909Y4360909D01*
X3493069Y4374598D01*
X3472295Y4383203D01*
X3450001Y4386138D01*
D02*
G37*
G36*
X7451999Y4170265D02*
X7425790Y4166814D01*
X7401366Y4156698D01*
X7380393Y4140605D01*
X7364300Y4119632D01*
X7354184Y4095208D01*
X7350733Y4068999D01*
X7354184Y4042789D01*
X7364300Y4018366D01*
X7380393Y3997393D01*
X7401366Y3981300D01*
X7425790Y3971183D01*
X7451999Y3967732D01*
X7478209Y3971183D01*
X7502632Y3981300D01*
X7523605Y3997393D01*
X7539698Y4018366D01*
X7549815Y4042789D01*
X7553266Y4068999D01*
X7549815Y4095208D01*
X7539698Y4119632D01*
X7523605Y4140605D01*
X7502632Y4156698D01*
X7478209Y4166814D01*
X7451999Y4170265D01*
D02*
G37*
G36*
X3450001Y4132138D02*
X3427707Y4129203D01*
X3406932Y4120598D01*
X3389093Y4106909D01*
X3375404Y4089070D01*
X3366799Y4068295D01*
X3363864Y4046002D01*
X3366799Y4023708D01*
X3375404Y4002933D01*
X3389093Y3985094D01*
X3406932Y3971405D01*
X3427707Y3962800D01*
X3450001Y3959865D01*
X3472295Y3962800D01*
X3493069Y3971405D01*
X3510909Y3985094D01*
X3524597Y4002933D01*
X3533202Y4023708D01*
X3536137Y4046002D01*
X3533202Y4068295D01*
X3524597Y4089070D01*
X3510909Y4106909D01*
X3493069Y4120598D01*
X3472295Y4129203D01*
X3450001Y4132138D01*
D02*
G37*
G36*
X3937000Y4038266D02*
X3910790Y4034816D01*
X3886367Y4024699D01*
X3865394Y4008606D01*
X3849301Y3987633D01*
X3839184Y3963210D01*
X3835734Y3937000D01*
X3839184Y3910790D01*
X3849301Y3886367D01*
X3865394Y3865394D01*
X3886367Y3849301D01*
X3910790Y3839184D01*
X3937000Y3835734D01*
X3963210Y3839184D01*
X3987633Y3849301D01*
X4008606Y3865394D01*
X4024699Y3886367D01*
X4034816Y3910790D01*
X4038266Y3937000D01*
X4034816Y3963210D01*
X4024699Y3987633D01*
X4008606Y4008606D01*
X3987633Y4024699D01*
X3963210Y4034816D01*
X3937000Y4038266D01*
D02*
G37*
G36*
X4699000Y3784266D02*
X4672790Y3780816D01*
X4648367Y3770699D01*
X4627394Y3754606D01*
X4611301Y3733633D01*
X4601184Y3709210D01*
X4597734Y3683000D01*
X4601184Y3656790D01*
X4611301Y3632367D01*
X4627394Y3611394D01*
X4648367Y3595301D01*
X4672790Y3585184D01*
X4699000Y3581734D01*
X4725210Y3585184D01*
X4749633Y3595301D01*
X4770606Y3611394D01*
X4786699Y3632367D01*
X4796816Y3656790D01*
X4800266Y3683000D01*
X4796816Y3709210D01*
X4786699Y3733633D01*
X4770606Y3754606D01*
X4749633Y3770699D01*
X4725210Y3780816D01*
X4699000Y3784266D01*
D02*
G37*
G36*
X7197999Y4170265D02*
X7171790Y4166814D01*
X7147366Y4156698D01*
X7126393Y4140605D01*
X7110300Y4119632D01*
X7100184Y4095208D01*
X7096733Y4068999D01*
X7100184Y4042789D01*
X7110300Y4018366D01*
X7126393Y3997393D01*
X7147366Y3981300D01*
X7171790Y3971183D01*
X7197999Y3967732D01*
X7224209Y3971183D01*
X7248632Y3981300D01*
X7269605Y3997393D01*
X7285698Y4018366D01*
X7295815Y4042789D01*
X7299266Y4068999D01*
X7295815Y4095208D01*
X7285698Y4119632D01*
X7269605Y4140605D01*
X7248632Y4156698D01*
X7224209Y4166814D01*
X7197999Y4170265D01*
D02*
G37*
G36*
X3005593Y4418300D02*
X2918699D01*
Y4331405D01*
X2932209Y4333184D01*
X2956632Y4343300D01*
X2977605Y4359393D01*
X2993698Y4380366D01*
X3003814Y4404790D01*
X3005593Y4418300D01*
D02*
G37*
G36*
X2918699Y4530594D02*
Y4443700D01*
X3005593D01*
X3003814Y4457209D01*
X2993698Y4481633D01*
X2977605Y4502606D01*
X2956632Y4518699D01*
X2932209Y4528815D01*
X2918699Y4530594D01*
D02*
G37*
G36*
X2893299D02*
X2879789Y4528815D01*
X2855366Y4518699D01*
X2834393Y4502606D01*
X2818300Y4481633D01*
X2808183Y4457209D01*
X2806405Y4443700D01*
X2893299D01*
Y4530594D01*
D02*
G37*
G36*
X4711700Y4544594D02*
Y4457700D01*
X4798594D01*
X4796816Y4471210D01*
X4786699Y4495633D01*
X4770606Y4516606D01*
X4749633Y4532699D01*
X4725210Y4542816D01*
X4711700Y4544594D01*
D02*
G37*
G36*
X4686300D02*
X4672790Y4542816D01*
X4648367Y4532699D01*
X4627394Y4516606D01*
X4611301Y4495633D01*
X4601184Y4471210D01*
X4599406Y4457700D01*
X4686300D01*
Y4544594D01*
D02*
G37*
G36*
X5969000Y4531137D02*
X5946706Y4528202D01*
X5925932Y4519596D01*
X5908092Y4505908D01*
X5894404Y4488068D01*
X5885798Y4467294D01*
X5882863Y4445000D01*
X5885798Y4422706D01*
X5894404Y4401932D01*
X5908092Y4384092D01*
X5925932Y4370404D01*
X5946706Y4361798D01*
X5969000Y4358863D01*
X5991294Y4361798D01*
X6012068Y4370404D01*
X6029908Y4384092D01*
X6043596Y4401932D01*
X6052202Y4422706D01*
X6055137Y4445000D01*
X6052202Y4467294D01*
X6043596Y4488068D01*
X6029908Y4505908D01*
X6012068Y4519596D01*
X5991294Y4528202D01*
X5969000Y4531137D01*
D02*
G37*
G36*
X4686300Y4432300D02*
X4599406D01*
X4601184Y4418790D01*
X4611301Y4394367D01*
X4627394Y4373394D01*
X4648367Y4357301D01*
X4672790Y4347184D01*
X4686300Y4345406D01*
Y4432300D01*
D02*
G37*
G36*
X4037400Y4545400D02*
X3836600D01*
Y4344600D01*
X4037400D01*
Y4545400D01*
D02*
G37*
G36*
X5207000Y4531137D02*
X5184706Y4528202D01*
X5163932Y4519596D01*
X5146092Y4505908D01*
X5132404Y4488068D01*
X5123798Y4467294D01*
X5120863Y4445000D01*
X5123798Y4422706D01*
X5132404Y4401932D01*
X5146092Y4384092D01*
X5163932Y4370404D01*
X5184706Y4361798D01*
X5207000Y4358863D01*
X5229294Y4361798D01*
X5250068Y4370404D01*
X5267908Y4384092D01*
X5281596Y4401932D01*
X5290202Y4422706D01*
X5293137Y4445000D01*
X5290202Y4467294D01*
X5281596Y4488068D01*
X5267908Y4505908D01*
X5250068Y4519596D01*
X5229294Y4528202D01*
X5207000Y4531137D01*
D02*
G37*
G36*
X4798594Y4432300D02*
X4711700D01*
Y4345406D01*
X4725210Y4347184D01*
X4749633Y4357301D01*
X4770606Y4373394D01*
X4786699Y4394367D01*
X4796816Y4418790D01*
X4798594Y4432300D01*
D02*
G37*
G36*
X6087298Y2377006D02*
X6073475Y2375186D01*
X6048760Y2364948D01*
X6027536Y2348663D01*
X6011250Y2327439D01*
X6001013Y2302724D01*
X5997521Y2276201D01*
Y2212701D01*
X6087298D01*
Y2377006D01*
D02*
G37*
G36*
X6202475Y2187301D02*
X6112698D01*
Y2022996D01*
X6126521Y2024816D01*
X6151236Y2035053D01*
X6172460Y2051339D01*
X6188746Y2072562D01*
X6198983Y2097278D01*
X6202475Y2123801D01*
Y2187301D01*
D02*
G37*
G36*
X3260399Y2575401D02*
X3014600D01*
Y2334602D01*
X3260399D01*
Y2575401D01*
D02*
G37*
G36*
X6112698Y2377006D02*
Y2212701D01*
X6202475D01*
Y2276201D01*
X6198983Y2302724D01*
X6188746Y2327439D01*
X6172460Y2348663D01*
X6151236Y2364948D01*
X6126521Y2375186D01*
X6112698Y2377006D01*
D02*
G37*
G36*
X6087298Y2187301D02*
X5997521D01*
Y2123801D01*
X6001013Y2097278D01*
X6011250Y2072562D01*
X6027536Y2051339D01*
X6048760Y2035053D01*
X6073475Y2024816D01*
X6087298Y2022996D01*
Y2187301D01*
D02*
G37*
G36*
X5337998Y2378677D02*
X5311475Y2375186D01*
X5286760Y2364948D01*
X5265536Y2348663D01*
X5249250Y2327439D01*
X5239013Y2302724D01*
X5235521Y2276201D01*
Y2123801D01*
X5239013Y2097278D01*
X5249250Y2072562D01*
X5265536Y2051339D01*
X5286760Y2035053D01*
X5311475Y2024816D01*
X5337998Y2021324D01*
X5364521Y2024816D01*
X5389236Y2035053D01*
X5410460Y2051339D01*
X5426746Y2072562D01*
X5436983Y2097278D01*
X5440475Y2123801D01*
Y2276201D01*
X5436983Y2302724D01*
X5426746Y2327439D01*
X5410460Y2348663D01*
X5389236Y2364948D01*
X5364521Y2375186D01*
X5337998Y2378677D01*
D02*
G37*
G36*
X5083998D02*
X5057475Y2375186D01*
X5032760Y2364948D01*
X5011536Y2348663D01*
X4995250Y2327439D01*
X4985013Y2302724D01*
X4981521Y2276201D01*
Y2123801D01*
X4985013Y2097278D01*
X4995250Y2072562D01*
X5011536Y2051339D01*
X5032760Y2035053D01*
X5057475Y2024816D01*
X5083998Y2021324D01*
X5110521Y2024816D01*
X5135236Y2035053D01*
X5156460Y2051339D01*
X5172746Y2072562D01*
X5182983Y2097278D01*
X5186475Y2123801D01*
Y2276201D01*
X5182983Y2302724D01*
X5172746Y2327439D01*
X5156460Y2348663D01*
X5135236Y2364948D01*
X5110521Y2375186D01*
X5083998Y2378677D01*
D02*
G37*
G36*
X6353998D02*
X6327475Y2375186D01*
X6302760Y2364948D01*
X6281536Y2348663D01*
X6265250Y2327439D01*
X6255013Y2302724D01*
X6251521Y2276201D01*
Y2123801D01*
X6255013Y2097278D01*
X6265250Y2072562D01*
X6281536Y2051339D01*
X6302760Y2035053D01*
X6327475Y2024816D01*
X6353998Y2021324D01*
X6380521Y2024816D01*
X6405236Y2035053D01*
X6426460Y2051339D01*
X6442746Y2072562D01*
X6452983Y2097278D01*
X6456475Y2123801D01*
Y2276201D01*
X6452983Y2302724D01*
X6442746Y2327439D01*
X6426460Y2348663D01*
X6405236Y2364948D01*
X6380521Y2375186D01*
X6353998Y2378677D01*
D02*
G37*
G36*
X5591998D02*
X5565475Y2375186D01*
X5540760Y2364948D01*
X5519536Y2348663D01*
X5503250Y2327439D01*
X5493013Y2302724D01*
X5489521Y2276201D01*
Y2123801D01*
X5493013Y2097278D01*
X5503250Y2072562D01*
X5519536Y2051339D01*
X5540760Y2035053D01*
X5565475Y2024816D01*
X5591998Y2021324D01*
X5618521Y2024816D01*
X5643236Y2035053D01*
X5664460Y2051339D01*
X5680746Y2072562D01*
X5690983Y2097278D01*
X5694475Y2123801D01*
Y2276201D01*
X5690983Y2302724D01*
X5680746Y2327439D01*
X5664460Y2348663D01*
X5643236Y2364948D01*
X5618521Y2375186D01*
X5591998Y2378677D01*
D02*
G37*
G36*
X3119999Y2886899D02*
X3098906Y2884122D01*
X3079250Y2875981D01*
X3062372Y2863029D01*
X3049420Y2846151D01*
X3041279Y2826495D01*
X3038502Y2805402D01*
Y2694602D01*
X3041279Y2673509D01*
X3049420Y2653853D01*
X3062372Y2636975D01*
X3079250Y2624023D01*
X3098906Y2615882D01*
X3119999Y2613105D01*
X3141092Y2615882D01*
X3160748Y2624023D01*
X3177626Y2636975D01*
X3190578Y2653853D01*
X3198719Y2673509D01*
X3201496Y2694602D01*
Y2805402D01*
X3198719Y2826495D01*
X3190578Y2846151D01*
X3177626Y2863029D01*
X3160748Y2875981D01*
X3141092Y2884122D01*
X3119999Y2886899D01*
D02*
G37*
G36*
X2905999Y4024266D02*
X2879789Y4020815D01*
X2855366Y4010699D01*
X2834393Y3994606D01*
X2818300Y3973633D01*
X2808183Y3949209D01*
X2804733Y3923000D01*
X2808183Y3896790D01*
X2818300Y3872366D01*
X2834393Y3851393D01*
X2855366Y3835300D01*
X2879789Y3825184D01*
X2905999Y3821733D01*
X2932209Y3825184D01*
X2943995Y3830066D01*
X3061157Y3712904D01*
Y3372400D01*
X3039604D01*
Y3231600D01*
X3160404D01*
Y3372400D01*
X3138850D01*
Y3728994D01*
X3135893Y3743860D01*
X3127473Y3756463D01*
X2998932Y3885003D01*
X3003814Y3896790D01*
X3007265Y3923000D01*
X3003814Y3949209D01*
X2993698Y3973633D01*
X2977605Y3994606D01*
X2956632Y4010699D01*
X2932209Y4020815D01*
X2905999Y4024266D01*
D02*
G37*
G36*
X6898475Y3212302D02*
X6808699D01*
Y3047997D01*
X6822522Y3049817D01*
X6847237Y3060055D01*
X6868461Y3076340D01*
X6884746Y3097564D01*
X6894984Y3122280D01*
X6898475Y3148802D01*
Y3212302D01*
D02*
G37*
G36*
X6808699Y3402007D02*
Y3237702D01*
X6898475D01*
Y3301202D01*
X6894984Y3327725D01*
X6884746Y3352441D01*
X6868461Y3373665D01*
X6847237Y3389950D01*
X6822522Y3400188D01*
X6808699Y3402007D01*
D02*
G37*
G36*
X6783299D02*
X6769476Y3400188D01*
X6744760Y3389950D01*
X6723536Y3373665D01*
X6707251Y3352441D01*
X6697014Y3327725D01*
X6693522Y3301202D01*
Y3237702D01*
X6783299D01*
Y3402007D01*
D02*
G37*
G36*
Y3212302D02*
X6693522D01*
Y3148802D01*
X6697014Y3122280D01*
X6707251Y3097564D01*
X6723536Y3076340D01*
X6744760Y3060055D01*
X6769476Y3049817D01*
X6783299Y3047997D01*
Y3212302D01*
D02*
G37*
G36*
X6033999Y3403679D02*
X6007476Y3400188D01*
X5982760Y3389950D01*
X5961536Y3373665D01*
X5945251Y3352441D01*
X5935014Y3327725D01*
X5931522Y3301202D01*
Y3148802D01*
X5935014Y3122280D01*
X5945251Y3097564D01*
X5961536Y3076340D01*
X5982760Y3060055D01*
X6007476Y3049817D01*
X6033999Y3046326D01*
X6060522Y3049817D01*
X6085237Y3060055D01*
X6106461Y3076340D01*
X6122746Y3097564D01*
X6132984Y3122280D01*
X6136475Y3148802D01*
Y3301202D01*
X6132984Y3327725D01*
X6122746Y3352441D01*
X6106461Y3373665D01*
X6085237Y3389950D01*
X6060522Y3400188D01*
X6033999Y3403679D01*
D02*
G37*
G36*
X5779999D02*
X5753476Y3400188D01*
X5728760Y3389950D01*
X5707536Y3373665D01*
X5691251Y3352441D01*
X5681014Y3327725D01*
X5677522Y3301202D01*
Y3148802D01*
X5681014Y3122280D01*
X5691251Y3097564D01*
X5707536Y3076340D01*
X5728760Y3060055D01*
X5753476Y3049817D01*
X5779999Y3046326D01*
X5806522Y3049817D01*
X5831237Y3060055D01*
X5852461Y3076340D01*
X5868746Y3097564D01*
X5878984Y3122280D01*
X5882475Y3148802D01*
Y3301202D01*
X5878984Y3327725D01*
X5868746Y3352441D01*
X5852461Y3373665D01*
X5831237Y3389950D01*
X5806522Y3400188D01*
X5779999Y3403679D01*
D02*
G37*
G36*
X7049999D02*
X7023476Y3400188D01*
X6998760Y3389950D01*
X6977536Y3373665D01*
X6961251Y3352441D01*
X6951014Y3327725D01*
X6947522Y3301202D01*
Y3148802D01*
X6951014Y3122280D01*
X6961251Y3097564D01*
X6977536Y3076340D01*
X6998760Y3060055D01*
X7023476Y3049817D01*
X7049999Y3046326D01*
X7076522Y3049817D01*
X7101237Y3060055D01*
X7122461Y3076340D01*
X7138746Y3097564D01*
X7148984Y3122280D01*
X7152475Y3148802D01*
Y3301202D01*
X7148984Y3327725D01*
X7138746Y3352441D01*
X7122461Y3373665D01*
X7101237Y3389950D01*
X7076522Y3400188D01*
X7049999Y3403679D01*
D02*
G37*
G36*
X6287999D02*
X6261476Y3400188D01*
X6236760Y3389950D01*
X6215536Y3373665D01*
X6199251Y3352441D01*
X6189014Y3327725D01*
X6185522Y3301202D01*
Y3148802D01*
X6189014Y3122280D01*
X6199251Y3097564D01*
X6215536Y3076340D01*
X6236760Y3060055D01*
X6261476Y3049817D01*
X6287999Y3046326D01*
X6314522Y3049817D01*
X6339237Y3060055D01*
X6360461Y3076340D01*
X6376746Y3097564D01*
X6386984Y3122280D01*
X6390475Y3148802D01*
Y3301202D01*
X6386984Y3327725D01*
X6376746Y3352441D01*
X6360461Y3373665D01*
X6339237Y3389950D01*
X6314522Y3400188D01*
X6287999Y3403679D01*
D02*
G37*
G36*
X5969000Y4785137D02*
X5946706Y4782202D01*
X5925932Y4773596D01*
X5908092Y4759908D01*
X5894404Y4742068D01*
X5885798Y4721294D01*
X5882863Y4699000D01*
X5885798Y4676706D01*
X5894404Y4655932D01*
X5908092Y4638092D01*
X5925932Y4624404D01*
X5946706Y4615798D01*
X5969000Y4612863D01*
X5991294Y4615798D01*
X5995516Y4617547D01*
X6120530Y4492533D01*
X6133133Y4484112D01*
X6147999Y4481155D01*
X6406600D01*
Y4459601D01*
X6547400D01*
Y4580401D01*
X6406600D01*
Y4558848D01*
X6164090D01*
X6050453Y4672484D01*
X6052202Y4676706D01*
X6055137Y4699000D01*
X6052202Y4721294D01*
X6043596Y4742068D01*
X6029908Y4759908D01*
X6012068Y4773596D01*
X5991294Y4782202D01*
X5969000Y4785137D01*
D02*
G37*
G36*
X3379398Y5825402D02*
X3291698D01*
Y5737703D01*
X3379398D01*
Y5825402D01*
D02*
G37*
G36*
X3266298D02*
X3178598D01*
Y5737703D01*
X3266298D01*
Y5825402D01*
D02*
G37*
G36*
X6297000Y6874268D02*
X6270791Y6870817D01*
X6246367Y6860701D01*
X6225394Y6844608D01*
X6209301Y6823635D01*
X6199185Y6799211D01*
X6195734Y6773001D01*
X6199185Y6746792D01*
X6209301Y6722368D01*
X6225394Y6701395D01*
X6246367Y6685302D01*
X6270791Y6675186D01*
X6273053Y6674888D01*
Y6160646D01*
X6262301Y6146633D01*
X6252184Y6122210D01*
X6248734Y6096000D01*
X6252184Y6069790D01*
X6262301Y6045367D01*
X6278394Y6024394D01*
X6299367Y6008301D01*
X6323790Y5998184D01*
X6350000Y5994734D01*
X6376210Y5998184D01*
X6400633Y6008301D01*
X6421606Y6024394D01*
X6437699Y6045367D01*
X6447816Y6069790D01*
X6451266Y6096000D01*
X6447816Y6122210D01*
X6437699Y6146633D01*
X6421606Y6167606D01*
X6400633Y6183699D01*
X6376210Y6193816D01*
X6350747Y6197168D01*
Y6687691D01*
X6368607Y6701395D01*
X6384699Y6722368D01*
X6394816Y6746792D01*
X6398267Y6773001D01*
X6394816Y6799211D01*
X6384699Y6823635D01*
X6368607Y6844608D01*
X6347633Y6860701D01*
X6323210Y6870817D01*
X6297000Y6874268D01*
D02*
G37*
G36*
X5535000D02*
X5508791Y6870817D01*
X5484367Y6860701D01*
X5463394Y6844608D01*
X5447301Y6823635D01*
X5437185Y6799211D01*
X5433734Y6773001D01*
X5437185Y6746792D01*
X5447301Y6722368D01*
X5463394Y6701395D01*
X5484367Y6685302D01*
X5496154Y6680420D01*
Y6465362D01*
X5499111Y6450496D01*
X5507532Y6437893D01*
X5525156Y6420269D01*
Y6218170D01*
X5515890Y6214333D01*
X5495962Y6199041D01*
X5480671Y6179113D01*
X5471058Y6155906D01*
X5467779Y6131001D01*
X5471058Y6106097D01*
X5480671Y6082890D01*
X5495962Y6062961D01*
X5515890Y6047670D01*
X5539098Y6038057D01*
X5564002Y6034778D01*
X5588907Y6038057D01*
X5612114Y6047670D01*
X5632042Y6062961D01*
X5647334Y6082890D01*
X5651171Y6092155D01*
X5995240D01*
X5998184Y6069790D01*
X6008301Y6045367D01*
X6024394Y6024394D01*
X6045367Y6008301D01*
X6069790Y5998184D01*
X6096000Y5994734D01*
X6122210Y5998184D01*
X6146633Y6008301D01*
X6167606Y6024394D01*
X6183699Y6045367D01*
X6193816Y6069790D01*
X6197266Y6096000D01*
X6193816Y6122210D01*
X6183699Y6146633D01*
X6167606Y6167606D01*
X6146633Y6183699D01*
X6122210Y6193816D01*
X6096000Y6197266D01*
X6069790Y6193816D01*
X6045367Y6183699D01*
X6027315Y6169848D01*
X5651171D01*
X5647334Y6179113D01*
X5632042Y6199041D01*
X5612114Y6214333D01*
X5602849Y6218170D01*
Y6436360D01*
X5599892Y6451226D01*
X5591471Y6463829D01*
X5573847Y6481452D01*
Y6680420D01*
X5585633Y6685302D01*
X5606607Y6701395D01*
X5622699Y6722368D01*
X5632816Y6746792D01*
X5636267Y6773001D01*
X5632816Y6799211D01*
X5622699Y6823635D01*
X5606607Y6844608D01*
X5585633Y6860701D01*
X5561210Y6870817D01*
X5535000Y6874268D01*
D02*
G37*
G36*
X2149998Y5876049D02*
X2130315Y5873458D01*
X2111973Y5865860D01*
X2096222Y5853774D01*
X2084137Y5838024D01*
X2083609Y5836751D01*
X2079273Y5835888D01*
X2066670Y5827467D01*
X1984211Y5745009D01*
X1975791Y5732406D01*
X1972833Y5717540D01*
Y4119880D01*
X1975791Y4105014D01*
X1984211Y4092411D01*
X2055331Y4021291D01*
X2067934Y4012871D01*
X2073810Y4011702D01*
X2076977Y3998123D01*
X2072393Y3994606D01*
X2056300Y3973633D01*
X2046183Y3949209D01*
X2042733Y3923000D01*
X2046183Y3896790D01*
X2051065Y3885003D01*
X1928331Y3762269D01*
X1919911Y3749667D01*
X1916953Y3734801D01*
Y2883682D01*
X1919911Y2868816D01*
X1928331Y2856214D01*
X2162011Y2622534D01*
X2174614Y2614113D01*
X2175600Y2613917D01*
Y2589602D01*
X2316400D01*
Y2611156D01*
X2433598D01*
Y2589602D01*
X2574398D01*
Y2710402D01*
X2433598D01*
Y2688849D01*
X2316400D01*
Y2710402D01*
X2184017D01*
X1994647Y2899773D01*
Y3718710D01*
X2106002Y3830066D01*
X2117789Y3825184D01*
X2143999Y3821733D01*
X2170209Y3825184D01*
X2194632Y3835300D01*
X2215605Y3851393D01*
X2231698Y3872366D01*
X2239533Y3891283D01*
X2252233Y3888757D01*
Y3832172D01*
X2181995Y3761933D01*
X2170209Y3766815D01*
X2143999Y3770266D01*
X2117789Y3766815D01*
X2093366Y3756699D01*
X2072393Y3740606D01*
X2056300Y3719633D01*
X2046183Y3695209D01*
X2042733Y3669000D01*
X2046183Y3642790D01*
X2051065Y3631003D01*
X2029931Y3609869D01*
X2021511Y3597267D01*
X2018553Y3582401D01*
Y2947319D01*
X2021511Y2932454D01*
X2029931Y2919851D01*
X2175600Y2774182D01*
Y2739600D01*
X2316400D01*
Y2860399D01*
X2199257D01*
X2096247Y2963410D01*
Y3117983D01*
X2108947Y3119234D01*
X2110411Y3111874D01*
X2118831Y3099271D01*
X2175600Y3042503D01*
Y2989602D01*
X2316400D01*
Y3011155D01*
X2433598D01*
Y2989602D01*
X2574398D01*
Y3110401D01*
X2433598D01*
Y3088848D01*
X2316400D01*
Y3110401D01*
X2217576D01*
X2200112Y3127865D01*
X2204972Y3139599D01*
X2316400D01*
Y3202045D01*
X2753086Y3630153D01*
X2813418D01*
X2818300Y3618366D01*
X2834393Y3597393D01*
X2855366Y3581300D01*
X2879789Y3571184D01*
X2905999Y3567733D01*
X2932209Y3571184D01*
X2956632Y3581300D01*
X2977605Y3597393D01*
X2993698Y3618366D01*
X3003814Y3642790D01*
X3007265Y3669000D01*
X3003814Y3695209D01*
X2993698Y3719633D01*
X2977605Y3740606D01*
X2956632Y3756699D01*
X2932209Y3766815D01*
X2905999Y3770266D01*
X2879789Y3766815D01*
X2855366Y3756699D01*
X2834393Y3740606D01*
X2829279Y3733942D01*
X2816606Y3733111D01*
X2230851Y4318866D01*
X2235711Y4330600D01*
X2244399D01*
Y4531399D01*
X2050527D01*
Y5701449D01*
X2062865Y5713788D01*
X2074598Y5708928D01*
Y5685699D01*
X2149998D01*
X2225398D01*
Y5748398D01*
X2219801D01*
X2214184Y5759789D01*
X2215860Y5761973D01*
X2223458Y5780315D01*
X2226049Y5799999D01*
X2223458Y5819682D01*
X2215860Y5838024D01*
X2203774Y5853774D01*
X2188024Y5865860D01*
X2169682Y5873458D01*
X2149998Y5876049D01*
D02*
G37*
G36*
X2225398Y5660299D02*
X2162698D01*
Y5597599D01*
X2225398D01*
Y5660299D01*
D02*
G37*
G36*
X2137298D02*
X2074598D01*
Y5597599D01*
X2137298D01*
Y5660299D01*
D02*
G37*
G36*
X3379398Y5712303D02*
X3291698D01*
Y5624603D01*
X3379398D01*
Y5712303D01*
D02*
G37*
G36*
X3266298D02*
X3178598D01*
Y5624603D01*
X3266298D01*
Y5712303D01*
D02*
G37*
G36*
X3786002Y6227224D02*
X3761098Y6223946D01*
X3737890Y6214333D01*
X3717962Y6199041D01*
X3702671Y6179113D01*
X3693058Y6155906D01*
X3689779Y6131001D01*
X3693058Y6106097D01*
X3702671Y6082890D01*
X3717962Y6062961D01*
X3737890Y6047670D01*
X3761098Y6038057D01*
X3786002Y6034778D01*
X3810907Y6038057D01*
X3834114Y6047670D01*
X3854042Y6062961D01*
X3869334Y6082890D01*
X3878947Y6106097D01*
X3882225Y6131001D01*
X3878947Y6155906D01*
X3869334Y6179113D01*
X3854042Y6199041D01*
X3834114Y6214333D01*
X3810907Y6223946D01*
X3786002Y6227224D01*
D02*
G37*
G36*
X2586595Y7014301D02*
X2499700D01*
Y6927407D01*
X2513210Y6929186D01*
X2537633Y6939302D01*
X2558607Y6955395D01*
X2574699Y6976368D01*
X2584816Y7000792D01*
X2586595Y7014301D01*
D02*
G37*
G36*
X2474300D02*
X2387406D01*
X2389185Y7000792D01*
X2399301Y6976368D01*
X2415394Y6955395D01*
X2436367Y6939302D01*
X2460791Y6929186D01*
X2474300Y6927407D01*
Y7014301D01*
D02*
G37*
G36*
X2840595D02*
X2753700D01*
Y6927407D01*
X2767210Y6929186D01*
X2791633Y6939302D01*
X2812607Y6955395D01*
X2828699Y6976368D01*
X2838816Y7000792D01*
X2840595Y7014301D01*
D02*
G37*
G36*
X2728300D02*
X2641406D01*
X2643185Y7000792D01*
X2653301Y6976368D01*
X2669394Y6955395D01*
X2690367Y6939302D01*
X2714791Y6929186D01*
X2728300Y6927407D01*
Y7014301D01*
D02*
G37*
G36*
X2587400Y6873401D02*
X2386601D01*
Y6672602D01*
X2587400D01*
Y6873401D01*
D02*
G37*
G36*
X5789000Y6874268D02*
X5762791Y6870817D01*
X5738367Y6860701D01*
X5717394Y6844608D01*
X5701301Y6823635D01*
X5691185Y6799211D01*
X5687734Y6773001D01*
X5691185Y6746792D01*
X5701301Y6722368D01*
X5717394Y6701395D01*
X5738367Y6685302D01*
X5762791Y6675186D01*
X5789000Y6671735D01*
X5815210Y6675186D01*
X5839633Y6685302D01*
X5860607Y6701395D01*
X5876699Y6722368D01*
X5886816Y6746792D01*
X5890267Y6773001D01*
X5886816Y6799211D01*
X5876699Y6823635D01*
X5860607Y6844608D01*
X5839633Y6860701D01*
X5815210Y6870817D01*
X5789000Y6874268D01*
D02*
G37*
G36*
X4294002Y6227224D02*
X4269098Y6223946D01*
X4245890Y6214333D01*
X4225962Y6199041D01*
X4210671Y6179113D01*
X4201058Y6155906D01*
X4197779Y6131001D01*
X4201058Y6106097D01*
X4204895Y6096832D01*
X4140671Y6032608D01*
X4132251Y6020005D01*
X4129293Y6005139D01*
Y5430208D01*
X4116593Y5425897D01*
X4108042Y5437041D01*
X4088114Y5452333D01*
X4064907Y5461946D01*
X4040002Y5465224D01*
X4015098Y5461946D01*
X3991890Y5452333D01*
X3971962Y5437041D01*
X3956671Y5417113D01*
X3947058Y5393906D01*
X3943779Y5369001D01*
X3947058Y5344097D01*
X3956671Y5320890D01*
X3971962Y5300961D01*
X3991890Y5285670D01*
X3999753Y5282413D01*
Y5146891D01*
X3680931Y4828069D01*
X3672511Y4815466D01*
X3669553Y4800600D01*
Y3902291D01*
X3598111Y3830848D01*
X3535401D01*
Y3877401D01*
X3364601D01*
Y3706602D01*
X3535401D01*
Y3753155D01*
X3614202D01*
X3629067Y3756112D01*
X3641670Y3764533D01*
X3735869Y3858731D01*
X3744289Y3871334D01*
X3747247Y3886200D01*
Y4784509D01*
X4066069Y5103331D01*
X4074489Y5115934D01*
X4077447Y5130800D01*
Y5281251D01*
X4088114Y5285670D01*
X4108042Y5300961D01*
X4116593Y5312105D01*
X4129293Y5307794D01*
Y4163060D01*
X4132251Y4148194D01*
X4140671Y4135591D01*
X4383293Y3892969D01*
Y3399861D01*
X4386251Y3384995D01*
X4394671Y3372393D01*
X4501600Y3265464D01*
Y3189601D01*
X4635883D01*
X4660153Y3165330D01*
Y3094044D01*
X4655100Y3090174D01*
X4642400Y3096444D01*
Y3160399D01*
X4501600D01*
Y3137647D01*
X4473791D01*
X4224838Y3386600D01*
Y3936929D01*
X4221881Y3951795D01*
X4213460Y3964397D01*
X4028446Y4149412D01*
X4034816Y4164790D01*
X4038266Y4191000D01*
X4034816Y4217210D01*
X4024699Y4241633D01*
X4008606Y4262606D01*
X3987633Y4278699D01*
X3963210Y4288816D01*
X3937000Y4292266D01*
X3910790Y4288816D01*
X3886367Y4278699D01*
X3865394Y4262606D01*
X3849301Y4241633D01*
X3839184Y4217210D01*
X3835734Y4191000D01*
X3839184Y4164790D01*
X3849301Y4140367D01*
X3865394Y4119394D01*
X3886367Y4103301D01*
X3910790Y4093184D01*
X3937000Y4089734D01*
X3963210Y4093184D01*
X3971404Y4096579D01*
X4147145Y3920838D01*
Y3370509D01*
X4150102Y3355643D01*
X4158523Y3343040D01*
X4430231Y3071331D01*
X4442834Y3062911D01*
X4457700Y3059953D01*
X4501600D01*
Y3039599D01*
X4490372Y3036047D01*
X4181691D01*
X3975847Y3241891D01*
Y3590419D01*
X3987633Y3595301D01*
X4008606Y3611394D01*
X4024699Y3632367D01*
X4034816Y3656790D01*
X4038266Y3683000D01*
X4034816Y3709210D01*
X4024699Y3733633D01*
X4008606Y3754606D01*
X3987633Y3770699D01*
X3963210Y3780816D01*
X3937000Y3784266D01*
X3910790Y3780816D01*
X3886367Y3770699D01*
X3865394Y3754606D01*
X3849301Y3733633D01*
X3839184Y3709210D01*
X3835734Y3683000D01*
X3839184Y3656790D01*
X3844066Y3645004D01*
X3635159Y3436097D01*
X3281751D01*
X3266885Y3433139D01*
X3254283Y3424719D01*
X3222533Y3392969D01*
X3214112Y3380366D01*
X3212527Y3372400D01*
X3189601D01*
Y3231600D01*
X3310401D01*
Y3358403D01*
X3651250D01*
X3666116Y3361361D01*
X3678719Y3369781D01*
X3886420Y3577483D01*
X3898153Y3572623D01*
Y3225800D01*
X3901111Y3210934D01*
X3909531Y3198331D01*
X4138131Y2969731D01*
X4150734Y2961311D01*
X4165600Y2958353D01*
X4622800D01*
X4637666Y2961311D01*
X4650269Y2969731D01*
X4726469Y3045931D01*
X4734889Y3058534D01*
X4737847Y3073400D01*
Y3181421D01*
X4734889Y3196287D01*
X4726469Y3208890D01*
X4657889Y3277470D01*
X4645286Y3285891D01*
X4642400Y3286465D01*
Y3310401D01*
X4566537D01*
X4460987Y3415952D01*
Y3909060D01*
X4458029Y3923926D01*
X4449609Y3936529D01*
X4206987Y4179151D01*
Y5304828D01*
X4219687Y5309139D01*
X4225962Y5300961D01*
X4245890Y5285670D01*
X4256293Y5281361D01*
Y4196080D01*
X4259251Y4181214D01*
X4267671Y4168611D01*
X4402291Y4033991D01*
X4414894Y4025571D01*
X4429760Y4022613D01*
X4625893D01*
X4629976Y4010587D01*
X4627394Y4008606D01*
X4611301Y3987633D01*
X4601184Y3963210D01*
X4597734Y3937000D01*
X4601184Y3910790D01*
X4611301Y3886367D01*
X4627394Y3865394D01*
X4648367Y3849301D01*
X4672790Y3839184D01*
X4699000Y3835734D01*
X4725210Y3839184D01*
X4749633Y3849301D01*
X4770606Y3865394D01*
X4786699Y3886367D01*
X4796816Y3910790D01*
X4800266Y3937000D01*
X4796816Y3963210D01*
X4786699Y3987633D01*
X4770606Y4008606D01*
X4768024Y4010587D01*
X4772107Y4022613D01*
X5367020D01*
X5381886Y4025571D01*
X5394489Y4033991D01*
X5512651Y4152153D01*
X5883600D01*
Y4105600D01*
X6054400D01*
Y4276400D01*
X5883600D01*
Y4229847D01*
X5496560D01*
X5481694Y4226889D01*
X5469091Y4218469D01*
X5350929Y4100307D01*
X5302907D01*
X5292400Y4105600D01*
X5292400Y4113007D01*
Y4276400D01*
X5176537D01*
X4586849Y4866089D01*
Y5281832D01*
X4596114Y5285670D01*
X4616042Y5300961D01*
X4631334Y5320890D01*
X4640947Y5344097D01*
X4644225Y5369001D01*
X4640947Y5393906D01*
X4631334Y5417113D01*
X4616042Y5437041D01*
X4596114Y5452333D01*
X4572907Y5461946D01*
X4548002Y5465224D01*
X4523098Y5461946D01*
X4499890Y5452333D01*
X4479962Y5437041D01*
X4464671Y5417113D01*
X4455058Y5393906D01*
X4451779Y5369001D01*
X4455058Y5344097D01*
X4464671Y5320890D01*
X4479962Y5300961D01*
X4499890Y5285670D01*
X4509156Y5281832D01*
Y4849998D01*
X4512113Y4835132D01*
X4520534Y4822529D01*
X5121600Y4221463D01*
Y4113007D01*
X5121600Y4105600D01*
X5111093Y4100307D01*
X4766593D01*
X4762282Y4113007D01*
X4770606Y4119394D01*
X4786699Y4140367D01*
X4796816Y4164790D01*
X4800266Y4191000D01*
X4796816Y4217210D01*
X4786699Y4241633D01*
X4770606Y4262606D01*
X4749633Y4278699D01*
X4725210Y4288816D01*
X4699000Y4292266D01*
X4672790Y4288816D01*
X4648367Y4278699D01*
X4627394Y4262606D01*
X4611301Y4241633D01*
X4601184Y4217210D01*
X4597734Y4191000D01*
X4601184Y4164790D01*
X4611301Y4140367D01*
X4627394Y4119394D01*
X4635718Y4113007D01*
X4631407Y4100307D01*
X4445851D01*
X4333987Y4212171D01*
Y5282303D01*
X4342114Y5285670D01*
X4362042Y5300961D01*
X4377334Y5320890D01*
X4386947Y5344097D01*
X4390225Y5369001D01*
X4386947Y5393906D01*
X4377334Y5417113D01*
X4362042Y5437041D01*
X4342114Y5452333D01*
X4318907Y5461946D01*
X4294002Y5465224D01*
X4269098Y5461946D01*
X4245890Y5452333D01*
X4225962Y5437041D01*
X4219687Y5428863D01*
X4206987Y5433174D01*
Y5989048D01*
X4259832Y6041894D01*
X4269098Y6038057D01*
X4294002Y6034778D01*
X4318907Y6038057D01*
X4342114Y6047670D01*
X4362042Y6062961D01*
X4377334Y6082890D01*
X4386947Y6106097D01*
X4390225Y6131001D01*
X4386947Y6155906D01*
X4377334Y6179113D01*
X4362042Y6199041D01*
X4342114Y6214333D01*
X4318907Y6223946D01*
X4294002Y6227224D01*
D02*
G37*
G36*
X6551000Y6874268D02*
X6524791Y6870817D01*
X6500367Y6860701D01*
X6479394Y6844608D01*
X6463301Y6823635D01*
X6453185Y6799211D01*
X6449734Y6773001D01*
X6453185Y6746792D01*
X6463301Y6722368D01*
X6479394Y6701395D01*
X6500367Y6685302D01*
X6524791Y6675186D01*
X6551000Y6671735D01*
X6577210Y6675186D01*
X6601633Y6685302D01*
X6622607Y6701395D01*
X6638699Y6722368D01*
X6648816Y6746792D01*
X6652267Y6773001D01*
X6648816Y6799211D01*
X6638699Y6823635D01*
X6622607Y6844608D01*
X6601633Y6860701D01*
X6577210Y6870817D01*
X6551000Y6874268D01*
D02*
G37*
G36*
X6043000D02*
X6016791Y6870817D01*
X5992367Y6860701D01*
X5971394Y6844608D01*
X5955301Y6823635D01*
X5945185Y6799211D01*
X5941734Y6773001D01*
X5945185Y6746792D01*
X5955301Y6722368D01*
X5971394Y6701395D01*
X5992367Y6685302D01*
X6016791Y6675186D01*
X6043000Y6671735D01*
X6069210Y6675186D01*
X6093633Y6685302D01*
X6114607Y6701395D01*
X6130699Y6722368D01*
X6140816Y6746792D01*
X6144267Y6773001D01*
X6140816Y6799211D01*
X6130699Y6823635D01*
X6114607Y6844608D01*
X6093633Y6860701D01*
X6069210Y6870817D01*
X6043000Y6874268D01*
D02*
G37*
G36*
X4802002Y5465224D02*
X4777098Y5461946D01*
X4753890Y5452333D01*
X4733962Y5437041D01*
X4718671Y5417113D01*
X4709058Y5393906D01*
X4705779Y5369001D01*
X4709058Y5344097D01*
X4718671Y5320890D01*
X4733962Y5300961D01*
X4753890Y5285670D01*
X4777098Y5276057D01*
X4802002Y5272778D01*
X4826907Y5276057D01*
X4850114Y5285670D01*
X4870042Y5300961D01*
X4885334Y5320890D01*
X4894947Y5344097D01*
X4898225Y5369001D01*
X4894947Y5393906D01*
X4885334Y5417113D01*
X4870042Y5437041D01*
X4850114Y5452333D01*
X4826907Y5461946D01*
X4802002Y5465224D01*
D02*
G37*
G36*
X7313000Y6874268D02*
X7286791Y6870817D01*
X7262367Y6860701D01*
X7241394Y6844608D01*
X7225301Y6823635D01*
X7215185Y6799211D01*
X7211734Y6773001D01*
X7215185Y6746792D01*
X7225301Y6722368D01*
X7241394Y6701395D01*
X7262367Y6685302D01*
X7274154Y6680420D01*
Y6390300D01*
X7277111Y6375434D01*
X7285532Y6362831D01*
X7523347Y6125016D01*
X7522184Y6122210D01*
X7518734Y6096000D01*
X7522184Y6069790D01*
X7532301Y6045367D01*
X7548394Y6024394D01*
X7548920Y6016358D01*
X7249631Y5717069D01*
X7241211Y5704466D01*
X7238253Y5689600D01*
Y5645950D01*
X7223764Y5639948D01*
X7202540Y5623663D01*
X7186254Y5602439D01*
X7176017Y5577723D01*
X7172525Y5551200D01*
Y5398800D01*
X7176017Y5372278D01*
X7186254Y5347562D01*
X7192294Y5339691D01*
X6673051Y4820449D01*
X6664631Y4807846D01*
X6661673Y4792980D01*
Y4544911D01*
X6547162Y4430399D01*
X6406600D01*
Y4309599D01*
X6438153D01*
Y3829279D01*
X6441111Y3814413D01*
X6449531Y3801810D01*
X6503152Y3748189D01*
Y3395083D01*
X6490760Y3389950D01*
X6469536Y3373665D01*
X6453251Y3352441D01*
X6443014Y3327725D01*
X6439522Y3301202D01*
Y3148802D01*
X6443014Y3122280D01*
X6453251Y3097564D01*
X6469536Y3076340D01*
X6490760Y3060055D01*
X6503152Y3054922D01*
Y2826017D01*
X6492659Y2815524D01*
X5955675D01*
X5940809Y2812567D01*
X5928207Y2804146D01*
X5818529Y2694469D01*
X5810109Y2681866D01*
X5807151Y2667000D01*
Y2370081D01*
X5794760Y2364948D01*
X5773536Y2348663D01*
X5757250Y2327439D01*
X5747013Y2302724D01*
X5743521Y2276201D01*
Y2123801D01*
X5747013Y2097278D01*
X5757250Y2072562D01*
X5773536Y2051339D01*
X5794760Y2035053D01*
X5819475Y2024816D01*
X5845998Y2021324D01*
X5872521Y2024816D01*
X5897236Y2035053D01*
X5918460Y2051339D01*
X5934746Y2072562D01*
X5944983Y2097278D01*
X5948475Y2123801D01*
Y2276201D01*
X5944983Y2302724D01*
X5934746Y2327439D01*
X5918460Y2348663D01*
X5897236Y2364948D01*
X5884844Y2370081D01*
Y2650909D01*
X5971766Y2737831D01*
X6508750D01*
X6523616Y2740788D01*
X6536219Y2749209D01*
X6569467Y2782457D01*
X6577888Y2795060D01*
X6580845Y2809926D01*
Y3054922D01*
X6593237Y3060055D01*
X6614461Y3076340D01*
X6630746Y3097564D01*
X6640984Y3122280D01*
X6644475Y3148802D01*
Y3301202D01*
X6640984Y3327725D01*
X6630746Y3352441D01*
X6614461Y3373665D01*
X6593237Y3389950D01*
X6580845Y3395083D01*
Y3764280D01*
X6577888Y3779146D01*
X6569467Y3791749D01*
X6515847Y3845369D01*
Y4309599D01*
X6547400D01*
Y4332286D01*
X6556565Y4334109D01*
X6569167Y4342530D01*
X6727989Y4501351D01*
X6736409Y4513954D01*
X6739367Y4528820D01*
Y4776889D01*
X6841454Y4878977D01*
X6852221Y4871783D01*
X6846184Y4857208D01*
X6844405Y4843699D01*
X6931299D01*
Y4930593D01*
X6917790Y4928814D01*
X6903215Y4922777D01*
X6896021Y4933544D01*
X7260686Y5298208D01*
X7275002Y5296324D01*
X7279559Y5296924D01*
X7540513Y5035969D01*
Y4901432D01*
X7527813Y4897121D01*
X7523605Y4902605D01*
X7502632Y4918698D01*
X7478209Y4928814D01*
X7451999Y4932265D01*
X7425790Y4928814D01*
X7401366Y4918698D01*
X7380393Y4902605D01*
X7364300Y4881632D01*
X7354184Y4857208D01*
X7350733Y4830999D01*
X7354184Y4804789D01*
X7364300Y4780366D01*
X7380393Y4759393D01*
X7401366Y4743300D01*
X7425790Y4733183D01*
X7451999Y4729732D01*
X7478209Y4733183D01*
X7502632Y4743300D01*
X7523605Y4759393D01*
X7527813Y4764876D01*
X7540513Y4760566D01*
Y4206240D01*
X7543471Y4191374D01*
X7551891Y4178771D01*
X7616171Y4114492D01*
X7608184Y4095208D01*
X7604733Y4068999D01*
X7608184Y4042789D01*
X7618300Y4018366D01*
X7634393Y3997393D01*
X7655366Y3981300D01*
X7679790Y3971183D01*
X7705999Y3967732D01*
X7732209Y3971183D01*
X7756632Y3981300D01*
X7777605Y3997393D01*
X7793698Y4018366D01*
X7803815Y4042789D01*
X7807266Y4068999D01*
X7803815Y4095208D01*
X7793698Y4119632D01*
X7777605Y4140605D01*
X7756632Y4156698D01*
X7732209Y4166814D01*
X7705999Y4170265D01*
X7679790Y4166814D01*
X7675500Y4165037D01*
X7618207Y4222331D01*
Y4759625D01*
X7630907Y4763936D01*
X7634393Y4759393D01*
X7655366Y4743300D01*
X7679790Y4733183D01*
X7705999Y4729732D01*
X7732209Y4733183D01*
X7756632Y4743300D01*
X7777605Y4759393D01*
X7793698Y4780366D01*
X7803815Y4804789D01*
X7807266Y4830999D01*
X7803815Y4857208D01*
X7793698Y4881632D01*
X7777605Y4902605D01*
X7756632Y4918698D01*
X7732209Y4928814D01*
X7705999Y4932265D01*
X7679790Y4928814D01*
X7655366Y4918698D01*
X7634393Y4902605D01*
X7630907Y4898061D01*
X7618207Y4902372D01*
Y5052060D01*
X7615249Y5066926D01*
X7606829Y5079529D01*
X7352915Y5333442D01*
X7363750Y5347562D01*
X7373987Y5372278D01*
X7377479Y5398800D01*
Y5551200D01*
X7373987Y5577723D01*
X7363750Y5602439D01*
X7347464Y5623663D01*
X7326240Y5639948D01*
X7315947Y5644212D01*
Y5673509D01*
X7639774Y5997337D01*
X7646210Y5998184D01*
X7670633Y6008301D01*
X7691606Y6024394D01*
X7707699Y6045367D01*
X7717816Y6069790D01*
X7721266Y6096000D01*
X7717816Y6122210D01*
X7707699Y6146633D01*
X7691606Y6167606D01*
X7670633Y6183699D01*
X7646210Y6193816D01*
X7620000Y6197266D01*
X7593790Y6193816D01*
X7573023Y6185214D01*
X7351847Y6406390D01*
Y6680420D01*
X7363633Y6685302D01*
X7384607Y6701395D01*
X7400699Y6722368D01*
X7410816Y6746792D01*
X7414267Y6773001D01*
X7410816Y6799211D01*
X7400699Y6823635D01*
X7384607Y6844608D01*
X7363633Y6860701D01*
X7339210Y6870817D01*
X7313000Y6874268D01*
D02*
G37*
G36*
X5310002Y5465224D02*
X5285098Y5461946D01*
X5261890Y5452333D01*
X5241962Y5437041D01*
X5226671Y5417113D01*
X5217058Y5393906D01*
X5213779Y5369001D01*
X5217058Y5344097D01*
X5226671Y5320890D01*
X5241962Y5300961D01*
X5261890Y5285670D01*
X5285098Y5276057D01*
X5310002Y5272778D01*
X5334907Y5276057D01*
X5358114Y5285670D01*
X5378042Y5300961D01*
X5393334Y5320890D01*
X5402947Y5344097D01*
X5406225Y5369001D01*
X5402947Y5393906D01*
X5393334Y5417113D01*
X5378042Y5437041D01*
X5358114Y5452333D01*
X5334907Y5461946D01*
X5310002Y5465224D01*
D02*
G37*
G36*
X5056002D02*
X5031098Y5461946D01*
X5007890Y5452333D01*
X4987962Y5437041D01*
X4972671Y5417113D01*
X4963058Y5393906D01*
X4959779Y5369001D01*
X4963058Y5344097D01*
X4972671Y5320890D01*
X4987962Y5300961D01*
X5007890Y5285670D01*
X5031098Y5276057D01*
X5056002Y5272778D01*
X5080907Y5276057D01*
X5104114Y5285670D01*
X5124042Y5300961D01*
X5139334Y5320890D01*
X5148947Y5344097D01*
X5152225Y5369001D01*
X5148947Y5393906D01*
X5139334Y5417113D01*
X5124042Y5437041D01*
X5104114Y5452333D01*
X5080907Y5461946D01*
X5056002Y5465224D01*
D02*
G37*
G36*
X6956699Y4930593D02*
Y4843699D01*
X7043593D01*
X7041815Y4857208D01*
X7031698Y4881632D01*
X7015605Y4902605D01*
X6994632Y4918698D01*
X6970209Y4928814D01*
X6956699Y4930593D01*
D02*
G37*
G36*
X7197999Y4932265D02*
X7171790Y4928814D01*
X7147366Y4918698D01*
X7126393Y4902605D01*
X7110300Y4881632D01*
X7100184Y4857208D01*
X7096733Y4830999D01*
X7100184Y4804789D01*
X7110300Y4780366D01*
X7126393Y4759393D01*
X7147366Y4743300D01*
X7171790Y4733183D01*
X7197999Y4729732D01*
X7224209Y4733183D01*
X7248632Y4743300D01*
X7269605Y4759393D01*
X7285698Y4780366D01*
X7295815Y4804789D01*
X7299266Y4830999D01*
X7295815Y4857208D01*
X7285698Y4881632D01*
X7269605Y4902605D01*
X7248632Y4918698D01*
X7224209Y4928814D01*
X7197999Y4932265D01*
D02*
G37*
G36*
X5207000Y4785137D02*
X5184706Y4782202D01*
X5163932Y4773596D01*
X5146092Y4759908D01*
X5132404Y4742068D01*
X5123798Y4721294D01*
X5120863Y4699000D01*
X5123798Y4676706D01*
X5132404Y4655932D01*
X5146092Y4638092D01*
X5163932Y4624404D01*
X5184706Y4615798D01*
X5207000Y4612863D01*
X5229294Y4615798D01*
X5250068Y4624404D01*
X5267908Y4638092D01*
X5281596Y4655932D01*
X5290202Y4676706D01*
X5293137Y4699000D01*
X5290202Y4721294D01*
X5281596Y4742068D01*
X5267908Y4759908D01*
X5250068Y4773596D01*
X5229294Y4782202D01*
X5207000Y4785137D01*
D02*
G37*
G36*
X7043593Y4818299D02*
X6956699D01*
Y4731405D01*
X6970209Y4733183D01*
X6994632Y4743300D01*
X7015605Y4759393D01*
X7031698Y4780366D01*
X7041815Y4804789D01*
X7043593Y4818299D01*
D02*
G37*
G36*
X6931299D02*
X6844405D01*
X6846184Y4804789D01*
X6856300Y4780366D01*
X6872393Y4759393D01*
X6893366Y4743300D01*
X6917790Y4733183D01*
X6931299Y4731405D01*
Y4818299D01*
D02*
G37*
G36*
X5564002Y5465224D02*
X5539098Y5461946D01*
X5515890Y5452333D01*
X5495962Y5437041D01*
X5480671Y5417113D01*
X5471058Y5393906D01*
X5467779Y5369001D01*
X5471058Y5344097D01*
X5480671Y5320890D01*
X5495962Y5300961D01*
X5515890Y5285670D01*
X5539098Y5276057D01*
X5564002Y5272778D01*
X5588907Y5276057D01*
X5612114Y5285670D01*
X5632042Y5300961D01*
X5647334Y5320890D01*
X5656947Y5344097D01*
X5660225Y5369001D01*
X5656947Y5393906D01*
X5647334Y5417113D01*
X5632042Y5437041D01*
X5612114Y5452333D01*
X5588907Y5461946D01*
X5564002Y5465224D01*
D02*
G37*
G36*
X7631479Y5462300D02*
X7541702D01*
Y5297995D01*
X7555525Y5299815D01*
X7580240Y5310053D01*
X7601464Y5326338D01*
X7617750Y5347562D01*
X7627987Y5372278D01*
X7631479Y5398800D01*
Y5462300D01*
D02*
G37*
G36*
X7516302D02*
X7426525D01*
Y5398800D01*
X7430017Y5372278D01*
X7440254Y5347562D01*
X7456540Y5326338D01*
X7477764Y5310053D01*
X7502479Y5299815D01*
X7516302Y5297995D01*
Y5462300D01*
D02*
G37*
G36*
X7541702Y5652005D02*
Y5487700D01*
X7631479D01*
Y5551200D01*
X7627987Y5577723D01*
X7617750Y5602439D01*
X7601464Y5623663D01*
X7580240Y5639948D01*
X7555525Y5650186D01*
X7541702Y5652005D01*
D02*
G37*
G36*
X7516302D02*
X7502479Y5650186D01*
X7477764Y5639948D01*
X7456540Y5623663D01*
X7440254Y5602439D01*
X7430017Y5577723D01*
X7426525Y5551200D01*
Y5487700D01*
X7516302D01*
Y5652005D01*
D02*
G37*
G36*
X7783002Y5653677D02*
X7756479Y5650186D01*
X7731764Y5639948D01*
X7710540Y5623663D01*
X7694254Y5602439D01*
X7684017Y5577723D01*
X7680525Y5551200D01*
Y5398800D01*
X7684017Y5372278D01*
X7694254Y5347562D01*
X7710540Y5326338D01*
X7731764Y5310053D01*
X7756479Y5299815D01*
X7783002Y5296324D01*
X7809525Y5299815D01*
X7834240Y5310053D01*
X7855464Y5326338D01*
X7871750Y5347562D01*
X7881987Y5372278D01*
X7885479Y5398800D01*
Y5551200D01*
X7881987Y5577723D01*
X7871750Y5602439D01*
X7855464Y5623663D01*
X7834240Y5639948D01*
X7809525Y5650186D01*
X7783002Y5653677D01*
D02*
G37*
G36*
X6513002D02*
X6486479Y5650186D01*
X6461764Y5639948D01*
X6440540Y5623663D01*
X6424254Y5602439D01*
X6414017Y5577723D01*
X6410525Y5551200D01*
Y5398800D01*
X6414017Y5372278D01*
X6424254Y5347562D01*
X6440540Y5326338D01*
X6461764Y5310053D01*
X6486479Y5299815D01*
X6513002Y5296324D01*
X6539525Y5299815D01*
X6564240Y5310053D01*
X6585464Y5326338D01*
X6601750Y5347562D01*
X6611987Y5372278D01*
X6615479Y5398800D01*
Y5551200D01*
X6611987Y5577723D01*
X6601750Y5602439D01*
X6585464Y5623663D01*
X6564240Y5639948D01*
X6539525Y5650186D01*
X6513002Y5653677D01*
D02*
G37*
G36*
X3881402Y5464401D02*
X3690602D01*
Y5273601D01*
X3881402D01*
Y5464401D01*
D02*
G37*
G36*
X7021002Y5653677D02*
X6994479Y5650186D01*
X6969764Y5639948D01*
X6948540Y5623663D01*
X6932254Y5602439D01*
X6922017Y5577723D01*
X6918525Y5551200D01*
Y5398800D01*
X6922017Y5372278D01*
X6932254Y5347562D01*
X6948540Y5326338D01*
X6969764Y5310053D01*
X6994479Y5299815D01*
X7021002Y5296324D01*
X7047525Y5299815D01*
X7072240Y5310053D01*
X7093464Y5326338D01*
X7109750Y5347562D01*
X7119987Y5372278D01*
X7123479Y5398800D01*
Y5551200D01*
X7119987Y5577723D01*
X7109750Y5602439D01*
X7093464Y5623663D01*
X7072240Y5639948D01*
X7047525Y5650186D01*
X7021002Y5653677D01*
D02*
G37*
G36*
X6767002D02*
X6740479Y5650186D01*
X6715764Y5639948D01*
X6694540Y5623663D01*
X6678254Y5602439D01*
X6668017Y5577723D01*
X6664525Y5551200D01*
Y5398800D01*
X6668017Y5372278D01*
X6678254Y5347562D01*
X6694540Y5326338D01*
X6715764Y5310053D01*
X6740479Y5299815D01*
X6767002Y5296324D01*
X6793525Y5299815D01*
X6818240Y5310053D01*
X6839464Y5326338D01*
X6855750Y5347562D01*
X6865987Y5372278D01*
X6869479Y5398800D01*
Y5551200D01*
X6865987Y5577723D01*
X6855750Y5602439D01*
X6839464Y5623663D01*
X6818240Y5639948D01*
X6793525Y5650186D01*
X6767002Y5653677D01*
D02*
G37*
%LPD*%
D10*
X3137499Y1869999D02*
D03*
Y2455001D02*
D03*
X3962502Y2640000D02*
D03*
D11*
X2503998Y2799999D02*
D03*
Y2650002D02*
D03*
X2246000Y3199999D02*
D03*
Y3050002D02*
D03*
Y2799999D02*
D03*
Y2650002D02*
D03*
X2503998Y3199999D02*
D03*
Y3050002D02*
D03*
X4572000Y3099999D02*
D03*
Y3250001D02*
D03*
X6477000Y4520001D02*
D03*
Y4369999D02*
D03*
D12*
X3100004Y3302000D02*
D03*
X3250001D02*
D03*
D13*
X2246000Y2650002D02*
X2503998D01*
X2246000Y3050002D02*
X2503998D01*
X5564002Y6131001D02*
Y6436360D01*
X5535000Y6465362D02*
X5564002Y6436360D01*
X5535000Y6465362D02*
Y6773001D01*
X6541999Y3225002D02*
Y3764280D01*
X6477000Y3829279D02*
X6541999Y3764280D01*
X6477000Y3829279D02*
Y4369999D01*
X2770998Y5725003D02*
X2867660Y5821665D01*
Y6899661D01*
X2995000Y7027001D01*
X2905999Y4431000D02*
X3278998Y4803999D01*
Y5725003D01*
X2905999Y3923000D02*
X3100004Y3728994D01*
Y3302000D02*
Y3728994D01*
X6147999Y4520001D02*
X6477000D01*
X5969000Y4699000D02*
X6147999Y4520001D01*
X4762500Y5984240D02*
X4909241D01*
X5056002Y6131001D01*
X3137499Y1869999D02*
Y2118959D01*
X2503998Y3199999D02*
X2962041D01*
X4572000Y3250001D02*
X4630420D01*
X3962502Y2499360D02*
Y2640000D01*
X3365500Y1902358D02*
X3962502Y2499360D01*
X3365500Y1784350D02*
Y1902358D01*
X2682591Y2799999D02*
X2720340Y2762250D01*
X2503998Y2799999D02*
X2682591D01*
X4548002Y4849998D02*
X5207000Y4191000D01*
X4548002Y4849998D02*
Y5369001D01*
X2189480Y2650002D02*
X2246000D01*
X2258822Y3199999D02*
X2737221Y3669000D01*
X2246000Y3199999D02*
X2258822D01*
X2143999Y4350781D02*
Y4431000D01*
X2223038Y3050002D02*
X2246000D01*
X4802002Y6131001D02*
X5027000Y6355999D01*
Y6773001D01*
X3377179Y6901180D02*
X3503000Y7027001D01*
X6541999Y2809926D02*
Y3225002D01*
X6508750Y2776677D02*
X6541999Y2809926D01*
X5955675Y2776677D02*
X6508750D01*
X5845998Y2667000D02*
X5955675Y2776677D01*
X5845998Y2200001D02*
Y2667000D01*
X2204720Y2799999D02*
X2246000D01*
X3651250Y3397250D02*
X3937000Y3683000D01*
X3281751Y3397250D02*
X3651250D01*
X3250001Y3365500D02*
X3281751Y3397250D01*
X3250001Y3302000D02*
Y3365500D01*
X6795999Y2621966D02*
Y3225002D01*
X6762750Y2588717D02*
X6795999Y2621966D01*
X6212215Y2588717D02*
X6762750D01*
X6099998Y2476500D02*
X6212215Y2588717D01*
X6099998Y2200001D02*
Y2476500D01*
X6795999Y3225002D02*
Y4682998D01*
X6943999Y4830999D01*
X3937000Y3225800D02*
Y3683000D01*
X4630420Y3250001D02*
X4699000Y3181421D01*
X3937000Y3225800D02*
X4165600Y2997200D01*
X4622800D01*
X4699000Y3073400D01*
Y3181421D01*
X3450001Y3792002D02*
X3614202D01*
X3708400Y3886200D01*
Y4800600D01*
X4038600Y5130800D01*
Y5359400D01*
X3937000Y4185920D02*
X4185991Y3936929D01*
X3137499Y2118959D02*
X3347720Y2329180D01*
Y2814320D01*
X2962041Y3199999D02*
X3347720Y2814320D01*
X2720340Y1991360D02*
Y2762250D01*
X1955800Y2883682D02*
X2189480Y2650002D01*
X1955800Y2883682D02*
Y3734801D01*
X2143999Y3923000D01*
X2057400Y2947319D02*
X2204720Y2799999D01*
X2057400Y2947319D02*
Y3582401D01*
X2143999Y3669000D01*
X2291080Y3816081D01*
Y3952042D01*
X2146300Y3126740D02*
X2223038Y3050002D01*
X2146300Y3126740D02*
Y3286760D01*
X2367280Y3507740D01*
X2827020Y3667760D02*
X2900680D01*
X2143999Y4350781D02*
X2825780Y3669000D01*
X2827020Y3667760D01*
X2737221Y3669000D02*
X2825780D01*
X2905999D01*
X2367280Y3507740D02*
Y3959860D01*
X2146300Y4180840D02*
X2367280Y3959860D01*
X2011680Y4119880D02*
X2082800Y4048760D01*
X2194362D01*
X2291080Y3952042D01*
X7274560Y5431790D02*
Y5471160D01*
Y5356860D02*
X7579360Y5052060D01*
X6700520Y4792980D02*
X7274560Y5367020D01*
Y5356860D02*
Y5367020D01*
X5281000Y6773001D02*
X5405120Y6897121D01*
Y7076440D01*
X5156200Y6284803D02*
X5310002Y6131001D01*
X5156200Y6284803D02*
Y6902201D01*
X5281000Y7027001D01*
X4455160Y7157720D02*
X5323840D01*
X5405120Y7076440D01*
X4396740Y6282263D02*
X4548002Y6131001D01*
X4396740Y6282263D02*
Y7099300D01*
X4455160Y7157720D01*
X4668520Y6078220D02*
X4762500Y5984240D01*
X4668520Y6078220D02*
Y6668521D01*
X4773000Y6773001D01*
X2357120Y6897121D02*
X2487000Y7027001D01*
X2149998Y5672999D02*
X2190659D01*
X2357120Y5839460D01*
Y6897121D01*
X2011680Y4119880D02*
Y5717540D01*
X2094139Y5799999D01*
X2149998D01*
X4168140Y6005139D02*
X4294002Y6131001D01*
X4422140Y3399861D02*
X4572000Y3250001D01*
X5496560Y4191000D02*
X5969000D01*
X4429760Y4061460D02*
X5367020D01*
X5496560Y4191000D01*
X4295140Y4196080D02*
X4429760Y4061460D01*
X4295140Y4196080D02*
Y5349240D01*
X4300220Y5354320D01*
X2720340Y1991360D02*
X2984500Y1727200D01*
X3308350D01*
X3365500Y1784350D01*
X7313000Y6390300D02*
Y6773001D01*
Y6390300D02*
X7607300Y6096000D01*
X7277100Y5486400D02*
Y5689600D01*
X7620000Y6032500D01*
Y6096000D01*
X6934200Y6527800D02*
Y6897802D01*
X6805000Y7027001D02*
X6934200Y6897802D01*
Y6527800D02*
X7366000Y6096000D01*
X5564002Y6131001D02*
X6060999D01*
X6096000Y6096000D01*
X6604000D02*
X7112000D01*
X3886200Y6284803D02*
X4040002Y6131001D01*
X3886200Y6284803D02*
Y6902201D01*
X4011000Y7027001D01*
X7579360Y4206240D02*
Y5052060D01*
Y4206240D02*
X7705999Y4079601D01*
Y4068999D02*
Y4079601D01*
X6477000Y4369999D02*
X6541699D01*
X6700520Y4528820D01*
Y4792980D01*
X4168140Y4163060D02*
Y6005139D01*
Y4163060D02*
X4422140Y3909060D01*
Y3399861D02*
Y3909060D01*
X4570801Y3098800D02*
X4572000Y3099999D01*
X4185991Y3370509D02*
Y3936929D01*
Y3370509D02*
X4457700Y3098800D01*
X4570801D01*
X3024998Y5725003D02*
Y5793598D01*
X3377179Y6145779D01*
Y6901180D01*
X6311900Y6134100D02*
X6350000Y6096000D01*
X6311900Y6134100D02*
Y6758102D01*
X6297000Y6773001D02*
X6311900Y6758102D01*
D14*
X2487000Y6773001D02*
D03*
X3278998Y5725003D02*
D03*
X7112000Y6096000D02*
D03*
X3937000Y4445000D02*
D03*
X2143999Y4431000D02*
D03*
X6604000Y6096000D02*
D03*
D15*
X2487000Y7027001D02*
D03*
X2741000Y6773001D02*
D03*
Y7027001D02*
D03*
X2995000Y6773001D02*
D03*
Y7027001D02*
D03*
X3249000Y6773001D02*
D03*
Y7027001D02*
D03*
X3503000Y6773001D02*
D03*
Y7027001D02*
D03*
X3757000Y6773001D02*
D03*
Y7027001D02*
D03*
X4011000Y6773001D02*
D03*
Y7027001D02*
D03*
X4265000Y6773001D02*
D03*
Y7027001D02*
D03*
X4519000Y6773001D02*
D03*
Y7027001D02*
D03*
X4773000Y6773001D02*
D03*
Y7027001D02*
D03*
X5027000Y6773001D02*
D03*
Y7027001D02*
D03*
X5281000Y6773001D02*
D03*
Y7027001D02*
D03*
X5535000Y6773001D02*
D03*
Y7027001D02*
D03*
X5789000Y6773001D02*
D03*
Y7027001D02*
D03*
X6043000Y6773001D02*
D03*
Y7027001D02*
D03*
X6297000Y6773001D02*
D03*
Y7027001D02*
D03*
X7313000D02*
D03*
Y6773001D02*
D03*
X7059000Y7027001D02*
D03*
Y6773001D02*
D03*
X6805000Y7027001D02*
D03*
Y6773001D02*
D03*
X6551000Y7027001D02*
D03*
Y6773001D02*
D03*
X2770998Y5725003D02*
D03*
X3024998D02*
D03*
X7620000Y6096000D02*
D03*
X7366000D02*
D03*
X4699000Y3683000D02*
D03*
Y3937000D02*
D03*
Y4191000D02*
D03*
Y4445000D02*
D03*
X3937000Y3683000D02*
D03*
Y3937000D02*
D03*
Y4191000D02*
D03*
X7705999Y4830999D02*
D03*
X7451999D02*
D03*
X7197999D02*
D03*
X6943999D02*
D03*
X7705999Y4068999D02*
D03*
X7451999D02*
D03*
X7197999D02*
D03*
X2905999Y3669000D02*
D03*
Y3923000D02*
D03*
Y4177000D02*
D03*
Y4431000D02*
D03*
X2143999Y3669000D02*
D03*
Y3923000D02*
D03*
Y4177000D02*
D03*
X6096000Y6096000D02*
D03*
X6350000D02*
D03*
D16*
X7800000Y2000001D02*
D03*
Y6900001D02*
D03*
X2000001Y2000001D02*
D03*
Y6900001D02*
D03*
D17*
X2149998Y5799999D02*
D03*
D18*
Y5672999D02*
D03*
D19*
X5564002Y6131001D02*
D03*
X3786002D02*
D03*
X4040002D02*
D03*
X4294002D02*
D03*
X4548002D02*
D03*
X4802002D02*
D03*
X5056002D02*
D03*
X5310002D02*
D03*
X5564002Y5369001D02*
D03*
X5310002D02*
D03*
X5056002D02*
D03*
X4802002D02*
D03*
X4548002D02*
D03*
X4294002D02*
D03*
X4040002D02*
D03*
D20*
X3786002D02*
D03*
D21*
X3119999Y2750002D02*
D03*
X3980002Y2315002D02*
D03*
D22*
X5779999Y3225002D02*
D03*
X6033999D02*
D03*
X6287999D02*
D03*
X6541999D02*
D03*
X6795999D02*
D03*
X7049999D02*
D03*
X6513002Y5475000D02*
D03*
X6767002D02*
D03*
X7021002D02*
D03*
X7275002D02*
D03*
X7529002D02*
D03*
X7783002D02*
D03*
X5083998Y2200001D02*
D03*
X5337998D02*
D03*
X5591998D02*
D03*
X5845998D02*
D03*
X6099998D02*
D03*
X6353998D02*
D03*
D23*
X5969000Y4699000D02*
D03*
Y4445000D02*
D03*
X5207000Y4699000D02*
D03*
Y4445000D02*
D03*
X3450001Y4300002D02*
D03*
Y4046002D02*
D03*
D24*
X5969000Y4191000D02*
D03*
X5207000D02*
D03*
X3450001Y3792002D02*
D03*
D25*
X6943999Y4068999D02*
D03*
%TF.MD5,0f3231a617d0ac4df63832e47fccd0ba*%
M02*
