G04 Layer_Color=16711935*
%FSLAX45Y45*%
%MOMM*%
%TF.FileFunction,Soldermask,Bot*%
%TF.Part,Single*%
G01*
G75*
%TA.AperFunction,ComponentPad*%
%ADD31R,1.70320X1.70320*%
%ADD32C,1.70320*%
%TA.AperFunction,ViaPad*%
%ADD33C,6.20320*%
%TA.AperFunction,ComponentPad*%
%ADD34C,1.20320*%
%ADD35R,1.20320X1.20320*%
%ADD36C,1.60320*%
%ADD37R,1.60320X1.60320*%
%ADD38O,1.31120X2.41920*%
%ADD39O,1.72720X3.25120*%
%ADD40C,1.40320*%
%ADD41R,1.40320X1.40320*%
%ADD42R,1.70320X1.70320*%
D31*
X2487000Y6773001D02*
D03*
X3278998Y5725003D02*
D03*
X7112000Y6096000D02*
D03*
X3937000Y4445000D02*
D03*
X2143999Y4431000D02*
D03*
X6604000Y6096000D02*
D03*
D32*
X2487000Y7027001D02*
D03*
X2741000Y6773001D02*
D03*
Y7027001D02*
D03*
X2995000Y6773001D02*
D03*
Y7027001D02*
D03*
X3249000Y6773001D02*
D03*
Y7027001D02*
D03*
X3503000Y6773001D02*
D03*
Y7027001D02*
D03*
X3757000Y6773001D02*
D03*
Y7027001D02*
D03*
X4011000Y6773001D02*
D03*
Y7027001D02*
D03*
X4265000Y6773001D02*
D03*
Y7027001D02*
D03*
X4519000Y6773001D02*
D03*
Y7027001D02*
D03*
X4773000Y6773001D02*
D03*
Y7027001D02*
D03*
X5027000Y6773001D02*
D03*
Y7027001D02*
D03*
X5281000Y6773001D02*
D03*
Y7027001D02*
D03*
X5535000Y6773001D02*
D03*
Y7027001D02*
D03*
X5789000Y6773001D02*
D03*
Y7027001D02*
D03*
X6043000Y6773001D02*
D03*
Y7027001D02*
D03*
X6297000Y6773001D02*
D03*
Y7027001D02*
D03*
X7313000D02*
D03*
Y6773001D02*
D03*
X7059000Y7027001D02*
D03*
Y6773001D02*
D03*
X6805000Y7027001D02*
D03*
Y6773001D02*
D03*
X6551000Y7027001D02*
D03*
Y6773001D02*
D03*
X2770998Y5725003D02*
D03*
X3024998D02*
D03*
X7620000Y6096000D02*
D03*
X7366000D02*
D03*
X4699000Y3683000D02*
D03*
Y3937000D02*
D03*
Y4191000D02*
D03*
Y4445000D02*
D03*
X3937000Y3683000D02*
D03*
Y3937000D02*
D03*
Y4191000D02*
D03*
X7705999Y4830999D02*
D03*
X7451999D02*
D03*
X7197999D02*
D03*
X6943999D02*
D03*
X7705999Y4068999D02*
D03*
X7451999D02*
D03*
X7197999D02*
D03*
X2905999Y3669000D02*
D03*
Y3923000D02*
D03*
Y4177000D02*
D03*
Y4431000D02*
D03*
X2143999Y3669000D02*
D03*
Y3923000D02*
D03*
Y4177000D02*
D03*
X6096000Y6096000D02*
D03*
X6350000D02*
D03*
D33*
X7800000Y2000001D02*
D03*
Y6900001D02*
D03*
X2000001Y2000001D02*
D03*
Y6900001D02*
D03*
D34*
X2149998Y5799999D02*
D03*
D35*
Y5672999D02*
D03*
D36*
X5564002Y6131001D02*
D03*
X3786002D02*
D03*
X4040002D02*
D03*
X4294002D02*
D03*
X4548002D02*
D03*
X4802002D02*
D03*
X5056002D02*
D03*
X5310002D02*
D03*
X5564002Y5369001D02*
D03*
X5310002D02*
D03*
X5056002D02*
D03*
X4802002D02*
D03*
X4548002D02*
D03*
X4294002D02*
D03*
X4040002D02*
D03*
D37*
X3786002D02*
D03*
D38*
X3119999Y2750002D02*
D03*
X3980002Y2315002D02*
D03*
D39*
X5779999Y3225002D02*
D03*
X6033999D02*
D03*
X6287999D02*
D03*
X6541999D02*
D03*
X6795999D02*
D03*
X7049999D02*
D03*
X6513002Y5475000D02*
D03*
X6767002D02*
D03*
X7021002D02*
D03*
X7275002D02*
D03*
X7529002D02*
D03*
X7783002D02*
D03*
X5083998Y2200001D02*
D03*
X5337998D02*
D03*
X5591998D02*
D03*
X5845998D02*
D03*
X6099998D02*
D03*
X6353998D02*
D03*
D40*
X5969000Y4699000D02*
D03*
Y4445000D02*
D03*
X5207000Y4699000D02*
D03*
Y4445000D02*
D03*
X3450001Y4300002D02*
D03*
Y4046002D02*
D03*
D41*
X5969000Y4191000D02*
D03*
X5207000D02*
D03*
X3450001Y3792002D02*
D03*
D42*
X6943999Y4068999D02*
D03*
%TF.MD5,9e5e59db9ce51e87c4b269f15fed1b8f*%
M02*
