G04 Layer_Physical_Order=2*
G04 Layer_Color=16711680*
%FSLAX45Y45*%
%MOMM*%
%TF.FileFunction,Copper,L2,Bot,Signal*%
%TF.Part,Single*%
G01*
G75*
%TA.AperFunction,Conductor*%
%ADD13C,0.25400*%
%TA.AperFunction,ComponentPad*%
%ADD14R,1.50000X1.50000*%
%ADD15C,1.50000*%
%TA.AperFunction,ViaPad*%
%ADD16C,6.00000*%
%TA.AperFunction,ComponentPad*%
%ADD17C,1.00000*%
%ADD18R,1.00000X1.00000*%
%ADD19C,1.40000*%
%ADD20R,1.40000X1.40000*%
%ADD21O,1.10800X2.21600*%
%ADD22O,1.52400X3.04800*%
%ADD23C,1.20000*%
%ADD24R,1.20000X1.20000*%
%ADD25R,1.50000X1.50000*%
G36*
X7543284Y7100466D02*
X7535932Y7091858D01*
X7509170Y7048187D01*
X7489569Y7000866D01*
X7477612Y6951063D01*
X7473594Y6900001D01*
X7477612Y6848940D01*
X7489569Y6799137D01*
X7509170Y6751816D01*
X7535932Y6708145D01*
X7569196Y6669197D01*
X7608143Y6635933D01*
X7651815Y6609171D01*
X7699135Y6589571D01*
X7748939Y6577614D01*
X7800000Y6573595D01*
X7851061Y6577614D01*
X7900865Y6589571D01*
X7948185Y6609171D01*
X7988300Y6633754D01*
X8001000Y6628557D01*
Y2271446D01*
X7988300Y2266248D01*
X7948185Y2290831D01*
X7900865Y2310432D01*
X7851061Y2322389D01*
X7800000Y2326407D01*
X7748939Y2322389D01*
X7699135Y2310432D01*
X7651815Y2290831D01*
X7608143Y2264069D01*
X7569196Y2230805D01*
X7535932Y2191858D01*
X7509170Y2148186D01*
X7489569Y2100866D01*
X7477612Y2051062D01*
X7473594Y2000001D01*
X7477612Y1948940D01*
X7489569Y1899136D01*
X7509170Y1851816D01*
X7535932Y1808144D01*
X7551827Y1789534D01*
X7546510Y1778000D01*
X2253491D01*
X2248174Y1789534D01*
X2264069Y1808144D01*
X2290831Y1851816D01*
X2310432Y1899136D01*
X2322389Y1948940D01*
X2326407Y2000001D01*
X2322389Y2051062D01*
X2310432Y2100866D01*
X2290831Y2148186D01*
X2264069Y2191858D01*
X2230805Y2230805D01*
X2191858Y2264069D01*
X2148186Y2290831D01*
X2100866Y2310432D01*
X2051062Y2322389D01*
X2000001Y2326407D01*
X1948940Y2322389D01*
X1899136Y2310432D01*
X1851816Y2290831D01*
X1808144Y2264069D01*
X1789534Y2248174D01*
X1778000Y2253491D01*
Y6646511D01*
X1789534Y6651829D01*
X1808144Y6635933D01*
X1851816Y6609171D01*
X1899136Y6589571D01*
X1948940Y6577614D01*
X2000001Y6573595D01*
X2051062Y6577614D01*
X2100866Y6589571D01*
X2148186Y6609171D01*
X2191858Y6635933D01*
X2230805Y6669197D01*
X2264069Y6708145D01*
X2290831Y6751816D01*
X2310432Y6799137D01*
X2322389Y6848940D01*
X2326407Y6900001D01*
X2322389Y6951063D01*
X2310432Y7000866D01*
X2290831Y7048187D01*
X2264069Y7091858D01*
X2256717Y7100466D01*
X2262034Y7112000D01*
X2413092D01*
X2417175Y7099974D01*
X2415394Y7098608D01*
X2399301Y7077635D01*
X2389185Y7053211D01*
X2385734Y7027001D01*
X2389185Y7000792D01*
X2399301Y6976368D01*
X2415394Y6955395D01*
X2436367Y6939302D01*
X2460791Y6929186D01*
X2487000Y6925735D01*
X2513210Y6929186D01*
X2537633Y6939302D01*
X2558607Y6955395D01*
X2574699Y6976368D01*
X2579582Y6988155D01*
X2648419D01*
X2653301Y6976368D01*
X2669394Y6955395D01*
X2690367Y6939302D01*
X2714791Y6929186D01*
X2741000Y6925735D01*
X2767210Y6929186D01*
X2791633Y6939302D01*
X2812607Y6955395D01*
X2828699Y6976368D01*
X2838816Y7000792D01*
X2842267Y7027001D01*
X2838816Y7053211D01*
X2828699Y7077635D01*
X2812607Y7098608D01*
X2810826Y7099974D01*
X2814908Y7112000D01*
X2921092D01*
X2925175Y7099974D01*
X2923394Y7098608D01*
X2907301Y7077635D01*
X2897185Y7053211D01*
X2895406Y7039701D01*
X3094595D01*
X3092816Y7053211D01*
X3082699Y7077635D01*
X3066607Y7098608D01*
X3064826Y7099974D01*
X3068908Y7112000D01*
X3175092D01*
X3179175Y7099974D01*
X3177394Y7098608D01*
X3161301Y7077635D01*
X3151185Y7053211D01*
X3147734Y7027001D01*
X3151185Y7000792D01*
X3161301Y6976368D01*
X3177394Y6955395D01*
X3198367Y6939302D01*
X3222791Y6929186D01*
X3249000Y6925735D01*
X3275210Y6929186D01*
X3299633Y6939302D01*
X3320607Y6955395D01*
X3336699Y6976368D01*
X3346816Y7000792D01*
X3350267Y7027001D01*
X3346816Y7053211D01*
X3336699Y7077635D01*
X3320607Y7098608D01*
X3318826Y7099974D01*
X3322908Y7112000D01*
X3429092D01*
X3433175Y7099974D01*
X3431394Y7098608D01*
X3415301Y7077635D01*
X3405185Y7053211D01*
X3401734Y7027001D01*
X3405185Y7000792D01*
X3415301Y6976368D01*
X3431394Y6955395D01*
X3452367Y6939302D01*
X3476791Y6929186D01*
X3503000Y6925735D01*
X3529210Y6929186D01*
X3553633Y6939302D01*
X3574607Y6955395D01*
X3590699Y6976368D01*
X3600816Y7000792D01*
X3604267Y7027001D01*
X3600816Y7053211D01*
X3590699Y7077635D01*
X3574607Y7098608D01*
X3572826Y7099974D01*
X3576908Y7112000D01*
X3683092D01*
X3687175Y7099974D01*
X3685394Y7098608D01*
X3669301Y7077635D01*
X3659185Y7053211D01*
X3655734Y7027001D01*
X3659185Y7000792D01*
X3669301Y6976368D01*
X3685394Y6955395D01*
X3706367Y6939302D01*
X3730791Y6929186D01*
X3757000Y6925735D01*
X3783210Y6929186D01*
X3807633Y6939302D01*
X3828607Y6955395D01*
X3844699Y6976368D01*
X3854816Y7000792D01*
X3858267Y7027001D01*
X3854816Y7053211D01*
X3844699Y7077635D01*
X3828607Y7098608D01*
X3826826Y7099974D01*
X3830908Y7112000D01*
X3937092D01*
X3941175Y7099974D01*
X3939394Y7098608D01*
X3923301Y7077635D01*
X3913185Y7053211D01*
X3911406Y7039701D01*
X4110595D01*
X4108816Y7053211D01*
X4098699Y7077635D01*
X4082607Y7098608D01*
X4080826Y7099974D01*
X4084908Y7112000D01*
X4191092D01*
X4195175Y7099974D01*
X4193394Y7098608D01*
X4177301Y7077635D01*
X4167185Y7053211D01*
X4163734Y7027001D01*
X4167185Y7000792D01*
X4177301Y6976368D01*
X4193394Y6955395D01*
X4214367Y6939302D01*
X4238791Y6929186D01*
X4265000Y6925735D01*
X4291210Y6929186D01*
X4315633Y6939302D01*
X4336607Y6955395D01*
X4352699Y6976368D01*
X4362816Y7000792D01*
X4366267Y7027001D01*
X4362816Y7053211D01*
X4352699Y7077635D01*
X4336607Y7098608D01*
X4334826Y7099974D01*
X4338908Y7112000D01*
X4445092D01*
X4449175Y7099974D01*
X4447394Y7098608D01*
X4431301Y7077635D01*
X4421185Y7053211D01*
X4417734Y7027001D01*
X4421185Y7000792D01*
X4431301Y6976368D01*
X4447394Y6955395D01*
X4468367Y6939302D01*
X4492791Y6929186D01*
X4519000Y6925735D01*
X4545210Y6929186D01*
X4569633Y6939302D01*
X4590607Y6955395D01*
X4606699Y6976368D01*
X4616816Y7000792D01*
X4620267Y7027001D01*
X4616816Y7053211D01*
X4606699Y7077635D01*
X4590607Y7098608D01*
X4588826Y7099974D01*
X4592908Y7112000D01*
X4699092D01*
X4703175Y7099974D01*
X4701394Y7098608D01*
X4685301Y7077635D01*
X4675185Y7053211D01*
X4673406Y7039701D01*
X4872595D01*
X4870816Y7053211D01*
X4860699Y7077635D01*
X4844607Y7098608D01*
X4842826Y7099974D01*
X4846908Y7112000D01*
X4953092D01*
X4957175Y7099974D01*
X4955394Y7098608D01*
X4939301Y7077635D01*
X4929185Y7053211D01*
X4925734Y7027001D01*
X4929185Y7000792D01*
X4939301Y6976368D01*
X4955394Y6955395D01*
X4976367Y6939302D01*
X5000791Y6929186D01*
X5027000Y6925735D01*
X5053210Y6929186D01*
X5077633Y6939302D01*
X5098607Y6955395D01*
X5114699Y6976368D01*
X5124816Y7000792D01*
X5128267Y7027001D01*
X5124816Y7053211D01*
X5114699Y7077635D01*
X5098607Y7098608D01*
X5096826Y7099974D01*
X5100908Y7112000D01*
X5207092D01*
X5211175Y7099974D01*
X5209394Y7098608D01*
X5193301Y7077635D01*
X5183185Y7053211D01*
X5179734Y7027001D01*
X5183185Y7000792D01*
X5193301Y6976368D01*
X5209394Y6955395D01*
X5230367Y6939302D01*
X5254791Y6929186D01*
X5281000Y6925735D01*
X5307210Y6929186D01*
X5331633Y6939302D01*
X5352607Y6955395D01*
X5368699Y6976368D01*
X5378816Y7000792D01*
X5382267Y7027001D01*
X5378816Y7053211D01*
X5368699Y7077635D01*
X5352607Y7098608D01*
X5350826Y7099974D01*
X5354908Y7112000D01*
X5461092D01*
X5465175Y7099974D01*
X5463394Y7098608D01*
X5447301Y7077635D01*
X5437185Y7053211D01*
X5433734Y7027001D01*
X5437185Y7000792D01*
X5447301Y6976368D01*
X5463394Y6955395D01*
X5484367Y6939302D01*
X5508791Y6929186D01*
X5535000Y6925735D01*
X5561210Y6929186D01*
X5585633Y6939302D01*
X5606607Y6955395D01*
X5622699Y6976368D01*
X5632816Y7000792D01*
X5636267Y7027001D01*
X5632816Y7053211D01*
X5622699Y7077635D01*
X5606607Y7098608D01*
X5604826Y7099974D01*
X5608908Y7112000D01*
X5715092D01*
X5719175Y7099974D01*
X5717394Y7098608D01*
X5701301Y7077635D01*
X5691185Y7053211D01*
X5687734Y7027001D01*
X5691185Y7000792D01*
X5701301Y6976368D01*
X5717394Y6955395D01*
X5738367Y6939302D01*
X5762791Y6929186D01*
X5789000Y6925735D01*
X5815210Y6929186D01*
X5839633Y6939302D01*
X5860607Y6955395D01*
X5876699Y6976368D01*
X5886816Y7000792D01*
X5890267Y7027001D01*
X5886816Y7053211D01*
X5876699Y7077635D01*
X5860607Y7098608D01*
X5858826Y7099974D01*
X5862908Y7112000D01*
X5969092D01*
X5973175Y7099974D01*
X5971394Y7098608D01*
X5955301Y7077635D01*
X5945185Y7053211D01*
X5943406Y7039701D01*
X6142595D01*
X6140816Y7053211D01*
X6130699Y7077635D01*
X6114607Y7098608D01*
X6112826Y7099974D01*
X6116908Y7112000D01*
X6223092D01*
X6227175Y7099974D01*
X6225394Y7098608D01*
X6209301Y7077635D01*
X6199185Y7053211D01*
X6195734Y7027001D01*
X6199185Y7000792D01*
X6209301Y6976368D01*
X6225394Y6955395D01*
X6246367Y6939302D01*
X6270791Y6929186D01*
X6297000Y6925735D01*
X6323210Y6929186D01*
X6347633Y6939302D01*
X6368607Y6955395D01*
X6384699Y6976368D01*
X6394816Y7000792D01*
X6398267Y7027001D01*
X6394816Y7053211D01*
X6384699Y7077635D01*
X6368607Y7098608D01*
X6366826Y7099974D01*
X6370908Y7112000D01*
X6477092D01*
X6481175Y7099974D01*
X6479394Y7098608D01*
X6463301Y7077635D01*
X6453185Y7053211D01*
X6451406Y7039701D01*
X6650595D01*
X6648816Y7053211D01*
X6638699Y7077635D01*
X6622607Y7098608D01*
X6620826Y7099974D01*
X6624908Y7112000D01*
X6731092D01*
X6735175Y7099974D01*
X6733394Y7098608D01*
X6717301Y7077635D01*
X6707185Y7053211D01*
X6703734Y7027001D01*
X6707185Y7000792D01*
X6717301Y6976368D01*
X6733394Y6955395D01*
X6754367Y6939302D01*
X6778791Y6929186D01*
X6805000Y6925735D01*
X6831210Y6929186D01*
X6855633Y6939302D01*
X6876607Y6955395D01*
X6892699Y6976368D01*
X6902816Y7000792D01*
X6906267Y7027001D01*
X6902816Y7053211D01*
X6892699Y7077635D01*
X6876607Y7098608D01*
X6874826Y7099974D01*
X6878908Y7112000D01*
X6985092D01*
X6989175Y7099974D01*
X6987394Y7098608D01*
X6971301Y7077635D01*
X6961185Y7053211D01*
X6957734Y7027001D01*
X6961185Y7000792D01*
X6971301Y6976368D01*
X6987394Y6955395D01*
X7008367Y6939302D01*
X7032791Y6929186D01*
X7059000Y6925735D01*
X7085210Y6929186D01*
X7109633Y6939302D01*
X7130607Y6955395D01*
X7146699Y6976368D01*
X7156816Y7000792D01*
X7160267Y7027001D01*
X7156816Y7053211D01*
X7146699Y7077635D01*
X7130607Y7098608D01*
X7128826Y7099974D01*
X7132908Y7112000D01*
X7239092D01*
X7243175Y7099974D01*
X7241394Y7098608D01*
X7225301Y7077635D01*
X7215185Y7053211D01*
X7211734Y7027001D01*
X7215185Y7000792D01*
X7225301Y6976368D01*
X7241394Y6955395D01*
X7262367Y6939302D01*
X7286791Y6929186D01*
X7313000Y6925735D01*
X7339210Y6929186D01*
X7363633Y6939302D01*
X7384607Y6955395D01*
X7400699Y6976368D01*
X7410816Y7000792D01*
X7414267Y7027001D01*
X7410816Y7053211D01*
X7400699Y7077635D01*
X7384607Y7098608D01*
X7382826Y7099974D01*
X7386908Y7112000D01*
X7537967D01*
X7543284Y7100466D01*
D02*
G37*
%LPC*%
G36*
X4294002Y5465224D02*
X4269098Y5461946D01*
X4245890Y5452333D01*
X4225962Y5437041D01*
X4210671Y5417113D01*
X4201058Y5393906D01*
X4197779Y5369001D01*
X4201058Y5344097D01*
X4210671Y5320890D01*
X4225962Y5300961D01*
X4245890Y5285670D01*
X4269098Y5276057D01*
X4294002Y5272778D01*
X4318907Y5276057D01*
X4342114Y5285670D01*
X4362042Y5300961D01*
X4377334Y5320890D01*
X4386947Y5344097D01*
X4390225Y5369001D01*
X4386947Y5393906D01*
X4377334Y5417113D01*
X4362042Y5437041D01*
X4342114Y5452333D01*
X4318907Y5461946D01*
X4294002Y5465224D01*
D02*
G37*
G36*
X4040002D02*
X4015098Y5461946D01*
X3991890Y5452333D01*
X3971962Y5437041D01*
X3956671Y5417113D01*
X3947058Y5393906D01*
X3943779Y5369001D01*
X3947058Y5344097D01*
X3956671Y5320890D01*
X3971962Y5300961D01*
X3991890Y5285670D01*
X4015098Y5276057D01*
X4040002Y5272778D01*
X4064907Y5276057D01*
X4088114Y5285670D01*
X4108042Y5300961D01*
X4123334Y5320890D01*
X4132947Y5344097D01*
X4136225Y5369001D01*
X4132947Y5393906D01*
X4123334Y5417113D01*
X4108042Y5437041D01*
X4088114Y5452333D01*
X4064907Y5461946D01*
X4040002Y5465224D01*
D02*
G37*
G36*
X7705999Y4932265D02*
X7679790Y4928814D01*
X7655366Y4918698D01*
X7634393Y4902605D01*
X7618300Y4881632D01*
X7608184Y4857208D01*
X7604733Y4830999D01*
X7608184Y4804789D01*
X7618300Y4780366D01*
X7634393Y4759393D01*
X7655366Y4743300D01*
X7679790Y4733183D01*
X7705999Y4729732D01*
X7732209Y4733183D01*
X7756632Y4743300D01*
X7777605Y4759393D01*
X7793698Y4780366D01*
X7803815Y4804789D01*
X7807266Y4830999D01*
X7803815Y4857208D01*
X7793698Y4881632D01*
X7777605Y4902605D01*
X7756632Y4918698D01*
X7732209Y4928814D01*
X7705999Y4932265D01*
D02*
G37*
G36*
X5056002Y5465224D02*
X5031098Y5461946D01*
X5007890Y5452333D01*
X4987962Y5437041D01*
X4972671Y5417113D01*
X4963058Y5393906D01*
X4959779Y5369001D01*
X4963058Y5344097D01*
X4972671Y5320890D01*
X4987962Y5300961D01*
X5007890Y5285670D01*
X5031098Y5276057D01*
X5056002Y5272778D01*
X5080907Y5276057D01*
X5104114Y5285670D01*
X5124042Y5300961D01*
X5139334Y5320890D01*
X5148947Y5344097D01*
X5152225Y5369001D01*
X5148947Y5393906D01*
X5139334Y5417113D01*
X5124042Y5437041D01*
X5104114Y5452333D01*
X5080907Y5461946D01*
X5056002Y5465224D01*
D02*
G37*
G36*
X5310002D02*
X5285098Y5461946D01*
X5261890Y5452333D01*
X5241962Y5437041D01*
X5226671Y5417113D01*
X5217058Y5393906D01*
X5213779Y5369001D01*
X5217058Y5344097D01*
X5226671Y5320890D01*
X5241962Y5300961D01*
X5261890Y5285670D01*
X5285098Y5276057D01*
X5310002Y5272778D01*
X5334907Y5276057D01*
X5358114Y5285670D01*
X5378042Y5300961D01*
X5393334Y5320890D01*
X5402947Y5344097D01*
X5406225Y5369001D01*
X5402947Y5393906D01*
X5393334Y5417113D01*
X5378042Y5437041D01*
X5358114Y5452333D01*
X5334907Y5461946D01*
X5310002Y5465224D01*
D02*
G37*
G36*
X4548002D02*
X4523098Y5461946D01*
X4499890Y5452333D01*
X4479962Y5437041D01*
X4464671Y5417113D01*
X4455058Y5393906D01*
X4451779Y5369001D01*
X4455058Y5344097D01*
X4464671Y5320890D01*
X4479962Y5300961D01*
X4499890Y5285670D01*
X4523098Y5276057D01*
X4548002Y5272778D01*
X4572907Y5276057D01*
X4596114Y5285670D01*
X4616042Y5300961D01*
X4631334Y5320890D01*
X4640947Y5344097D01*
X4644225Y5369001D01*
X4640947Y5393906D01*
X4631334Y5417113D01*
X4616042Y5437041D01*
X4596114Y5452333D01*
X4572907Y5461946D01*
X4548002Y5465224D01*
D02*
G37*
G36*
X4802002D02*
X4777098Y5461946D01*
X4753890Y5452333D01*
X4733962Y5437041D01*
X4718671Y5417113D01*
X4709058Y5393906D01*
X4705779Y5369001D01*
X4709058Y5344097D01*
X4718671Y5320890D01*
X4733962Y5300961D01*
X4753890Y5285670D01*
X4777098Y5276057D01*
X4802002Y5272778D01*
X4826907Y5276057D01*
X4850114Y5285670D01*
X4870042Y5300961D01*
X4885334Y5320890D01*
X4894947Y5344097D01*
X4898225Y5369001D01*
X4894947Y5393906D01*
X4885334Y5417113D01*
X4870042Y5437041D01*
X4850114Y5452333D01*
X4826907Y5461946D01*
X4802002Y5465224D01*
D02*
G37*
G36*
X7451999Y4932265D02*
X7425790Y4928814D01*
X7401366Y4918698D01*
X7380393Y4902605D01*
X7364300Y4881632D01*
X7354184Y4857208D01*
X7350733Y4830999D01*
X7354184Y4804789D01*
X7364300Y4780366D01*
X7380393Y4759393D01*
X7401366Y4743300D01*
X7425790Y4733183D01*
X7451999Y4729732D01*
X7478209Y4733183D01*
X7502632Y4743300D01*
X7523605Y4759393D01*
X7539698Y4780366D01*
X7549815Y4804789D01*
X7553266Y4830999D01*
X7549815Y4857208D01*
X7539698Y4881632D01*
X7523605Y4902605D01*
X7502632Y4918698D01*
X7478209Y4928814D01*
X7451999Y4932265D01*
D02*
G37*
G36*
X7693299Y4168593D02*
X7679790Y4166814D01*
X7655366Y4156698D01*
X7634393Y4140605D01*
X7618300Y4119632D01*
X7608184Y4095208D01*
X7606405Y4081699D01*
X7693299D01*
Y4168593D01*
D02*
G37*
G36*
X7718699D02*
Y4081699D01*
X7805593D01*
X7803815Y4095208D01*
X7793698Y4119632D01*
X7777605Y4140605D01*
X7756632Y4156698D01*
X7732209Y4166814D01*
X7718699Y4168593D01*
D02*
G37*
G36*
X7805593Y4056299D02*
X7718699D01*
Y3969405D01*
X7732209Y3971183D01*
X7756632Y3981300D01*
X7777605Y3997393D01*
X7793698Y4018366D01*
X7803815Y4042789D01*
X7805593Y4056299D01*
D02*
G37*
G36*
X2143999Y4278266D02*
X2117789Y4274815D01*
X2093366Y4264699D01*
X2072393Y4248606D01*
X2056300Y4227633D01*
X2046183Y4203209D01*
X2042733Y4177000D01*
X2046183Y4150790D01*
X2056300Y4126366D01*
X2072393Y4105393D01*
X2093366Y4089300D01*
X2117789Y4079184D01*
X2143999Y4075733D01*
X2170209Y4079184D01*
X2194632Y4089300D01*
X2215605Y4105393D01*
X2231698Y4126366D01*
X2241814Y4150790D01*
X2245265Y4177000D01*
X2241814Y4203209D01*
X2231698Y4227633D01*
X2215605Y4248606D01*
X2194632Y4264699D01*
X2170209Y4274815D01*
X2143999Y4278266D01*
D02*
G37*
G36*
X5969000Y4531137D02*
X5946706Y4528202D01*
X5925932Y4519596D01*
X5908092Y4505908D01*
X5894404Y4488068D01*
X5885798Y4467294D01*
X5882863Y4445000D01*
X5885798Y4422706D01*
X5894404Y4401932D01*
X5908092Y4384092D01*
X5925932Y4370404D01*
X5946706Y4361798D01*
X5969000Y4358863D01*
X5991294Y4361798D01*
X6012068Y4370404D01*
X6029908Y4384092D01*
X6043596Y4401932D01*
X6052202Y4422706D01*
X6055137Y4445000D01*
X6052202Y4467294D01*
X6043596Y4488068D01*
X6029908Y4505908D01*
X6012068Y4519596D01*
X5991294Y4528202D01*
X5969000Y4531137D01*
D02*
G37*
G36*
X7197999Y4932265D02*
X7171790Y4928814D01*
X7147366Y4918698D01*
X7126393Y4902605D01*
X7110300Y4881632D01*
X7100184Y4857208D01*
X7096733Y4830999D01*
X7100184Y4804789D01*
X7110300Y4780366D01*
X7126393Y4759393D01*
X7147366Y4743300D01*
X7171790Y4733183D01*
X7197999Y4729732D01*
X7224209Y4733183D01*
X7248632Y4743300D01*
X7269605Y4759393D01*
X7285698Y4780366D01*
X7295815Y4804789D01*
X7299266Y4830999D01*
X7295815Y4857208D01*
X7285698Y4881632D01*
X7269605Y4902605D01*
X7248632Y4918698D01*
X7224209Y4928814D01*
X7197999Y4932265D01*
D02*
G37*
G36*
X5969000Y4785137D02*
X5946706Y4782202D01*
X5925932Y4773596D01*
X5908092Y4759908D01*
X5894404Y4742068D01*
X5885798Y4721294D01*
X5882863Y4699000D01*
X5885798Y4676706D01*
X5894404Y4655932D01*
X5908092Y4638092D01*
X5925932Y4624404D01*
X5946706Y4615798D01*
X5969000Y4612863D01*
X5991294Y4615798D01*
X6012068Y4624404D01*
X6029908Y4638092D01*
X6043596Y4655932D01*
X6045345Y4660153D01*
X6551907D01*
X7030929Y4181132D01*
X7026069Y4169399D01*
X6898537D01*
X6849467Y4218469D01*
X6836864Y4226889D01*
X6821998Y4229847D01*
X6054400D01*
Y4276400D01*
X5883600D01*
Y4105600D01*
X6054400D01*
Y4152153D01*
X6805907D01*
X6843599Y4114461D01*
Y3968599D01*
X7044399D01*
Y4151068D01*
X7056132Y4155928D01*
X7105066Y4106995D01*
X7100184Y4095208D01*
X7096733Y4068999D01*
X7100184Y4042789D01*
X7110300Y4018366D01*
X7126393Y3997393D01*
X7147366Y3981300D01*
X7171790Y3971183D01*
X7197999Y3967732D01*
X7224209Y3971183D01*
X7248632Y3981300D01*
X7269605Y3997393D01*
X7285698Y4018366D01*
X7295815Y4042789D01*
X7299266Y4068999D01*
X7295815Y4095208D01*
X7285698Y4119632D01*
X7269605Y4140605D01*
X7248632Y4156698D01*
X7224209Y4166814D01*
X7197999Y4170265D01*
X7171790Y4166814D01*
X7160003Y4161932D01*
X6595467Y4726469D01*
X6582864Y4734889D01*
X6567998Y4737847D01*
X6045345D01*
X6043596Y4742068D01*
X6029908Y4759908D01*
X6012068Y4773596D01*
X5991294Y4782202D01*
X5969000Y4785137D01*
D02*
G37*
G36*
X2244399Y4531399D02*
X2043599D01*
Y4330600D01*
X2244399D01*
Y4531399D01*
D02*
G37*
G36*
X2758298Y5712303D02*
X2671404D01*
X2673182Y5698793D01*
X2683299Y5674369D01*
X2699392Y5653396D01*
X2720365Y5637303D01*
X2744788Y5627187D01*
X2758298Y5625408D01*
Y5712303D01*
D02*
G37*
G36*
X2870592D02*
X2783698D01*
Y5625408D01*
X2797208Y5627187D01*
X2821631Y5637303D01*
X2842604Y5653396D01*
X2858697Y5674369D01*
X2868813Y5698793D01*
X2870592Y5712303D01*
D02*
G37*
G36*
X3379398Y5825402D02*
X3178598D01*
Y5679540D01*
X3085265Y5586207D01*
X2276691D01*
X2225398Y5637499D01*
Y5748398D01*
X2219801D01*
X2214184Y5759789D01*
X2215860Y5761973D01*
X2223458Y5780315D01*
X2224377Y5787299D01*
X2149998D01*
X2075619D01*
X2076539Y5780315D01*
X2084137Y5761973D01*
X2085813Y5759789D01*
X2080195Y5748398D01*
X2074598D01*
Y5597599D01*
X2155424D01*
X2233131Y5519891D01*
X2245734Y5511471D01*
X2260600Y5508513D01*
X3101355D01*
X3116221Y5511471D01*
X3128824Y5519891D01*
X3233535Y5624603D01*
X3379398D01*
Y5825402D01*
D02*
G37*
G36*
X3024998Y5826269D02*
X2998788Y5822818D01*
X2974365Y5812702D01*
X2953392Y5796609D01*
X2937299Y5775636D01*
X2927182Y5751212D01*
X2923732Y5725003D01*
X2927182Y5698793D01*
X2937299Y5674369D01*
X2953392Y5653396D01*
X2974365Y5637303D01*
X2998788Y5627187D01*
X3024998Y5623736D01*
X3051208Y5627187D01*
X3075631Y5637303D01*
X3096604Y5653396D01*
X3112697Y5674369D01*
X3122813Y5698793D01*
X3126264Y5725003D01*
X3122813Y5751212D01*
X3112697Y5775636D01*
X3096604Y5796609D01*
X3075631Y5812702D01*
X3051208Y5822818D01*
X3024998Y5826269D01*
D02*
G37*
G36*
X2137298Y5874377D02*
X2130315Y5873458D01*
X2111973Y5865860D01*
X2096222Y5853774D01*
X2084137Y5838024D01*
X2076539Y5819682D01*
X2075619Y5812699D01*
X2137298D01*
Y5874377D01*
D02*
G37*
G36*
X2162698D02*
Y5812699D01*
X2224377D01*
X2223458Y5819682D01*
X2215860Y5838024D01*
X2203774Y5853774D01*
X2188024Y5865860D01*
X2169682Y5873458D01*
X2162698Y5874377D01*
D02*
G37*
G36*
X2758298Y5824597D02*
X2744788Y5822818D01*
X2720365Y5812702D01*
X2699392Y5796609D01*
X2683299Y5775636D01*
X2673182Y5751212D01*
X2671404Y5737703D01*
X2758298D01*
Y5824597D01*
D02*
G37*
G36*
X2783698D02*
Y5737703D01*
X2870592D01*
X2868813Y5751212D01*
X2858697Y5775636D01*
X2842604Y5796609D01*
X2821631Y5812702D01*
X2797208Y5822818D01*
X2783698Y5824597D01*
D02*
G37*
G36*
X7529002Y5653677D02*
X7502479Y5650186D01*
X7477764Y5639948D01*
X7456540Y5623663D01*
X7440254Y5602439D01*
X7430017Y5577723D01*
X7426525Y5551200D01*
Y5398800D01*
X7430017Y5372278D01*
X7430112Y5372048D01*
X6981996Y4923932D01*
X6970209Y4928814D01*
X6943999Y4932265D01*
X6917790Y4928814D01*
X6893366Y4918698D01*
X6872393Y4902605D01*
X6856300Y4881632D01*
X6854608Y4877547D01*
X5727700D01*
X5712834Y4874589D01*
X5700231Y4866169D01*
X5439829Y4605767D01*
X5238262D01*
X5235736Y4618467D01*
X5250068Y4624404D01*
X5267908Y4638092D01*
X5281596Y4655932D01*
X5290202Y4676706D01*
X5293137Y4699000D01*
X5290202Y4721294D01*
X5281596Y4742068D01*
X5267908Y4759908D01*
X5250068Y4773596D01*
X5229294Y4782202D01*
X5207000Y4785137D01*
X5184706Y4782202D01*
X5180484Y4780453D01*
X5153189Y4807749D01*
X5140586Y4816169D01*
X5125720Y4819127D01*
X2857500D01*
X2842634Y4816169D01*
X2830031Y4807749D01*
X2746211Y4723929D01*
X2737791Y4711326D01*
X2734833Y4696460D01*
Y4386580D01*
X2737791Y4371714D01*
X2746211Y4359111D01*
X2830031Y4275291D01*
X2839801Y4268764D01*
X2841930Y4258270D01*
X2841591Y4254129D01*
X2834393Y4248606D01*
X2818300Y4227633D01*
X2808183Y4203209D01*
X2804733Y4177000D01*
X2808183Y4150790D01*
X2813065Y4139003D01*
X2743671Y4069609D01*
X2735251Y4057007D01*
X2732293Y4042141D01*
Y3878362D01*
X2735251Y3863496D01*
X2743671Y3850893D01*
X2830031Y3764533D01*
X2837879Y3759289D01*
X2839756Y3744721D01*
X2834393Y3740606D01*
X2818300Y3719633D01*
X2808183Y3695209D01*
X2804733Y3669000D01*
X2808183Y3642790D01*
X2818300Y3618366D01*
X2834393Y3597393D01*
X2855366Y3581300D01*
X2879789Y3571184D01*
X2905999Y3567733D01*
X2932209Y3571184D01*
X2956632Y3581300D01*
X2977605Y3597393D01*
X2993698Y3618366D01*
X3003814Y3642790D01*
X3007265Y3669000D01*
X3003814Y3695209D01*
X2993698Y3719633D01*
X2977720Y3740455D01*
X2978335Y3745290D01*
X2981005Y3753155D01*
X3364601D01*
Y3706602D01*
X3535401D01*
Y3877401D01*
X3364601D01*
Y3830848D01*
X2971692D01*
X2967381Y3843548D01*
X2977605Y3851393D01*
X2993698Y3872366D01*
X3003814Y3896790D01*
X3007265Y3923000D01*
X3003814Y3949209D01*
X2998932Y3960996D01*
X3118970Y4081033D01*
X3269879D01*
X3284745Y4083991D01*
X3297348Y4092411D01*
X3423485Y4218549D01*
X3427707Y4216800D01*
X3450001Y4213865D01*
X3472295Y4216800D01*
X3493069Y4225405D01*
X3510909Y4239094D01*
X3524597Y4256933D01*
X3533202Y4277708D01*
X3536137Y4300002D01*
X3533202Y4322295D01*
X3524597Y4343070D01*
X3510909Y4360909D01*
X3493069Y4374598D01*
X3472295Y4383203D01*
X3450001Y4386138D01*
X3427707Y4383203D01*
X3406932Y4374598D01*
X3389093Y4360909D01*
X3375404Y4343070D01*
X3366799Y4322295D01*
X3363864Y4300002D01*
X3366799Y4277708D01*
X3368548Y4273486D01*
X3253789Y4158727D01*
X3102879D01*
X3088013Y4155769D01*
X3075411Y4147349D01*
X2943995Y4015933D01*
X2932209Y4020815D01*
X2905999Y4024266D01*
X2879789Y4020815D01*
X2855366Y4010699D01*
X2834393Y3994606D01*
X2822687Y3979350D01*
X2809987Y3983661D01*
Y4026050D01*
X2868003Y4084066D01*
X2879789Y4079184D01*
X2905999Y4075733D01*
X2932209Y4079184D01*
X2956632Y4089300D01*
X2977605Y4105393D01*
X2993698Y4126366D01*
X3003814Y4150790D01*
X3007265Y4177000D01*
X3003814Y4203209D01*
X2993698Y4227633D01*
X2977605Y4248606D01*
X2973328Y4251887D01*
X2977410Y4263913D01*
X3169920D01*
X3184786Y4266871D01*
X3197389Y4275291D01*
X3340951Y4418853D01*
X3654209D01*
X3844066Y4228996D01*
X3839184Y4217210D01*
X3835734Y4191000D01*
X3839184Y4164790D01*
X3849301Y4140367D01*
X3865394Y4119394D01*
X3886367Y4103301D01*
X3910790Y4093184D01*
X3937000Y4089734D01*
X3963210Y4093184D01*
X3987633Y4103301D01*
X4008606Y4119394D01*
X4024699Y4140367D01*
X4034816Y4164790D01*
X4038266Y4191000D01*
X4034816Y4217210D01*
X4024699Y4241633D01*
X4008606Y4262606D01*
X3987633Y4278699D01*
X3963210Y4288816D01*
X3937000Y4292266D01*
X3910790Y4288816D01*
X3899004Y4283934D01*
X3850070Y4332867D01*
X3854931Y4344600D01*
X4037400D01*
Y4406153D01*
X4416209D01*
X4531831Y4290531D01*
X4544434Y4282111D01*
X4559300Y4279153D01*
X4628097D01*
X4632408Y4266453D01*
X4627394Y4262606D01*
X4611301Y4241633D01*
X4601184Y4217210D01*
X4597734Y4191000D01*
X4601184Y4164790D01*
X4611301Y4140367D01*
X4627394Y4119394D01*
X4648367Y4103301D01*
X4672790Y4093184D01*
X4699000Y4089734D01*
X4725210Y4093184D01*
X4749633Y4103301D01*
X4770606Y4119394D01*
X4786699Y4140367D01*
X4796816Y4164790D01*
X4800266Y4191000D01*
X4796816Y4217210D01*
X4786699Y4241633D01*
X4770606Y4262606D01*
X4765592Y4266453D01*
X4769903Y4279153D01*
X5063909D01*
X5121600Y4221463D01*
Y4105600D01*
X5292400D01*
Y4276400D01*
X5176537D01*
X5107469Y4345469D01*
X5094866Y4353889D01*
X5080000Y4356847D01*
X4769903D01*
X4765592Y4369547D01*
X4770606Y4373394D01*
X4786699Y4394367D01*
X4796816Y4418790D01*
X4800266Y4445000D01*
X4796816Y4471210D01*
X4791934Y4482996D01*
X4837011Y4528073D01*
X5154117D01*
X5158428Y4515373D01*
X5146092Y4505908D01*
X5132404Y4488068D01*
X5123798Y4467294D01*
X5120863Y4445000D01*
X5123798Y4422706D01*
X5132404Y4401932D01*
X5146092Y4384092D01*
X5163932Y4370404D01*
X5184706Y4361798D01*
X5207000Y4358863D01*
X5229294Y4361798D01*
X5250068Y4370404D01*
X5267908Y4384092D01*
X5281596Y4401932D01*
X5290202Y4422706D01*
X5293137Y4445000D01*
X5290202Y4467294D01*
X5281596Y4488068D01*
X5267908Y4505908D01*
X5255572Y4515373D01*
X5259883Y4528073D01*
X5455920D01*
X5470786Y4531031D01*
X5483389Y4539451D01*
X5743791Y4799853D01*
X6848228D01*
X6856300Y4780366D01*
X6872393Y4759393D01*
X6893366Y4743300D01*
X6917790Y4733183D01*
X6943999Y4729732D01*
X6970209Y4733183D01*
X6994632Y4743300D01*
X7015605Y4759393D01*
X7031698Y4780366D01*
X7041815Y4804789D01*
X7045266Y4830999D01*
X7041815Y4857208D01*
X7036933Y4868995D01*
X7477924Y5309986D01*
X7502479Y5299815D01*
X7529002Y5296324D01*
X7555525Y5299815D01*
X7580240Y5310053D01*
X7601464Y5326338D01*
X7617750Y5347562D01*
X7627987Y5372278D01*
X7631479Y5398800D01*
Y5551200D01*
X7627987Y5577723D01*
X7617750Y5602439D01*
X7601464Y5623663D01*
X7580240Y5639948D01*
X7555525Y5650186D01*
X7529002Y5653677D01*
D02*
G37*
G36*
X7783002D02*
X7756479Y5650186D01*
X7731764Y5639948D01*
X7710540Y5623663D01*
X7694254Y5602439D01*
X7684017Y5577723D01*
X7680525Y5551200D01*
Y5398800D01*
X7684017Y5372278D01*
X7694254Y5347562D01*
X7710540Y5326338D01*
X7731764Y5310053D01*
X7756479Y5299815D01*
X7783002Y5296324D01*
X7809525Y5299815D01*
X7834240Y5310053D01*
X7855464Y5326338D01*
X7871750Y5347562D01*
X7881987Y5372278D01*
X7885479Y5398800D01*
Y5551200D01*
X7881987Y5577723D01*
X7871750Y5602439D01*
X7855464Y5623663D01*
X7834240Y5639948D01*
X7809525Y5650186D01*
X7783002Y5653677D01*
D02*
G37*
G36*
X5564002Y5465224D02*
X5539098Y5461946D01*
X5515890Y5452333D01*
X5495962Y5437041D01*
X5480671Y5417113D01*
X5471058Y5393906D01*
X5467779Y5369001D01*
X5471058Y5344097D01*
X5480671Y5320890D01*
X5495962Y5300961D01*
X5515890Y5285670D01*
X5539098Y5276057D01*
X5564002Y5272778D01*
X5588907Y5276057D01*
X5612114Y5285670D01*
X5632042Y5300961D01*
X5647334Y5320890D01*
X5656947Y5344097D01*
X5660225Y5369001D01*
X5656947Y5393906D01*
X5647334Y5417113D01*
X5632042Y5437041D01*
X5612114Y5452333D01*
X5588907Y5461946D01*
X5564002Y5465224D01*
D02*
G37*
G36*
X6893560Y5736067D02*
X4114221D01*
X4099355Y5733109D01*
X4086752Y5724689D01*
X3826465Y5464401D01*
X3690602D01*
Y5273601D01*
X3881402D01*
Y5409464D01*
X4130312Y5658373D01*
X6473060D01*
X6475586Y5645673D01*
X6461764Y5639948D01*
X6440540Y5623663D01*
X6424254Y5602439D01*
X6414017Y5577723D01*
X6410525Y5551200D01*
Y5398800D01*
X6414017Y5372278D01*
X6424254Y5347562D01*
X6440540Y5326338D01*
X6461764Y5310053D01*
X6486479Y5299815D01*
X6513002Y5296324D01*
X6539525Y5299815D01*
X6564240Y5310053D01*
X6585464Y5326338D01*
X6601750Y5347562D01*
X6611987Y5372278D01*
X6615479Y5398800D01*
Y5551200D01*
X6611987Y5577723D01*
X6601750Y5602439D01*
X6585464Y5623663D01*
X6564240Y5639948D01*
X6550418Y5645673D01*
X6552944Y5658373D01*
X6727060D01*
X6729586Y5645673D01*
X6715764Y5639948D01*
X6694540Y5623663D01*
X6678254Y5602439D01*
X6668017Y5577723D01*
X6664525Y5551200D01*
Y5398800D01*
X6668017Y5372278D01*
X6678254Y5347562D01*
X6694540Y5326338D01*
X6715764Y5310053D01*
X6740479Y5299815D01*
X6767002Y5296324D01*
X6793525Y5299815D01*
X6818240Y5310053D01*
X6839464Y5326338D01*
X6855750Y5347562D01*
X6865987Y5372278D01*
X6869479Y5398800D01*
Y5551200D01*
X6865987Y5577723D01*
X6855750Y5602439D01*
X6839464Y5623663D01*
X6818240Y5639948D01*
X6804418Y5645673D01*
X6806944Y5658373D01*
X6877469D01*
X6932753Y5603089D01*
X6932254Y5602439D01*
X6922017Y5577723D01*
X6918525Y5551200D01*
Y5398800D01*
X6922017Y5372278D01*
X6932254Y5347562D01*
X6948540Y5326338D01*
X6969764Y5310053D01*
X6994479Y5299815D01*
X7021002Y5296324D01*
X7047525Y5299815D01*
X7072240Y5310053D01*
X7093464Y5326338D01*
X7109750Y5347562D01*
X7119987Y5372278D01*
X7123479Y5398800D01*
Y5551200D01*
X7119987Y5577723D01*
X7109750Y5602439D01*
X7093464Y5623663D01*
X7072240Y5639948D01*
X7047525Y5650186D01*
X7021002Y5653677D01*
X6995409Y5650308D01*
X6921029Y5724689D01*
X6908426Y5733109D01*
X6893560Y5736067D01*
D02*
G37*
G36*
X7262302Y5652005D02*
X7248479Y5650186D01*
X7223764Y5639948D01*
X7202540Y5623663D01*
X7186254Y5602439D01*
X7176017Y5577723D01*
X7172525Y5551200D01*
Y5487700D01*
X7262302D01*
Y5652005D01*
D02*
G37*
G36*
X7287702D02*
Y5487700D01*
X7377479D01*
Y5551200D01*
X7373987Y5577723D01*
X7363750Y5602439D01*
X7347464Y5623663D01*
X7326240Y5639948D01*
X7301525Y5650186D01*
X7287702Y5652005D01*
D02*
G37*
G36*
X7262302Y5462300D02*
X7172525D01*
Y5398800D01*
X7176017Y5372278D01*
X7186254Y5347562D01*
X7202540Y5326338D01*
X7223764Y5310053D01*
X7248479Y5299815D01*
X7262302Y5297995D01*
Y5462300D01*
D02*
G37*
G36*
X7377479D02*
X7287702D01*
Y5297995D01*
X7301525Y5299815D01*
X7326240Y5310053D01*
X7347464Y5326338D01*
X7363750Y5347562D01*
X7373987Y5372278D01*
X7377479Y5398800D01*
Y5462300D01*
D02*
G37*
G36*
X7693299Y4056299D02*
X7606405D01*
X7608184Y4042789D01*
X7618300Y4018366D01*
X7634393Y3997393D01*
X7655366Y3981300D01*
X7679790Y3971183D01*
X7693299Y3969405D01*
Y4056299D01*
D02*
G37*
G36*
X3119999Y2886899D02*
X3098906Y2884122D01*
X3079250Y2875981D01*
X3062372Y2863029D01*
X3049420Y2846151D01*
X3041279Y2826495D01*
X3038502Y2805402D01*
Y2694602D01*
X3041279Y2673509D01*
X3049420Y2653853D01*
X3062372Y2636975D01*
X3079250Y2624023D01*
X3098906Y2615882D01*
X3119999Y2613105D01*
X3141092Y2615882D01*
X3160748Y2624023D01*
X3177626Y2636975D01*
X3190578Y2653853D01*
X3198719Y2673509D01*
X3201496Y2694602D01*
Y2805402D01*
X3198719Y2826495D01*
X3190578Y2846151D01*
X3177626Y2863029D01*
X3160748Y2875981D01*
X3141092Y2884122D01*
X3119999Y2886899D01*
D02*
G37*
G36*
X5779999Y3403679D02*
X5753476Y3400188D01*
X5728760Y3389950D01*
X5707536Y3373665D01*
X5691251Y3352441D01*
X5681014Y3327725D01*
X5677522Y3301202D01*
Y3148802D01*
X5681014Y3122280D01*
X5691251Y3097564D01*
X5707536Y3076340D01*
X5728760Y3060055D01*
X5753476Y3049817D01*
X5779999Y3046326D01*
X5806522Y3049817D01*
X5831237Y3060055D01*
X5852461Y3076340D01*
X5868746Y3097564D01*
X5878984Y3122280D01*
X5882475Y3148802D01*
Y3301202D01*
X5878984Y3327725D01*
X5868746Y3352441D01*
X5852461Y3373665D01*
X5831237Y3389950D01*
X5806522Y3400188D01*
X5779999Y3403679D01*
D02*
G37*
G36*
X5833298Y2377006D02*
X5819475Y2375186D01*
X5794760Y2364948D01*
X5773536Y2348663D01*
X5757250Y2327439D01*
X5747013Y2302724D01*
X5743521Y2276201D01*
Y2212701D01*
X5833298D01*
Y2377006D01*
D02*
G37*
G36*
X5858698D02*
Y2212701D01*
X5948475D01*
Y2276201D01*
X5944983Y2302724D01*
X5934746Y2327439D01*
X5918460Y2348663D01*
X5897236Y2364948D01*
X5872521Y2375186D01*
X5858698Y2377006D01*
D02*
G37*
G36*
X7049999Y3403679D02*
X7023476Y3400188D01*
X6998760Y3389950D01*
X6977536Y3373665D01*
X6961251Y3352441D01*
X6951014Y3327725D01*
X6947522Y3301202D01*
Y3148802D01*
X6951014Y3122280D01*
X6961251Y3097564D01*
X6977536Y3076340D01*
X6998760Y3060055D01*
X7023476Y3049817D01*
X7049999Y3046326D01*
X7076522Y3049817D01*
X7101237Y3060055D01*
X7122461Y3076340D01*
X7138746Y3097564D01*
X7148984Y3122280D01*
X7152475Y3148802D01*
Y3301202D01*
X7148984Y3327725D01*
X7138746Y3352441D01*
X7122461Y3373665D01*
X7101237Y3389950D01*
X7076522Y3400188D01*
X7049999Y3403679D01*
D02*
G37*
G36*
X6529299Y3212302D02*
X6439522D01*
Y3148802D01*
X6443014Y3122280D01*
X6453251Y3097564D01*
X6469536Y3076340D01*
X6490760Y3060055D01*
X6515476Y3049817D01*
X6529299Y3047997D01*
Y3212302D01*
D02*
G37*
G36*
X6033999Y3403679D02*
X6007476Y3400188D01*
X5982760Y3389950D01*
X5961536Y3373665D01*
X5945251Y3352441D01*
X5935014Y3327725D01*
X5931522Y3301202D01*
Y3148802D01*
X5935014Y3122280D01*
X5945251Y3097564D01*
X5961536Y3076340D01*
X5982760Y3060055D01*
X6007476Y3049817D01*
X6033999Y3046326D01*
X6060522Y3049817D01*
X6085237Y3060055D01*
X6106461Y3076340D01*
X6122746Y3097564D01*
X6132984Y3122280D01*
X6136475Y3148802D01*
Y3301202D01*
X6132984Y3327725D01*
X6122746Y3352441D01*
X6106461Y3373665D01*
X6085237Y3389950D01*
X6060522Y3400188D01*
X6033999Y3403679D01*
D02*
G37*
G36*
X6795999D02*
X6769476Y3400188D01*
X6744760Y3389950D01*
X6723536Y3373665D01*
X6707251Y3352441D01*
X6697014Y3327725D01*
X6693522Y3301202D01*
Y3148802D01*
X6697014Y3122280D01*
X6707251Y3097564D01*
X6723536Y3076340D01*
X6744760Y3060055D01*
X6769476Y3049817D01*
X6795999Y3046326D01*
X6822522Y3049817D01*
X6847237Y3060055D01*
X6868461Y3076340D01*
X6884746Y3097564D01*
X6894984Y3122280D01*
X6898475Y3148802D01*
Y3301202D01*
X6894984Y3327725D01*
X6884746Y3352441D01*
X6868461Y3373665D01*
X6847237Y3389950D01*
X6822522Y3400188D01*
X6795999Y3403679D01*
D02*
G37*
G36*
X3937000Y4038266D02*
X3910790Y4034816D01*
X3886367Y4024699D01*
X3865394Y4008606D01*
X3849301Y3987633D01*
X3839184Y3963210D01*
X3835734Y3937000D01*
X3839184Y3910790D01*
X3849301Y3886367D01*
X3865394Y3865394D01*
X3886367Y3849301D01*
X3910790Y3839184D01*
X3937000Y3835734D01*
X3963210Y3839184D01*
X3987633Y3849301D01*
X4008606Y3865394D01*
X4015916Y3874921D01*
X4028589Y3875751D01*
X5533176Y2371165D01*
X5532345Y2358492D01*
X5519536Y2348663D01*
X5503250Y2327439D01*
X5493013Y2302724D01*
X5489521Y2276201D01*
Y2123801D01*
X5493013Y2097278D01*
X5503250Y2072562D01*
X5519536Y2051339D01*
X5540760Y2035053D01*
X5565475Y2024816D01*
X5591998Y2021324D01*
X5618521Y2024816D01*
X5643236Y2035053D01*
X5664460Y2051339D01*
X5680746Y2072562D01*
X5690983Y2097278D01*
X5694475Y2123801D01*
Y2276201D01*
X5690983Y2302724D01*
X5680746Y2327439D01*
X5664460Y2348663D01*
X5643236Y2364948D01*
X5630237Y2370333D01*
X5627887Y2382146D01*
X5619467Y2394749D01*
X4049747Y3964469D01*
X4037144Y3972889D01*
X4030237Y3974263D01*
X4024699Y3987633D01*
X4008606Y4008606D01*
X3987633Y4024699D01*
X3963210Y4034816D01*
X3937000Y4038266D01*
D02*
G37*
G36*
X6099998Y2378677D02*
X6073475Y2375186D01*
X6048760Y2364948D01*
X6027536Y2348663D01*
X6011250Y2327439D01*
X6001013Y2302724D01*
X5997521Y2276201D01*
Y2123801D01*
X6001013Y2097278D01*
X6011250Y2072562D01*
X6027536Y2051339D01*
X6048760Y2035053D01*
X6073475Y2024816D01*
X6099998Y2021324D01*
X6126521Y2024816D01*
X6151236Y2035053D01*
X6172460Y2051339D01*
X6188746Y2072562D01*
X6198983Y2097278D01*
X6202475Y2123801D01*
Y2276201D01*
X6198983Y2302724D01*
X6188746Y2327439D01*
X6172460Y2348663D01*
X6151236Y2364948D01*
X6126521Y2375186D01*
X6099998Y2378677D01*
D02*
G37*
G36*
X5083998D02*
X5057475Y2375186D01*
X5032760Y2364948D01*
X5011536Y2348663D01*
X4995250Y2327439D01*
X4985013Y2302724D01*
X4981521Y2276201D01*
Y2123801D01*
X4985013Y2097278D01*
X4995250Y2072562D01*
X5011536Y2051339D01*
X5032760Y2035053D01*
X5057475Y2024816D01*
X5083998Y2021324D01*
X5110521Y2024816D01*
X5135236Y2035053D01*
X5156460Y2051339D01*
X5172746Y2072562D01*
X5182983Y2097278D01*
X5186475Y2123801D01*
Y2276201D01*
X5182983Y2302724D01*
X5172746Y2327439D01*
X5156460Y2348663D01*
X5135236Y2364948D01*
X5110521Y2375186D01*
X5083998Y2378677D01*
D02*
G37*
G36*
X5337998D02*
X5311475Y2375186D01*
X5286760Y2364948D01*
X5265536Y2348663D01*
X5249250Y2327439D01*
X5239013Y2302724D01*
X5235521Y2276201D01*
Y2123801D01*
X5239013Y2097278D01*
X5249250Y2072562D01*
X5265536Y2051339D01*
X5286760Y2035053D01*
X5311475Y2024816D01*
X5337998Y2021324D01*
X5364521Y2024816D01*
X5389236Y2035053D01*
X5410460Y2051339D01*
X5426746Y2072562D01*
X5436983Y2097278D01*
X5440475Y2123801D01*
Y2276201D01*
X5436983Y2302724D01*
X5426746Y2327439D01*
X5410460Y2348663D01*
X5389236Y2364948D01*
X5364521Y2375186D01*
X5337998Y2378677D01*
D02*
G37*
G36*
X5948475Y2187301D02*
X5858698D01*
Y2022996D01*
X5872521Y2024816D01*
X5897236Y2035053D01*
X5918460Y2051339D01*
X5934746Y2072562D01*
X5944983Y2097278D01*
X5948475Y2123801D01*
Y2187301D01*
D02*
G37*
G36*
X3980002Y2451899D02*
X3958909Y2449122D01*
X3939253Y2440980D01*
X3922375Y2428029D01*
X3909423Y2411150D01*
X3901282Y2391495D01*
X3898505Y2370402D01*
Y2259602D01*
X3901282Y2238509D01*
X3909423Y2218853D01*
X3922375Y2201975D01*
X3939253Y2189023D01*
X3958909Y2180882D01*
X3980002Y2178105D01*
X4001095Y2180882D01*
X4020751Y2189023D01*
X4037629Y2201975D01*
X4050581Y2218853D01*
X4058722Y2238509D01*
X4061499Y2259602D01*
Y2370402D01*
X4058722Y2391495D01*
X4050581Y2411150D01*
X4037629Y2428029D01*
X4020751Y2440980D01*
X4001095Y2449122D01*
X3980002Y2451899D01*
D02*
G37*
G36*
X6353998Y2378677D02*
X6327475Y2375186D01*
X6302760Y2364948D01*
X6281536Y2348663D01*
X6265250Y2327439D01*
X6255013Y2302724D01*
X6251521Y2276201D01*
Y2123801D01*
X6255013Y2097278D01*
X6265250Y2072562D01*
X6281536Y2051339D01*
X6302760Y2035053D01*
X6327475Y2024816D01*
X6353998Y2021324D01*
X6380521Y2024816D01*
X6405236Y2035053D01*
X6426460Y2051339D01*
X6442746Y2072562D01*
X6452983Y2097278D01*
X6456475Y2123801D01*
Y2276201D01*
X6452983Y2302724D01*
X6442746Y2327439D01*
X6426460Y2348663D01*
X6405236Y2364948D01*
X6380521Y2375186D01*
X6353998Y2378677D01*
D02*
G37*
G36*
X5833298Y2187301D02*
X5743521D01*
Y2123801D01*
X5747013Y2097278D01*
X5757250Y2072562D01*
X5773536Y2051339D01*
X5794760Y2035053D01*
X5819475Y2024816D01*
X5833298Y2022996D01*
Y2187301D01*
D02*
G37*
G36*
X3924300Y3782594D02*
X3910790Y3780816D01*
X3886367Y3770699D01*
X3865394Y3754606D01*
X3849301Y3733633D01*
X3839184Y3709210D01*
X3837406Y3695700D01*
X3924300D01*
Y3782594D01*
D02*
G37*
G36*
X3949700D02*
Y3695700D01*
X4036594D01*
X4034816Y3709210D01*
X4024699Y3733633D01*
X4008606Y3754606D01*
X3987633Y3770699D01*
X3963210Y3780816D01*
X3949700Y3782594D01*
D02*
G37*
G36*
X2131299Y3768594D02*
X2117789Y3766815D01*
X2093366Y3756699D01*
X2072393Y3740606D01*
X2056300Y3719633D01*
X2046183Y3695209D01*
X2044405Y3681700D01*
X2131299D01*
Y3768594D01*
D02*
G37*
G36*
X2156699D02*
Y3681700D01*
X2243593D01*
X2241814Y3695209D01*
X2231698Y3719633D01*
X2215605Y3740606D01*
X2194632Y3756699D01*
X2170209Y3766815D01*
X2156699Y3768594D01*
D02*
G37*
G36*
X3450001Y4132138D02*
X3427707Y4129203D01*
X3406932Y4120598D01*
X3389093Y4106909D01*
X3375404Y4089070D01*
X3366799Y4068295D01*
X3363864Y4046002D01*
X3366799Y4023708D01*
X3375404Y4002933D01*
X3389093Y3985094D01*
X3406932Y3971405D01*
X3427707Y3962800D01*
X3450001Y3959865D01*
X3472295Y3962800D01*
X3493069Y3971405D01*
X3510909Y3985094D01*
X3524597Y4002933D01*
X3533202Y4023708D01*
X3536137Y4046002D01*
X3533202Y4068295D01*
X3524597Y4089070D01*
X3510909Y4106909D01*
X3493069Y4120598D01*
X3472295Y4129203D01*
X3450001Y4132138D01*
D02*
G37*
G36*
X7451999Y4170265D02*
X7425790Y4166814D01*
X7401366Y4156698D01*
X7380393Y4140605D01*
X7364300Y4119632D01*
X7354184Y4095208D01*
X7350733Y4068999D01*
X7354184Y4042789D01*
X7359066Y4031002D01*
X7159130Y3831067D01*
X6691859D01*
X6676993Y3828109D01*
X6664390Y3819689D01*
X6260530Y3415829D01*
X6252109Y3403226D01*
X6250610Y3395687D01*
X6236760Y3389950D01*
X6215536Y3373665D01*
X6199251Y3352441D01*
X6189014Y3327725D01*
X6185522Y3301202D01*
Y3148802D01*
X6189014Y3122280D01*
X6199251Y3097564D01*
X6215536Y3076340D01*
X6236760Y3060055D01*
X6261476Y3049817D01*
X6287999Y3046326D01*
X6314522Y3049817D01*
X6339237Y3060055D01*
X6360461Y3076340D01*
X6376746Y3097564D01*
X6386984Y3122280D01*
X6390475Y3148802D01*
Y3301202D01*
X6386984Y3327725D01*
X6376746Y3352441D01*
X6360461Y3373665D01*
X6349870Y3381791D01*
X6349040Y3394464D01*
X6707949Y3753373D01*
X7175221D01*
X7190086Y3756331D01*
X7202689Y3764751D01*
X7414003Y3976065D01*
X7425790Y3971183D01*
X7451999Y3967732D01*
X7478209Y3971183D01*
X7502632Y3981300D01*
X7523605Y3997393D01*
X7539698Y4018366D01*
X7549815Y4042789D01*
X7553266Y4068999D01*
X7549815Y4095208D01*
X7539698Y4119632D01*
X7523605Y4140605D01*
X7502632Y4156698D01*
X7478209Y4166814D01*
X7451999Y4170265D01*
D02*
G37*
G36*
X2143999Y4024266D02*
X2117789Y4020815D01*
X2093366Y4010699D01*
X2072393Y3994606D01*
X2056300Y3973633D01*
X2046183Y3949209D01*
X2042733Y3923000D01*
X2046183Y3896790D01*
X2056300Y3872366D01*
X2072393Y3851393D01*
X2093366Y3835300D01*
X2117789Y3825184D01*
X2143999Y3821733D01*
X2170209Y3825184D01*
X2194632Y3835300D01*
X2215605Y3851393D01*
X2231698Y3872366D01*
X2241814Y3896790D01*
X2245265Y3923000D01*
X2241814Y3949209D01*
X2231698Y3973633D01*
X2215605Y3994606D01*
X2194632Y4010699D01*
X2170209Y4020815D01*
X2143999Y4024266D01*
D02*
G37*
G36*
X4699000Y4038266D02*
X4672790Y4034816D01*
X4648367Y4024699D01*
X4627394Y4008606D01*
X4611301Y3987633D01*
X4601184Y3963210D01*
X4597734Y3937000D01*
X4601184Y3910790D01*
X4611301Y3886367D01*
X4627394Y3865394D01*
X4648367Y3849301D01*
X4672790Y3839184D01*
X4699000Y3835734D01*
X4725210Y3839184D01*
X4749633Y3849301D01*
X4770606Y3865394D01*
X4786699Y3886367D01*
X4796816Y3910790D01*
X4800266Y3937000D01*
X4796816Y3963210D01*
X4786699Y3987633D01*
X4770606Y4008606D01*
X4749633Y4024699D01*
X4725210Y4034816D01*
X4699000Y4038266D01*
D02*
G37*
G36*
X6554699Y3402007D02*
Y3237702D01*
X6644475D01*
Y3301202D01*
X6640984Y3327725D01*
X6630746Y3352441D01*
X6614461Y3373665D01*
X6593237Y3389950D01*
X6568522Y3400188D01*
X6554699Y3402007D01*
D02*
G37*
G36*
X2131299Y3656300D02*
X2044405D01*
X2046183Y3642790D01*
X2056300Y3618366D01*
X2072393Y3597393D01*
X2093366Y3581300D01*
X2117789Y3571184D01*
X2131299Y3569405D01*
Y3656300D01*
D02*
G37*
G36*
X6644475Y3212302D02*
X6554699D01*
Y3047997D01*
X6568522Y3049817D01*
X6593237Y3060055D01*
X6614461Y3076340D01*
X6630746Y3097564D01*
X6640984Y3122280D01*
X6644475Y3148802D01*
Y3212302D01*
D02*
G37*
G36*
X6529299Y3402007D02*
X6515476Y3400188D01*
X6490760Y3389950D01*
X6469536Y3373665D01*
X6453251Y3352441D01*
X6443014Y3327725D01*
X6439522Y3301202D01*
Y3237702D01*
X6529299D01*
Y3402007D01*
D02*
G37*
G36*
X3924300Y3670300D02*
X3837406D01*
X3839184Y3656790D01*
X3849301Y3632367D01*
X3865394Y3611394D01*
X3886367Y3595301D01*
X3910790Y3585184D01*
X3924300Y3583406D01*
Y3670300D01*
D02*
G37*
G36*
X4036594D02*
X3949700D01*
Y3583406D01*
X3963210Y3585184D01*
X3987633Y3595301D01*
X4008606Y3611394D01*
X4024699Y3632367D01*
X4034816Y3656790D01*
X4036594Y3670300D01*
D02*
G37*
G36*
X2243593Y3656300D02*
X2156699D01*
Y3569405D01*
X2170209Y3571184D01*
X2194632Y3581300D01*
X2215605Y3597393D01*
X2231698Y3618366D01*
X2241814Y3642790D01*
X2243593Y3656300D01*
D02*
G37*
G36*
X4699000Y3784266D02*
X4672790Y3780816D01*
X4648367Y3770699D01*
X4627394Y3754606D01*
X4611301Y3733633D01*
X4601184Y3709210D01*
X4597734Y3683000D01*
X4601184Y3656790D01*
X4611301Y3632367D01*
X4627394Y3611394D01*
X4648367Y3595301D01*
X4672790Y3585184D01*
X4699000Y3581734D01*
X4725210Y3585184D01*
X4749633Y3595301D01*
X4770606Y3611394D01*
X4786699Y3632367D01*
X4796816Y3656790D01*
X4800266Y3683000D01*
X4796816Y3709210D01*
X4786699Y3733633D01*
X4770606Y3754606D01*
X4749633Y3770699D01*
X4725210Y3780816D01*
X4699000Y3784266D01*
D02*
G37*
G36*
X3490300Y6760301D02*
X3403406D01*
X3405185Y6746792D01*
X3415301Y6722368D01*
X3431394Y6701395D01*
X3452367Y6685302D01*
X3476791Y6675186D01*
X3490300Y6673407D01*
Y6760301D01*
D02*
G37*
G36*
X3602595D02*
X3515700D01*
Y6673407D01*
X3529210Y6675186D01*
X3553633Y6685302D01*
X3574607Y6701395D01*
X3590699Y6722368D01*
X3600816Y6746792D01*
X3602595Y6760301D01*
D02*
G37*
G36*
X6805000Y6874268D02*
X6778791Y6870817D01*
X6754367Y6860701D01*
X6733394Y6844608D01*
X6717301Y6823635D01*
X6707185Y6799211D01*
X6703734Y6773001D01*
X6707185Y6746792D01*
X6717301Y6722368D01*
X6733394Y6701395D01*
X6754367Y6685302D01*
X6778791Y6675186D01*
X6805000Y6671735D01*
X6831210Y6675186D01*
X6855633Y6685302D01*
X6876607Y6701395D01*
X6892699Y6722368D01*
X6902816Y6746792D01*
X6906267Y6773001D01*
X6902816Y6799211D01*
X6892699Y6823635D01*
X6876607Y6844608D01*
X6855633Y6860701D01*
X6831210Y6870817D01*
X6805000Y6874268D01*
D02*
G37*
G36*
X7059000D02*
X7032791Y6870817D01*
X7008367Y6860701D01*
X6987394Y6844608D01*
X6971301Y6823635D01*
X6961185Y6799211D01*
X6957734Y6773001D01*
X6961185Y6746792D01*
X6971301Y6722368D01*
X6987394Y6701395D01*
X7008367Y6685302D01*
X7032791Y6675186D01*
X7059000Y6671735D01*
X7085210Y6675186D01*
X7109633Y6685302D01*
X7130607Y6701395D01*
X7146699Y6722368D01*
X7156816Y6746792D01*
X7160267Y6773001D01*
X7156816Y6799211D01*
X7146699Y6823635D01*
X7130607Y6844608D01*
X7109633Y6860701D01*
X7085210Y6870817D01*
X7059000Y6874268D01*
D02*
G37*
G36*
X7300300Y6760301D02*
X7213406D01*
X7215185Y6746792D01*
X7225301Y6722368D01*
X7241394Y6701395D01*
X7262367Y6685302D01*
X7286791Y6675186D01*
X7300300Y6673407D01*
Y6760301D01*
D02*
G37*
G36*
X7412595D02*
X7325700D01*
Y6673407D01*
X7339210Y6675186D01*
X7363633Y6685302D01*
X7384607Y6701395D01*
X7400699Y6722368D01*
X7410816Y6746792D01*
X7412595Y6760301D01*
D02*
G37*
G36*
X5522300D02*
X5435406D01*
X5437185Y6746792D01*
X5447301Y6722368D01*
X5463394Y6701395D01*
X5484367Y6685302D01*
X5508791Y6675186D01*
X5522300Y6673407D01*
Y6760301D01*
D02*
G37*
G36*
X5634595D02*
X5547700D01*
Y6673407D01*
X5561210Y6675186D01*
X5585633Y6685302D01*
X5606607Y6701395D01*
X5622699Y6722368D01*
X5632816Y6746792D01*
X5634595Y6760301D01*
D02*
G37*
G36*
X5027000Y6874268D02*
X5000791Y6870817D01*
X4976367Y6860701D01*
X4955394Y6844608D01*
X4939301Y6823635D01*
X4929185Y6799211D01*
X4925734Y6773001D01*
X4929185Y6746792D01*
X4939301Y6722368D01*
X4955394Y6701395D01*
X4976367Y6685302D01*
X5000791Y6675186D01*
X5027000Y6671735D01*
X5053210Y6675186D01*
X5077633Y6685302D01*
X5098607Y6701395D01*
X5114699Y6722368D01*
X5124816Y6746792D01*
X5128267Y6773001D01*
X5124816Y6799211D01*
X5114699Y6823635D01*
X5098607Y6844608D01*
X5077633Y6860701D01*
X5053210Y6870817D01*
X5027000Y6874268D01*
D02*
G37*
G36*
X5281000D02*
X5254791Y6870817D01*
X5230367Y6860701D01*
X5209394Y6844608D01*
X5193301Y6823635D01*
X5183185Y6799211D01*
X5179734Y6773001D01*
X5183185Y6746792D01*
X5193301Y6722368D01*
X5209394Y6701395D01*
X5230367Y6685302D01*
X5254791Y6675186D01*
X5281000Y6671735D01*
X5307210Y6675186D01*
X5331633Y6685302D01*
X5352607Y6701395D01*
X5368699Y6722368D01*
X5378816Y6746792D01*
X5382267Y6773001D01*
X5378816Y6799211D01*
X5368699Y6823635D01*
X5352607Y6844608D01*
X5331633Y6860701D01*
X5307210Y6870817D01*
X5281000Y6874268D01*
D02*
G37*
G36*
X4265000D02*
X4238791Y6870817D01*
X4214367Y6860701D01*
X4193394Y6844608D01*
X4177301Y6823635D01*
X4167185Y6799211D01*
X4163734Y6773001D01*
X4167185Y6746792D01*
X4177301Y6722368D01*
X4193394Y6701395D01*
X4214367Y6685302D01*
X4238791Y6675186D01*
X4265000Y6671735D01*
X4291210Y6675186D01*
X4315633Y6685302D01*
X4336607Y6701395D01*
X4352699Y6722368D01*
X4362816Y6746792D01*
X4366267Y6773001D01*
X4362816Y6799211D01*
X4352699Y6823635D01*
X4336607Y6844608D01*
X4315633Y6860701D01*
X4291210Y6870817D01*
X4265000Y6874268D01*
D02*
G37*
G36*
X4773000D02*
X4746791Y6870817D01*
X4722367Y6860701D01*
X4701394Y6844608D01*
X4685301Y6823635D01*
X4675185Y6799211D01*
X4671734Y6773001D01*
X4675185Y6746792D01*
X4685301Y6722368D01*
X4701394Y6701395D01*
X4722367Y6685302D01*
X4746791Y6675186D01*
X4773000Y6671735D01*
X4799210Y6675186D01*
X4823633Y6685302D01*
X4844607Y6701395D01*
X4860699Y6722368D01*
X4870816Y6746792D01*
X4874267Y6773001D01*
X4870816Y6799211D01*
X4860699Y6823635D01*
X4844607Y6844608D01*
X4823633Y6860701D01*
X4799210Y6870817D01*
X4773000Y6874268D01*
D02*
G37*
G36*
X6297000D02*
X6270791Y6870817D01*
X6246367Y6860701D01*
X6225394Y6844608D01*
X6209301Y6823635D01*
X6199185Y6799211D01*
X6195734Y6773001D01*
X6199185Y6746792D01*
X6209301Y6722368D01*
X6225394Y6701395D01*
X6246367Y6685302D01*
X6270791Y6675186D01*
X6297000Y6671735D01*
X6323210Y6675186D01*
X6347633Y6685302D01*
X6368607Y6701395D01*
X6384699Y6722368D01*
X6394816Y6746792D01*
X6398267Y6773001D01*
X6394816Y6799211D01*
X6384699Y6823635D01*
X6368607Y6844608D01*
X6347633Y6860701D01*
X6323210Y6870817D01*
X6297000Y6874268D01*
D02*
G37*
G36*
X6551000D02*
X6524791Y6870817D01*
X6500367Y6860701D01*
X6479394Y6844608D01*
X6463301Y6823635D01*
X6453185Y6799211D01*
X6449734Y6773001D01*
X6453185Y6746792D01*
X6463301Y6722368D01*
X6479394Y6701395D01*
X6500367Y6685302D01*
X6524791Y6675186D01*
X6551000Y6671735D01*
X6577210Y6675186D01*
X6601633Y6685302D01*
X6622607Y6701395D01*
X6638699Y6722368D01*
X6648816Y6746792D01*
X6652267Y6773001D01*
X6648816Y6799211D01*
X6638699Y6823635D01*
X6622607Y6844608D01*
X6601633Y6860701D01*
X6577210Y6870817D01*
X6551000Y6874268D01*
D02*
G37*
G36*
X5789000D02*
X5762791Y6870817D01*
X5738367Y6860701D01*
X5717394Y6844608D01*
X5701301Y6823635D01*
X5691185Y6799211D01*
X5687734Y6773001D01*
X5691185Y6746792D01*
X5701301Y6722368D01*
X5717394Y6701395D01*
X5738367Y6685302D01*
X5762791Y6675186D01*
X5789000Y6671735D01*
X5815210Y6675186D01*
X5839633Y6685302D01*
X5860607Y6701395D01*
X5876699Y6722368D01*
X5886816Y6746792D01*
X5890267Y6773001D01*
X5886816Y6799211D01*
X5876699Y6823635D01*
X5860607Y6844608D01*
X5839633Y6860701D01*
X5815210Y6870817D01*
X5789000Y6874268D01*
D02*
G37*
G36*
X6043000D02*
X6016791Y6870817D01*
X5992367Y6860701D01*
X5971394Y6844608D01*
X5955301Y6823635D01*
X5945185Y6799211D01*
X5941734Y6773001D01*
X5945185Y6746792D01*
X5955301Y6722368D01*
X5971394Y6701395D01*
X5992367Y6685302D01*
X6016791Y6675186D01*
X6043000Y6671735D01*
X6069210Y6675186D01*
X6093633Y6685302D01*
X6114607Y6701395D01*
X6130699Y6722368D01*
X6140816Y6746792D01*
X6144267Y6773001D01*
X6140816Y6799211D01*
X6130699Y6823635D01*
X6114607Y6844608D01*
X6093633Y6860701D01*
X6069210Y6870817D01*
X6043000Y6874268D01*
D02*
G37*
G36*
X4760300Y7014301D02*
X4673406D01*
X4675185Y7000792D01*
X4685301Y6976368D01*
X4701394Y6955395D01*
X4722367Y6939302D01*
X4746791Y6929186D01*
X4760300Y6927407D01*
Y7014301D01*
D02*
G37*
G36*
X4872595D02*
X4785700D01*
Y6927407D01*
X4799210Y6929186D01*
X4823633Y6939302D01*
X4844607Y6955395D01*
X4860699Y6976368D01*
X4870816Y7000792D01*
X4872595Y7014301D01*
D02*
G37*
G36*
X3998300D02*
X3911406D01*
X3913185Y7000792D01*
X3923301Y6976368D01*
X3939394Y6955395D01*
X3960367Y6939302D01*
X3984791Y6929186D01*
X3998300Y6927407D01*
Y7014301D01*
D02*
G37*
G36*
X4110595D02*
X4023700D01*
Y6927407D01*
X4037210Y6929186D01*
X4061633Y6939302D01*
X4082607Y6955395D01*
X4098699Y6976368D01*
X4108816Y7000792D01*
X4110595Y7014301D01*
D02*
G37*
G36*
X6538300D02*
X6451406D01*
X6453185Y7000792D01*
X6463301Y6976368D01*
X6479394Y6955395D01*
X6500367Y6939302D01*
X6524791Y6929186D01*
X6538300Y6927407D01*
Y7014301D01*
D02*
G37*
G36*
X6650595D02*
X6563700D01*
Y6927407D01*
X6577210Y6929186D01*
X6601633Y6939302D01*
X6622607Y6955395D01*
X6638699Y6976368D01*
X6648816Y7000792D01*
X6650595Y7014301D01*
D02*
G37*
G36*
X6030300D02*
X5943406D01*
X5945185Y7000792D01*
X5955301Y6976368D01*
X5971394Y6955395D01*
X5992367Y6939302D01*
X6016791Y6929186D01*
X6030300Y6927407D01*
Y7014301D01*
D02*
G37*
G36*
X6142595D02*
X6055700D01*
Y6927407D01*
X6069210Y6929186D01*
X6093633Y6939302D01*
X6114607Y6955395D01*
X6130699Y6976368D01*
X6140816Y7000792D01*
X6142595Y7014301D01*
D02*
G37*
G36*
X5522300Y6872596D02*
X5508791Y6870817D01*
X5484367Y6860701D01*
X5463394Y6844608D01*
X5447301Y6823635D01*
X5437185Y6799211D01*
X5435406Y6785701D01*
X5522300D01*
Y6872596D01*
D02*
G37*
G36*
X5547700D02*
Y6785701D01*
X5634595D01*
X5632816Y6799211D01*
X5622699Y6823635D01*
X5606607Y6844608D01*
X5585633Y6860701D01*
X5561210Y6870817D01*
X5547700Y6872596D01*
D02*
G37*
G36*
X3490300D02*
X3476791Y6870817D01*
X3452367Y6860701D01*
X3431394Y6844608D01*
X3415301Y6823635D01*
X3405185Y6799211D01*
X3403406Y6785701D01*
X3490300D01*
Y6872596D01*
D02*
G37*
G36*
X3515700D02*
Y6785701D01*
X3602595D01*
X3600816Y6799211D01*
X3590699Y6823635D01*
X3574607Y6844608D01*
X3553633Y6860701D01*
X3529210Y6870817D01*
X3515700Y6872596D01*
D02*
G37*
G36*
X2982300Y7014301D02*
X2895406D01*
X2897185Y7000792D01*
X2907301Y6976368D01*
X2923394Y6955395D01*
X2944367Y6939302D01*
X2968791Y6929186D01*
X2982300Y6927407D01*
Y7014301D01*
D02*
G37*
G36*
X3094595D02*
X3007700D01*
Y6927407D01*
X3021210Y6929186D01*
X3045633Y6939302D01*
X3066607Y6955395D01*
X3082699Y6976368D01*
X3092816Y7000792D01*
X3094595Y7014301D01*
D02*
G37*
G36*
X7300300Y6872596D02*
X7286791Y6870817D01*
X7262367Y6860701D01*
X7241394Y6844608D01*
X7225301Y6823635D01*
X7215185Y6799211D01*
X7213406Y6785701D01*
X7300300D01*
Y6872596D01*
D02*
G37*
G36*
X7325700D02*
Y6785701D01*
X7412595D01*
X7410816Y6799211D01*
X7400699Y6823635D01*
X7384607Y6844608D01*
X7363633Y6860701D01*
X7339210Y6870817D01*
X7325700Y6872596D01*
D02*
G37*
G36*
X4011000Y6874268D02*
X3984791Y6870817D01*
X3960367Y6860701D01*
X3939394Y6844608D01*
X3923301Y6823635D01*
X3913185Y6799211D01*
X3909734Y6773001D01*
X3913185Y6746792D01*
X3923301Y6722368D01*
X3939394Y6701395D01*
X3960367Y6685302D01*
X3984791Y6675186D01*
X4011000Y6671735D01*
X4037210Y6675186D01*
X4061633Y6685302D01*
X4082607Y6701395D01*
X4098699Y6722368D01*
X4108816Y6746792D01*
X4112267Y6773001D01*
X4108816Y6799211D01*
X4098699Y6823635D01*
X4082607Y6844608D01*
X4061633Y6860701D01*
X4037210Y6870817D01*
X4011000Y6874268D01*
D02*
G37*
G36*
X5310002Y6227224D02*
X5285098Y6223946D01*
X5261890Y6214333D01*
X5241962Y6199041D01*
X5226671Y6179113D01*
X5217058Y6155906D01*
X5213779Y6131001D01*
X5217058Y6106097D01*
X5226671Y6082890D01*
X5241962Y6062961D01*
X5261890Y6047670D01*
X5285098Y6038057D01*
X5310002Y6034778D01*
X5334907Y6038057D01*
X5358114Y6047670D01*
X5378042Y6062961D01*
X5393334Y6082890D01*
X5402947Y6106097D01*
X5406225Y6131001D01*
X5402947Y6155906D01*
X5393334Y6179113D01*
X5378042Y6199041D01*
X5358114Y6214333D01*
X5334907Y6223946D01*
X5310002Y6227224D01*
D02*
G37*
G36*
X4281302Y6118301D02*
X4199451D01*
X4201058Y6106097D01*
X4210671Y6082890D01*
X4225962Y6062961D01*
X4245890Y6047670D01*
X4269098Y6038057D01*
X4281302Y6036450D01*
Y6118301D01*
D02*
G37*
G36*
X4802002Y6227224D02*
X4777098Y6223946D01*
X4753890Y6214333D01*
X4733962Y6199041D01*
X4718671Y6179113D01*
X4709058Y6155906D01*
X4705779Y6131001D01*
X4709058Y6106097D01*
X4718671Y6082890D01*
X4733962Y6062961D01*
X4753890Y6047670D01*
X4777098Y6038057D01*
X4802002Y6034778D01*
X4826907Y6038057D01*
X4850114Y6047670D01*
X4870042Y6062961D01*
X4885334Y6082890D01*
X4894947Y6106097D01*
X4898225Y6131001D01*
X4894947Y6155906D01*
X4885334Y6179113D01*
X4870042Y6199041D01*
X4850114Y6214333D01*
X4826907Y6223946D01*
X4802002Y6227224D01*
D02*
G37*
G36*
X5056002D02*
X5031098Y6223946D01*
X5007890Y6214333D01*
X4987962Y6199041D01*
X4972671Y6179113D01*
X4963058Y6155906D01*
X4959779Y6131001D01*
X4963058Y6106097D01*
X4972671Y6082890D01*
X4987962Y6062961D01*
X5007890Y6047670D01*
X5031098Y6038057D01*
X5056002Y6034778D01*
X5080907Y6038057D01*
X5104114Y6047670D01*
X5124042Y6062961D01*
X5139334Y6082890D01*
X5148947Y6106097D01*
X5152225Y6131001D01*
X5148947Y6155906D01*
X5139334Y6179113D01*
X5124042Y6199041D01*
X5104114Y6214333D01*
X5080907Y6223946D01*
X5056002Y6227224D01*
D02*
G37*
G36*
X4134553Y6118301D02*
X4052702D01*
Y6036450D01*
X4064907Y6038057D01*
X4088114Y6047670D01*
X4108042Y6062961D01*
X4123334Y6082890D01*
X4132947Y6106097D01*
X4134553Y6118301D01*
D02*
G37*
G36*
X4388553D02*
X4306702D01*
Y6036450D01*
X4318907Y6038057D01*
X4342114Y6047670D01*
X4362042Y6062961D01*
X4377334Y6082890D01*
X4386947Y6106097D01*
X4388553Y6118301D01*
D02*
G37*
G36*
X5551302D02*
X5469451D01*
X5471058Y6106097D01*
X5480671Y6082890D01*
X5495962Y6062961D01*
X5515890Y6047670D01*
X5539098Y6038057D01*
X5551302Y6036450D01*
Y6118301D01*
D02*
G37*
G36*
X4027302D02*
X3945451D01*
X3947058Y6106097D01*
X3956671Y6082890D01*
X3971962Y6062961D01*
X3991890Y6047670D01*
X4015098Y6038057D01*
X4027302Y6036450D01*
Y6118301D01*
D02*
G37*
G36*
X6704400Y6196400D02*
X6503600D01*
Y5995600D01*
X6704400D01*
Y6196400D01*
D02*
G37*
G36*
X6083300Y6083300D02*
X5996406D01*
X5998184Y6069790D01*
X6008301Y6045367D01*
X6024394Y6024394D01*
X6045367Y6008301D01*
X6069790Y5998184D01*
X6083300Y5996406D01*
Y6083300D01*
D02*
G37*
G36*
X6350000Y6197266D02*
X6323790Y6193816D01*
X6299367Y6183699D01*
X6278394Y6167606D01*
X6262301Y6146633D01*
X6252184Y6122210D01*
X6248734Y6096000D01*
X6252184Y6069790D01*
X6262301Y6045367D01*
X6278394Y6024394D01*
X6299367Y6008301D01*
X6323790Y5998184D01*
X6350000Y5994734D01*
X6376210Y5998184D01*
X6400633Y6008301D01*
X6421606Y6024394D01*
X6437699Y6045367D01*
X6447816Y6069790D01*
X6451266Y6096000D01*
X6447816Y6122210D01*
X6437699Y6146633D01*
X6421606Y6167606D01*
X6400633Y6183699D01*
X6376210Y6193816D01*
X6350000Y6197266D01*
D02*
G37*
G36*
X7366000D02*
X7339790Y6193816D01*
X7315367Y6183699D01*
X7294394Y6167606D01*
X7278301Y6146633D01*
X7268184Y6122210D01*
X7264734Y6096000D01*
X7268184Y6069790D01*
X7278301Y6045367D01*
X7294394Y6024394D01*
X7315367Y6008301D01*
X7339790Y5998184D01*
X7366000Y5994734D01*
X7392210Y5998184D01*
X7416633Y6008301D01*
X7437606Y6024394D01*
X7453699Y6045367D01*
X7463816Y6069790D01*
X7467266Y6096000D01*
X7463816Y6122210D01*
X7453699Y6146633D01*
X7437606Y6167606D01*
X7416633Y6183699D01*
X7392210Y6193816D01*
X7366000Y6197266D01*
D02*
G37*
G36*
X6195594Y6083300D02*
X6108700D01*
Y5996406D01*
X6122210Y5998184D01*
X6146633Y6008301D01*
X6167606Y6024394D01*
X6183699Y6045367D01*
X6193816Y6069790D01*
X6195594Y6083300D01*
D02*
G37*
G36*
X4548002Y6227224D02*
X4523098Y6223946D01*
X4499890Y6214333D01*
X4479962Y6199041D01*
X4464671Y6179113D01*
X4455058Y6155906D01*
X4451779Y6131001D01*
X4455058Y6106097D01*
X4464671Y6082890D01*
X4479962Y6062961D01*
X4499890Y6047670D01*
X4523098Y6038057D01*
X4548002Y6034778D01*
X4572907Y6038057D01*
X4596114Y6047670D01*
X4616042Y6062961D01*
X4631334Y6082890D01*
X4640947Y6106097D01*
X4644225Y6131001D01*
X4640947Y6155906D01*
X4631334Y6179113D01*
X4616042Y6199041D01*
X4596114Y6214333D01*
X4572907Y6223946D01*
X4548002Y6227224D01*
D02*
G37*
G36*
X7607300Y6083300D02*
X7520406D01*
X7522184Y6069790D01*
X7532301Y6045367D01*
X7548394Y6024394D01*
X7569367Y6008301D01*
X7593790Y5998184D01*
X7607300Y5996406D01*
Y6083300D01*
D02*
G37*
G36*
X7719594D02*
X7632700D01*
Y5996406D01*
X7646210Y5998184D01*
X7670633Y6008301D01*
X7691606Y6024394D01*
X7707699Y6045367D01*
X7717816Y6069790D01*
X7719594Y6083300D01*
D02*
G37*
G36*
X5576702Y6225552D02*
Y6143701D01*
X5658553D01*
X5656947Y6155906D01*
X5647334Y6179113D01*
X5632042Y6199041D01*
X5612114Y6214333D01*
X5588907Y6223946D01*
X5576702Y6225552D01*
D02*
G37*
G36*
X4519000Y6874268D02*
X4492791Y6870817D01*
X4468367Y6860701D01*
X4447394Y6844608D01*
X4431301Y6823635D01*
X4421185Y6799211D01*
X4417734Y6773001D01*
X4421185Y6746792D01*
X4426067Y6735005D01*
X4178968Y6487907D01*
X4104061D01*
X4089195Y6484949D01*
X4076592Y6476529D01*
X3820172Y6220108D01*
X3810907Y6223946D01*
X3786002Y6227224D01*
X3761098Y6223946D01*
X3737890Y6214333D01*
X3717962Y6199041D01*
X3702671Y6179113D01*
X3698833Y6169848D01*
X3145091D01*
X2587400Y6727539D01*
Y6873401D01*
X2386601D01*
Y6672602D01*
X2532463D01*
X3101532Y6103533D01*
X3114135Y6095112D01*
X3129001Y6092155D01*
X3698833D01*
X3702671Y6082890D01*
X3717962Y6062961D01*
X3737890Y6047670D01*
X3761098Y6038057D01*
X3786002Y6034778D01*
X3810907Y6038057D01*
X3834114Y6047670D01*
X3854042Y6062961D01*
X3869334Y6082890D01*
X3878947Y6106097D01*
X3882225Y6131001D01*
X3878947Y6155906D01*
X3875109Y6165171D01*
X4120152Y6410213D01*
X4195059D01*
X4209925Y6413171D01*
X4222527Y6421591D01*
X4481004Y6680068D01*
X4492791Y6675186D01*
X4519000Y6671735D01*
X4545210Y6675186D01*
X4556997Y6680068D01*
X4900314Y6336750D01*
X4912917Y6328329D01*
X4927783Y6325372D01*
X6827690D01*
X7011600Y6141463D01*
Y5995600D01*
X7212400D01*
Y6196400D01*
X7066537D01*
X6871250Y6391687D01*
X6858647Y6400108D01*
X6843781Y6403065D01*
X4943874D01*
X4611934Y6735005D01*
X4616816Y6746792D01*
X4620267Y6773001D01*
X4616816Y6799211D01*
X4606699Y6823635D01*
X4590607Y6844608D01*
X4569633Y6860701D01*
X4545210Y6870817D01*
X4519000Y6874268D01*
D02*
G37*
G36*
X4052702Y6225552D02*
Y6143701D01*
X4134553D01*
X4132947Y6155906D01*
X4123334Y6179113D01*
X4108042Y6199041D01*
X4088114Y6214333D01*
X4064907Y6223946D01*
X4052702Y6225552D01*
D02*
G37*
G36*
X4306702D02*
Y6143701D01*
X4388553D01*
X4386947Y6155906D01*
X4377334Y6179113D01*
X4362042Y6199041D01*
X4342114Y6214333D01*
X4318907Y6223946D01*
X4306702Y6225552D01*
D02*
G37*
G36*
X3249000Y6874268D02*
X3222791Y6870817D01*
X3198367Y6860701D01*
X3177394Y6844608D01*
X3161301Y6823635D01*
X3151185Y6799211D01*
X3147734Y6773001D01*
X3151185Y6746792D01*
X3161301Y6722368D01*
X3177394Y6701395D01*
X3198367Y6685302D01*
X3222791Y6675186D01*
X3249000Y6671735D01*
X3275210Y6675186D01*
X3299633Y6685302D01*
X3320607Y6701395D01*
X3336699Y6722368D01*
X3346816Y6746792D01*
X3350267Y6773001D01*
X3346816Y6799211D01*
X3336699Y6823635D01*
X3320607Y6844608D01*
X3299633Y6860701D01*
X3275210Y6870817D01*
X3249000Y6874268D01*
D02*
G37*
G36*
X3757000D02*
X3730791Y6870817D01*
X3706367Y6860701D01*
X3685394Y6844608D01*
X3669301Y6823635D01*
X3659185Y6799211D01*
X3655734Y6773001D01*
X3659185Y6746792D01*
X3669301Y6722368D01*
X3685394Y6701395D01*
X3706367Y6685302D01*
X3730791Y6675186D01*
X3757000Y6671735D01*
X3783210Y6675186D01*
X3807633Y6685302D01*
X3828607Y6701395D01*
X3844699Y6722368D01*
X3854816Y6746792D01*
X3858267Y6773001D01*
X3854816Y6799211D01*
X3844699Y6823635D01*
X3828607Y6844608D01*
X3807633Y6860701D01*
X3783210Y6870817D01*
X3757000Y6874268D01*
D02*
G37*
G36*
X2741000D02*
X2714791Y6870817D01*
X2690367Y6860701D01*
X2669394Y6844608D01*
X2653301Y6823635D01*
X2643185Y6799211D01*
X2639734Y6773001D01*
X2643185Y6746792D01*
X2653301Y6722368D01*
X2669394Y6701395D01*
X2690367Y6685302D01*
X2714791Y6675186D01*
X2741000Y6671735D01*
X2767210Y6675186D01*
X2791633Y6685302D01*
X2812607Y6701395D01*
X2828699Y6722368D01*
X2838816Y6746792D01*
X2842267Y6773001D01*
X2838816Y6799211D01*
X2828699Y6823635D01*
X2812607Y6844608D01*
X2791633Y6860701D01*
X2767210Y6870817D01*
X2741000Y6874268D01*
D02*
G37*
G36*
X2995000D02*
X2968791Y6870817D01*
X2944367Y6860701D01*
X2923394Y6844608D01*
X2907301Y6823635D01*
X2897185Y6799211D01*
X2893734Y6773001D01*
X2897185Y6746792D01*
X2907301Y6722368D01*
X2923394Y6701395D01*
X2944367Y6685302D01*
X2968791Y6675186D01*
X2995000Y6671735D01*
X3021210Y6675186D01*
X3045633Y6685302D01*
X3066607Y6701395D01*
X3082699Y6722368D01*
X3092816Y6746792D01*
X3096267Y6773001D01*
X3092816Y6799211D01*
X3082699Y6823635D01*
X3066607Y6844608D01*
X3045633Y6860701D01*
X3021210Y6870817D01*
X2995000Y6874268D01*
D02*
G37*
G36*
X7607300Y6195594D02*
X7593790Y6193816D01*
X7569367Y6183699D01*
X7548394Y6167606D01*
X7532301Y6146633D01*
X7522184Y6122210D01*
X7520406Y6108700D01*
X7607300D01*
Y6195594D01*
D02*
G37*
G36*
X7632700D02*
Y6108700D01*
X7719594D01*
X7717816Y6122210D01*
X7707699Y6146633D01*
X7691606Y6167606D01*
X7670633Y6183699D01*
X7646210Y6193816D01*
X7632700Y6195594D01*
D02*
G37*
G36*
X5658553Y6118301D02*
X5576702D01*
Y6036450D01*
X5588907Y6038057D01*
X5612114Y6047670D01*
X5632042Y6062961D01*
X5647334Y6082890D01*
X5656947Y6106097D01*
X5658553Y6118301D01*
D02*
G37*
G36*
X6083300Y6195594D02*
X6069790Y6193816D01*
X6045367Y6183699D01*
X6024394Y6167606D01*
X6008301Y6146633D01*
X5998184Y6122210D01*
X5996406Y6108700D01*
X6083300D01*
Y6195594D01*
D02*
G37*
G36*
X5551302Y6225552D02*
X5539098Y6223946D01*
X5515890Y6214333D01*
X5495962Y6199041D01*
X5480671Y6179113D01*
X5471058Y6155906D01*
X5469451Y6143701D01*
X5551302D01*
Y6225552D01*
D02*
G37*
G36*
X4281302D02*
X4269098Y6223946D01*
X4245890Y6214333D01*
X4225962Y6199041D01*
X4210671Y6179113D01*
X4201058Y6155906D01*
X4199451Y6143701D01*
X4281302D01*
Y6225552D01*
D02*
G37*
G36*
X6108700Y6195594D02*
Y6108700D01*
X6195594D01*
X6193816Y6122210D01*
X6183699Y6146633D01*
X6167606Y6167606D01*
X6146633Y6183699D01*
X6122210Y6193816D01*
X6108700Y6195594D01*
D02*
G37*
G36*
X4027302Y6225552D02*
X4015098Y6223946D01*
X3991890Y6214333D01*
X3971962Y6199041D01*
X3956671Y6179113D01*
X3947058Y6155906D01*
X3945451Y6143701D01*
X4027302D01*
Y6225552D01*
D02*
G37*
%LPD*%
D13*
X7526020Y5413019D02*
Y5499100D01*
X4040002Y6131001D02*
X4294002D01*
X2487000Y7027001D02*
X2741000D01*
X3885179Y6901180D02*
X4011000Y7027001D01*
X3631179Y6901180D02*
X3885179D01*
X3503000Y6773001D02*
X3631179Y6901180D01*
X5917179D02*
X6043000Y7027001D01*
X5663179Y6901180D02*
X5917179D01*
X5535000Y6773001D02*
X5663179Y6901180D01*
X3269879Y4119880D02*
X3450001Y4300002D01*
X3102879Y4119880D02*
X3269879D01*
X2905999Y3923000D02*
X3102879Y4119880D01*
X3786002Y6131001D02*
X4104061Y6449060D01*
X4195059D01*
X4519000Y6773001D01*
X2857500Y3792002D02*
X3450001D01*
X2857500Y4780280D02*
X5125720D01*
X5207000Y4699000D01*
X5969000D02*
X6567998D01*
X7197999Y4068999D01*
X6821998Y4191000D02*
X6943999Y4068999D01*
X5969000Y4191000D02*
X6821998D01*
X3937000Y3937000D02*
X4022278D01*
X5591998Y2367280D01*
Y2200001D02*
Y2367280D01*
X6287999Y3225002D02*
Y3388360D01*
X3129001Y6131001D02*
X3786002D01*
X2487000Y6773001D02*
X3129001Y6131001D01*
X4519000Y6773001D02*
X4927783Y6364219D01*
X2149998Y5799999D02*
X2151360Y5801360D01*
X2694640D01*
X2770998Y5725003D01*
X2260600Y5547360D02*
X3101355D01*
X3278998Y5725003D01*
X2148840Y5659120D02*
X2260600Y5547360D01*
X2148840Y5659120D02*
Y5669280D01*
X2771140Y3878362D02*
X2857500Y3792002D01*
X2771140Y3878362D02*
Y4042141D01*
X2905999Y4177000D01*
X2857500Y4302760D02*
X3169920D01*
X2773680Y4386580D02*
X2857500Y4302760D01*
X2773680Y4386580D02*
Y4696460D01*
X2857500Y4780280D01*
X3937000Y4445000D02*
X4432300D01*
X4559300Y4318000D01*
X5080000D01*
X5207000Y4191000D01*
X6287999Y3388360D02*
X6691859Y3792220D01*
X7175221D01*
X7451999Y4068999D01*
X4699000Y4445000D02*
X4820920Y4566920D01*
X6936298Y4838700D02*
X6943999Y4830999D01*
X4820920Y4566920D02*
X5455920D01*
X5727700Y4838700D01*
X6936298D01*
X2905999Y4431000D02*
X3102879Y4627880D01*
X4516120D01*
X4699000Y4445000D01*
X6551000Y7027001D02*
X6681902Y6896100D01*
X7189902D01*
X7313000Y6773001D01*
X6043000Y7027001D02*
X6166282Y6903720D01*
X6427719D01*
X6551000Y7027001D01*
X4773000D02*
X4896282Y6903720D01*
X5404282D01*
X5535000Y6773001D01*
X3374639Y6644640D02*
X3503000Y6773001D01*
X2995000Y7027001D02*
X3124200Y6897802D01*
Y6708140D02*
Y6897802D01*
Y6708140D02*
X3187700Y6644640D01*
X3374639D01*
X3786002Y5369001D02*
X4114221Y5697220D01*
X7529002Y5415722D02*
Y5475000D01*
X6943999Y4830999D02*
X7526020Y5413019D01*
X4114221Y5697220D02*
X6893560D01*
X7023100Y5567680D01*
Y5483860D02*
Y5567680D01*
X4927783Y6364219D02*
X6843781D01*
X7112000Y6096000D01*
X3169920Y4302760D02*
X3324860Y4457700D01*
X3670300D01*
X3937000Y4191000D01*
D14*
X2487000Y6773001D02*
D03*
X3278998Y5725003D02*
D03*
X7112000Y6096000D02*
D03*
X3937000Y4445000D02*
D03*
X2143999Y4431000D02*
D03*
X6604000Y6096000D02*
D03*
D15*
X2487000Y7027001D02*
D03*
X2741000Y6773001D02*
D03*
Y7027001D02*
D03*
X2995000Y6773001D02*
D03*
Y7027001D02*
D03*
X3249000Y6773001D02*
D03*
Y7027001D02*
D03*
X3503000Y6773001D02*
D03*
Y7027001D02*
D03*
X3757000Y6773001D02*
D03*
Y7027001D02*
D03*
X4011000Y6773001D02*
D03*
Y7027001D02*
D03*
X4265000Y6773001D02*
D03*
Y7027001D02*
D03*
X4519000Y6773001D02*
D03*
Y7027001D02*
D03*
X4773000Y6773001D02*
D03*
Y7027001D02*
D03*
X5027000Y6773001D02*
D03*
Y7027001D02*
D03*
X5281000Y6773001D02*
D03*
Y7027001D02*
D03*
X5535000Y6773001D02*
D03*
Y7027001D02*
D03*
X5789000Y6773001D02*
D03*
Y7027001D02*
D03*
X6043000Y6773001D02*
D03*
Y7027001D02*
D03*
X6297000Y6773001D02*
D03*
Y7027001D02*
D03*
X7313000D02*
D03*
Y6773001D02*
D03*
X7059000Y7027001D02*
D03*
Y6773001D02*
D03*
X6805000Y7027001D02*
D03*
Y6773001D02*
D03*
X6551000Y7027001D02*
D03*
Y6773001D02*
D03*
X2770998Y5725003D02*
D03*
X3024998D02*
D03*
X7620000Y6096000D02*
D03*
X7366000D02*
D03*
X4699000Y3683000D02*
D03*
Y3937000D02*
D03*
Y4191000D02*
D03*
Y4445000D02*
D03*
X3937000Y3683000D02*
D03*
Y3937000D02*
D03*
Y4191000D02*
D03*
X7705999Y4830999D02*
D03*
X7451999D02*
D03*
X7197999D02*
D03*
X6943999D02*
D03*
X7705999Y4068999D02*
D03*
X7451999D02*
D03*
X7197999D02*
D03*
X2905999Y3669000D02*
D03*
Y3923000D02*
D03*
Y4177000D02*
D03*
Y4431000D02*
D03*
X2143999Y3669000D02*
D03*
Y3923000D02*
D03*
Y4177000D02*
D03*
X6096000Y6096000D02*
D03*
X6350000D02*
D03*
D16*
X7800000Y2000001D02*
D03*
Y6900001D02*
D03*
X2000001Y2000001D02*
D03*
Y6900001D02*
D03*
D17*
X2149998Y5799999D02*
D03*
D18*
Y5672999D02*
D03*
D19*
X5564002Y6131001D02*
D03*
X3786002D02*
D03*
X4040002D02*
D03*
X4294002D02*
D03*
X4548002D02*
D03*
X4802002D02*
D03*
X5056002D02*
D03*
X5310002D02*
D03*
X5564002Y5369001D02*
D03*
X5310002D02*
D03*
X5056002D02*
D03*
X4802002D02*
D03*
X4548002D02*
D03*
X4294002D02*
D03*
X4040002D02*
D03*
D20*
X3786002D02*
D03*
D21*
X3119999Y2750002D02*
D03*
X3980002Y2315002D02*
D03*
D22*
X5779999Y3225002D02*
D03*
X6033999D02*
D03*
X6287999D02*
D03*
X6541999D02*
D03*
X6795999D02*
D03*
X7049999D02*
D03*
X6513002Y5475000D02*
D03*
X6767002D02*
D03*
X7021002D02*
D03*
X7275002D02*
D03*
X7529002D02*
D03*
X7783002D02*
D03*
X5083998Y2200001D02*
D03*
X5337998D02*
D03*
X5591998D02*
D03*
X5845998D02*
D03*
X6099998D02*
D03*
X6353998D02*
D03*
D23*
X5969000Y4699000D02*
D03*
Y4445000D02*
D03*
X5207000Y4699000D02*
D03*
Y4445000D02*
D03*
X3450001Y4300002D02*
D03*
Y4046002D02*
D03*
D24*
X5969000Y4191000D02*
D03*
X5207000D02*
D03*
X3450001Y3792002D02*
D03*
D25*
X6943999Y4068999D02*
D03*
%TF.MD5,72df95c071588e8b5c342ca90db74aa5*%
M02*
