G04 Layer_Color=32768*
%FSLAX45Y45*%
%MOMM*%
%TF.FileFunction,Other,Mechanical_15*%
%TF.Part,Single*%
G01*
G75*
%TA.AperFunction,NonConductor*%
%ADD49C,0.10000*%
%ADD50C,0.05000*%
G36*
X5686000Y5249502D02*
X3662990D01*
Y6250000D01*
X5686000D01*
Y5249502D01*
D02*
G37*
D49*
X2456500Y2724998D02*
X2551501D01*
X2503998Y2677500D02*
Y2772501D01*
X2558999Y2604999D02*
Y2844998D01*
X2449002Y2604999D02*
Y2844998D01*
X2558999D01*
X2449002Y2604999D02*
X2558999D01*
X2198502Y3125003D02*
X2293498D01*
X2246000Y3077500D02*
Y3172501D01*
X2301001Y3005003D02*
Y3245002D01*
X2190999Y3005003D02*
Y3245002D01*
X2301001D01*
X2190999Y3005003D02*
X2301001D01*
X2198502Y2724998D02*
X2293498D01*
X2246000Y2677500D02*
Y2772501D01*
X2301001Y2604999D02*
Y2844998D01*
X2190999Y2604999D02*
Y2844998D01*
X2301001D01*
X2190999Y2604999D02*
X2301001D01*
X2456500Y3125003D02*
X2551501D01*
X2503998Y3077500D02*
Y3172501D01*
X2558999Y3005003D02*
Y3245002D01*
X2449002Y3005003D02*
Y3245002D01*
X2558999D01*
X2449002Y3005003D02*
X2558999D01*
X4318000Y4013998D02*
Y4113997D01*
X4267998Y4064000D02*
X4367997D01*
X4524502Y3175000D02*
X4619503D01*
X4572000Y3127502D02*
Y3222498D01*
X4517004Y3055000D02*
Y3295000D01*
X4627001Y3055000D02*
Y3295000D01*
X4517004Y3055000D02*
X4627001D01*
X4517004Y3295000D02*
X4627001D01*
X6429497Y4445000D02*
X6524498D01*
X6477000Y4397502D02*
Y4492503D01*
X6531996Y4325000D02*
Y4565000D01*
X6421999Y4325000D02*
Y4565000D01*
X6531996D01*
X6421999Y4325000D02*
X6531996D01*
X7275002Y4449999D02*
X7375002D01*
X7324999Y4400001D02*
Y4500001D01*
X3175000Y3254502D02*
Y3349498D01*
X3127502Y3302000D02*
X3222503D01*
X3055000Y3357001D02*
X3295000D01*
X3055000Y3246999D02*
X3295000D01*
X3055000D02*
Y3357001D01*
X3295000Y3246999D02*
Y3357001D01*
X2524999Y4000002D02*
Y4100002D01*
X2475001Y4050000D02*
X2575001D01*
D50*
X4100002Y1510000D02*
Y3110001D01*
X2999999D02*
X4100002D01*
X2999999Y1510000D02*
Y3110001D01*
Y1510000D02*
X4100002D01*
%TF.MD5,f5fc4d111a0ab16f129d57172e5ba3ff*%
M02*
