G04 Layer_Color=65535*
%FSLAX45Y45*%
%MOMM*%
%TF.FileFunction,Legend,Top*%
%TF.Part,Single*%
G01*
G75*
%TA.AperFunction,NonConductor*%
%ADD27C,0.20000*%
%ADD43C,0.12700*%
%ADD44C,0.30000*%
%ADD45C,0.60000*%
%ADD46C,0.25000*%
%ADD47C,0.15240*%
%ADD48C,0.25400*%
D27*
X4254500Y4578998D02*
G03*
X4381500Y4578998I63500J0D01*
G01*
X6810000Y4386500D02*
G03*
X6810000Y4513500I0J63500D01*
G01*
X2461500Y4565000D02*
G03*
X2588500Y4565000I63500J0D01*
G01*
X3405998Y5598003D02*
Y5852003D01*
X2643998Y5598003D02*
X3405998D01*
X2643998D02*
Y5852003D01*
X3405998D01*
X2060001Y5890001D02*
X2240001D01*
X2060001Y5583001D02*
Y5890001D01*
Y5583001D02*
X2240001D01*
Y5890001D01*
X6985000Y5969000D02*
Y6223000D01*
X7747000D01*
Y5969000D02*
Y6223000D01*
X6985000Y5969000D02*
X7747000D01*
X2538999Y2704998D02*
Y2744998D01*
X2469002Y2704998D02*
Y2744998D01*
X2281001Y3105003D02*
Y3145003D01*
X2210999Y3105003D02*
Y3145003D01*
X2281001Y2704998D02*
Y2744998D01*
X2210999Y2704998D02*
Y2744998D01*
X2538999Y3105003D02*
Y3145003D01*
X2469002Y3105003D02*
Y3145003D01*
X4053002Y3549000D02*
X4582998D01*
X4381500Y4579000D02*
X4582998D01*
X4053002D02*
X4254500D01*
X4582998Y3549000D02*
Y4579000D01*
X4053002Y3549000D02*
Y4579000D01*
X4537004Y3155000D02*
Y3195000D01*
X4607001Y3155000D02*
Y3195000D01*
X6511996Y4425000D02*
Y4465000D01*
X6441999Y4425000D02*
Y4465000D01*
X5715000Y3937000D02*
Y4953000D01*
X5969000D01*
Y5080000D01*
X6223000D01*
Y3937000D02*
Y5080000D01*
X5715000Y3937000D02*
X6223000D01*
X4953000D02*
Y4953000D01*
X5207000D01*
Y5080000D01*
X5461000D01*
Y3937000D02*
Y5080000D01*
X4953000Y3937000D02*
X5461000D01*
X7840000Y4185001D02*
Y4715002D01*
X6809999Y4513499D02*
Y4715002D01*
Y4185001D02*
Y4386499D01*
Y4715002D02*
X7840000D01*
X6809999Y4185001D02*
X7840000D01*
X3155000Y3337001D02*
X3195000D01*
X3155000Y3266999D02*
X3195000D01*
X3196001Y3538002D02*
Y4554002D01*
X3450001D01*
Y4681002D01*
X3704001D01*
Y3538002D02*
Y4681002D01*
X3196001Y3538002D02*
X3704001D01*
X2260001Y3534999D02*
X2790002D01*
X2588499Y4565000D02*
X2790002D01*
X2260001D02*
X2461499D01*
X2790002Y3534999D02*
Y4565000D01*
X2260001Y3534999D02*
Y4565000D01*
X6731000Y5969000D02*
Y6223000D01*
X5969000Y5969000D02*
X6731000D01*
X5969000D02*
Y6223000D01*
X6731000D01*
D43*
X3664000Y5623000D02*
G03*
X3786000Y5745000I0J122000D01*
G01*
Y5755000D02*
G03*
X3664000Y5877000I-122000J0D01*
G01*
X3664001Y5432501D02*
X3694999D01*
X3664001Y6067501D02*
X3722502D01*
X3664001Y5877001D02*
Y6067501D01*
Y5432501D02*
Y5623001D01*
X3275000Y1540002D02*
Y1660002D01*
Y1540002D02*
X3825001D01*
Y1660002D01*
X3850000D01*
Y2990002D01*
X3250001D02*
X3850000D01*
X3250001Y1660002D02*
Y2990002D01*
Y1660002D02*
X3825001D01*
X4753798Y1666601D02*
Y2733401D01*
X4372798Y1666601D02*
Y2733401D01*
X6684198Y1666601D02*
Y2733401D01*
X7065198Y1666601D02*
Y2733401D01*
D44*
X2965000Y1870000D02*
G03*
X2965000Y1870000I-15000J0D01*
G01*
D45*
X4183000Y4478998D02*
G03*
X4183000Y4478998I-30000J0D01*
G01*
X6940000Y4285000D02*
G03*
X6940000Y4285000I-30000J0D01*
G01*
X2390000Y4465000D02*
G03*
X2390000Y4465000I-30000J0D01*
G01*
D46*
X3949500Y4574998D02*
G03*
X3949500Y4574998I-12500J0D01*
G01*
X6826500Y4069000D02*
G03*
X6826500Y4069000I-12500J0D01*
G01*
X2156500Y4561000D02*
G03*
X2156500Y4561000I-12500J0D01*
G01*
D47*
X7075400Y3453600D02*
G03*
X7075400Y3453600I-25400J0D01*
G01*
X6148300Y3479000D02*
G03*
X5894300Y3479000I-127000J0D01*
G01*
D02*
G03*
X6148300Y3479000I127000J0D01*
G01*
X6275300D02*
G03*
X5767300Y3479000I-254000J0D01*
G01*
D02*
G03*
X6275300Y3479000I254000J0D01*
G01*
X6224500D02*
G03*
X5818100Y3479000I-203200J0D01*
G01*
D02*
G03*
X6224500Y3479000I203200J0D01*
G01*
X7808400Y5348000D02*
G03*
X7808400Y5348000I-25400J0D01*
G01*
X6379400Y2454000D02*
G03*
X6379400Y2454000I-25400J0D01*
G01*
X5985700Y1844400D02*
G03*
X6239700Y1844400I127000J0D01*
G01*
D02*
G03*
X5985700Y1844400I-127000J0D01*
G01*
X5858700D02*
G03*
X6366700Y1844400I254000J0D01*
G01*
D02*
G03*
X5858700Y1844400I-254000J0D01*
G01*
X5909500D02*
G03*
X6315900Y1844400I203200J0D01*
G01*
D02*
G03*
X5909500Y1844400I-203200J0D01*
G01*
X5452300Y2555600D02*
G03*
X5198300Y2555600I-127000J0D01*
G01*
D02*
G03*
X5452300Y2555600I127000J0D01*
G01*
X5579300D02*
G03*
X5071300Y2555600I-254000J0D01*
G01*
D02*
G03*
X5579300Y2555600I254000J0D01*
G01*
X5528500D02*
G03*
X5122100Y2555600I-203200J0D01*
G01*
D02*
G03*
X5528500Y2555600I203200J0D01*
G01*
X7380199Y2844002D02*
Y3606002D01*
X7761199Y2844002D02*
Y3606002D01*
X7291299Y3225002D02*
Y3606002D01*
X6618199D02*
X7291299D01*
X7380199D01*
X7761199D01*
X7888199D01*
X5538699Y3352002D02*
Y3733002D01*
X4941799Y3352002D02*
X5538699D01*
X5767299D01*
Y3225002D02*
Y3352002D01*
Y3479002D01*
X5652999Y3225002D02*
X5779999Y2844002D01*
X7049999D02*
X7176999Y3225002D01*
X5779999Y2844002D02*
X7049999D01*
X7253199D02*
Y3225002D01*
Y2844002D02*
X7380199D01*
X7761199D01*
X7888199D01*
Y3606002D01*
X5576799Y2844002D02*
Y3225002D01*
X4941799Y2844002D02*
X5576799D01*
X4941799D02*
Y3225002D01*
X7888199Y3606002D02*
Y3733002D01*
X5538699D02*
X7888199D01*
X4941799D02*
X5538699D01*
X4941799Y3352002D02*
Y3733002D01*
Y3225002D02*
Y3352002D01*
Y3225002D02*
X5576799D01*
X5652999D01*
X5767299D01*
X7176999D01*
X7253199D01*
X7291299D01*
X7253199Y2844002D02*
Y3225002D01*
X5576799Y2844002D02*
Y3225002D01*
X6360602Y5449600D02*
X6487602Y5246400D01*
X6360602Y5500400D02*
X6487602Y5703600D01*
X7808402D02*
X7935402Y5500400D01*
X7808402Y5246400D02*
X7935402Y5449600D01*
X7706802Y5703600D02*
Y5754400D01*
X6589202Y5703600D02*
Y5754400D01*
X7706802Y5703600D02*
X7808402D01*
X6589202D02*
X7706802D01*
X6487602D02*
X6589202D01*
X6487602D02*
Y5754400D01*
X6589202D01*
X7706802D01*
X7808402D01*
Y5703600D02*
Y5754400D01*
X6487602Y5246400D02*
X7808402D01*
X6487602Y5195600D02*
X7808402D01*
X6360602Y5449600D02*
X7935402D01*
X6360602D02*
Y5500400D01*
X7935402D01*
Y5449600D02*
Y5500400D01*
X6487602Y5195600D02*
Y5246400D01*
X7808402Y5195600D02*
Y5246400D01*
X4245798Y1768201D02*
X4855398D01*
X6582598Y2631801D02*
X7192198D01*
X4842698Y1768201D02*
Y2022201D01*
X4855398Y1768201D02*
X5515798D01*
X4842698D02*
X4855398D01*
X6595298Y1666601D02*
Y1920601D01*
X7192198D01*
X6366698D02*
X6595298D01*
X6366698D02*
Y2022201D01*
Y1844401D02*
Y1920601D01*
X6480998Y2022201D02*
Y2377801D01*
X4956998Y2022201D02*
Y2377801D01*
X4880798Y2022201D02*
Y2200001D01*
X4245798Y1768201D02*
Y2377801D01*
Y1666601D02*
Y1768201D01*
X6557198Y2022201D02*
Y2200001D01*
X7192198Y2022201D02*
Y2631801D01*
Y2733401D01*
X4245798Y1666601D02*
X4372798D01*
X4753798D01*
X6595298D01*
X6684198D01*
X7065198D01*
X7192198D01*
Y1920601D01*
Y2022201D01*
X6557198D02*
X7192198D01*
X6480998D02*
X6557198D01*
X6366698D02*
X6480998D01*
X4956998D02*
X6366698D01*
X4880798D02*
X4956998D01*
X4842698D02*
X4880798D01*
Y2200001D01*
X6557198Y2022201D02*
Y2200001D01*
X6595298Y2377801D02*
Y2631801D01*
X5922198D02*
X6582598D01*
X6595298D01*
X4842698Y2479401D02*
Y2733401D01*
X4245798Y2479401D02*
X4842698D01*
X5071298D01*
Y2377801D02*
Y2479401D01*
Y2555601D01*
X6557198Y2200001D02*
Y2377801D01*
X4880798Y2200001D02*
Y2377801D01*
X7065198Y2733401D02*
X7192198D01*
X6684198D02*
X7065198D01*
X4842698D02*
X6684198D01*
X4753798D02*
X4842698D01*
X4372798D02*
X4753798D01*
X4245798D02*
X4372798D01*
X4245798Y2479401D02*
Y2733401D01*
Y2377801D02*
Y2479401D01*
Y2377801D02*
X4880798D01*
X4956998D01*
X5071298D01*
X6480998D01*
X6557198D01*
X6595298D01*
X6557198Y2200001D02*
Y2377801D01*
X4880798Y2200001D02*
Y2377801D01*
X2476500Y6452000D02*
Y6481624D01*
Y6466812D01*
X2387629D01*
X2402441Y6452000D01*
X2719941D02*
X2705129Y6466812D01*
Y6496436D01*
X2719941Y6511248D01*
X2734752D01*
X2749564Y6496436D01*
Y6481624D01*
Y6496436D01*
X2764376Y6511248D01*
X2779188D01*
X2794000Y6496436D01*
Y6466812D01*
X2779188Y6452000D01*
X2959129Y6511248D02*
Y6452000D01*
X3003564D01*
X2988752Y6481624D01*
Y6496436D01*
X3003564Y6511248D01*
X3033188D01*
X3048000Y6496436D01*
Y6466812D01*
X3033188Y6452000D01*
X3213129D02*
Y6511248D01*
X3227941D01*
X3287188Y6452000D01*
X3302000D01*
X3541188D02*
X3556000Y6466812D01*
Y6496436D01*
X3541188Y6511248D01*
X3481941D01*
X3467129Y6496436D01*
Y6466812D01*
X3481941Y6452000D01*
X3496752D01*
X3511564Y6466812D01*
Y6511248D01*
X3810000Y6452000D02*
Y6481624D01*
Y6466812D01*
X3721129D01*
X3735941Y6452000D01*
X3810000Y6526059D02*
Y6555683D01*
Y6540871D01*
X3721129D01*
X3735941Y6526059D01*
X4064000Y6452000D02*
Y6481624D01*
Y6466812D01*
X3975129D01*
X3989941Y6452000D01*
Y6526059D02*
X3975129Y6540871D01*
Y6570495D01*
X3989941Y6585307D01*
X4004752D01*
X4019564Y6570495D01*
Y6555683D01*
Y6570495D01*
X4034376Y6585307D01*
X4049188D01*
X4064000Y6570495D01*
Y6540871D01*
X4049188Y6526059D01*
X4318000Y6452000D02*
Y6481624D01*
Y6466812D01*
X4229129D01*
X4243941Y6452000D01*
X4229129Y6585307D02*
Y6526059D01*
X4273564D01*
X4258752Y6555683D01*
Y6570495D01*
X4273564Y6585307D01*
X4303188D01*
X4318000Y6570495D01*
Y6540871D01*
X4303188Y6526059D01*
X4572000Y6452000D02*
Y6481624D01*
Y6466812D01*
X4483129D01*
X4497941Y6452000D01*
X4483129Y6526059D02*
Y6585307D01*
X4497941D01*
X4557188Y6526059D01*
X4572000D01*
X4826000Y6452000D02*
Y6481624D01*
Y6466812D01*
X4737129D01*
X4751941Y6452000D01*
X4811188Y6526059D02*
X4826000Y6540871D01*
Y6570495D01*
X4811188Y6585307D01*
X4751941D01*
X4737129Y6570495D01*
Y6540871D01*
X4751941Y6526059D01*
X4766752D01*
X4781564Y6540871D01*
Y6585307D01*
X5080000Y6511248D02*
Y6452000D01*
X5020752Y6511248D01*
X5005941D01*
X4991129Y6496436D01*
Y6466812D01*
X5005941Y6452000D01*
X5080000Y6540871D02*
Y6570495D01*
Y6555683D01*
X4991129D01*
X5005941Y6540871D01*
X5334000Y6511248D02*
Y6452000D01*
X5274752Y6511248D01*
X5259941D01*
X5245129Y6496436D01*
Y6466812D01*
X5259941Y6452000D01*
Y6540871D02*
X5245129Y6555683D01*
Y6585307D01*
X5259941Y6600119D01*
X5274752D01*
X5289564Y6585307D01*
Y6570495D01*
Y6585307D01*
X5304376Y6600119D01*
X5319188D01*
X5334000Y6585307D01*
Y6555683D01*
X5319188Y6540871D01*
X5588000Y6511248D02*
Y6452000D01*
X5528752Y6511248D01*
X5513941D01*
X5499129Y6496436D01*
Y6466812D01*
X5513941Y6452000D01*
X5499129Y6600119D02*
Y6540871D01*
X5543564D01*
X5528752Y6570495D01*
Y6585307D01*
X5543564Y6600119D01*
X5573188D01*
X5588000Y6585307D01*
Y6555683D01*
X5573188Y6540871D01*
X5842000Y6511248D02*
Y6452000D01*
X5782752Y6511248D01*
X5767941D01*
X5753129Y6496436D01*
Y6466812D01*
X5767941Y6452000D01*
X5753129Y6540871D02*
Y6600119D01*
X5767941D01*
X5827188Y6540871D01*
X5842000D01*
X6096000Y6511248D02*
Y6452000D01*
X6036752Y6511248D01*
X6021941D01*
X6007129Y6496436D01*
Y6466812D01*
X6021941Y6452000D01*
X6081188Y6540871D02*
X6096000Y6555683D01*
Y6585307D01*
X6081188Y6600119D01*
X6021941D01*
X6007129Y6585307D01*
Y6555683D01*
X6021941Y6540871D01*
X6036752D01*
X6051564Y6555683D01*
Y6600119D01*
X6275941Y6452000D02*
X6261129Y6466812D01*
Y6496436D01*
X6275941Y6511248D01*
X6290752D01*
X6305564Y6496436D01*
Y6481624D01*
Y6496436D01*
X6320376Y6511248D01*
X6335188D01*
X6350000Y6496436D01*
Y6466812D01*
X6335188Y6452000D01*
X6350000Y6540871D02*
Y6570495D01*
Y6555683D01*
X6261129D01*
X6275941Y6540871D01*
X6529941Y6452000D02*
X6515129Y6466812D01*
Y6496436D01*
X6529941Y6511248D01*
X6544752D01*
X6559564Y6496436D01*
Y6481624D01*
Y6496436D01*
X6574376Y6511248D01*
X6589188D01*
X6604000Y6496436D01*
Y6466812D01*
X6589188Y6452000D01*
X6529941Y6540871D02*
X6515129Y6555683D01*
Y6585307D01*
X6529941Y6600119D01*
X6544752D01*
X6559564Y6585307D01*
Y6570495D01*
Y6585307D01*
X6574376Y6600119D01*
X6589188D01*
X6604000Y6585307D01*
Y6555683D01*
X6589188Y6540871D01*
X6783941Y6452000D02*
X6769129Y6466812D01*
Y6496436D01*
X6783941Y6511248D01*
X6798752D01*
X6813564Y6496436D01*
Y6481624D01*
Y6496436D01*
X6828376Y6511248D01*
X6843188D01*
X6858000Y6496436D01*
Y6466812D01*
X6843188Y6452000D01*
X6769129Y6600119D02*
Y6540871D01*
X6813564D01*
X6798752Y6570495D01*
Y6585307D01*
X6813564Y6600119D01*
X6843188D01*
X6858000Y6585307D01*
Y6555683D01*
X6843188Y6540871D01*
X7037941Y6452000D02*
X7023129Y6466812D01*
Y6496436D01*
X7037941Y6511248D01*
X7052752D01*
X7067564Y6496436D01*
Y6481624D01*
Y6496436D01*
X7082376Y6511248D01*
X7097188D01*
X7112000Y6496436D01*
Y6466812D01*
X7097188Y6452000D01*
X7023129Y6540871D02*
Y6600119D01*
X7037941D01*
X7097188Y6540871D01*
X7112000D01*
X7291941Y6452000D02*
X7277129Y6466812D01*
Y6496436D01*
X7291941Y6511248D01*
X7306752D01*
X7321564Y6496436D01*
Y6481624D01*
Y6496436D01*
X7336376Y6511248D01*
X7351188D01*
X7366000Y6496436D01*
Y6466812D01*
X7351188Y6452000D01*
Y6540871D02*
X7366000Y6555683D01*
Y6585307D01*
X7351188Y6600119D01*
X7291941D01*
X7277129Y6585307D01*
Y6555683D01*
X7291941Y6540871D01*
X7306752D01*
X7321564Y6555683D01*
Y6600119D01*
D48*
X7112000Y6413451D02*
Y6261100D01*
X7188175D01*
X7213567Y6286492D01*
Y6388059D01*
X7188175Y6413451D01*
X7112000D01*
X7264351D02*
Y6261100D01*
Y6337275D01*
X7365918D01*
Y6413451D01*
Y6261100D01*
X7416701Y6413451D02*
X7518269D01*
X7467485D01*
Y6261100D01*
X7569052D02*
X7619836D01*
X7594444D01*
Y6413451D01*
X7569052Y6388059D01*
X6050000Y5675000D02*
Y5827351D01*
X6126175D01*
X6151567Y5801959D01*
Y5751175D01*
X6126175Y5725784D01*
X6050000D01*
X6303918Y5801959D02*
X6278526Y5827351D01*
X6227743D01*
X6202351Y5801959D01*
Y5776567D01*
X6227743Y5751175D01*
X6278526D01*
X6303918Y5725784D01*
Y5700392D01*
X6278526Y5675000D01*
X6227743D01*
X6202351Y5700392D01*
X6354702Y5675000D02*
X6405485D01*
X6380093D01*
Y5827351D01*
X6354702Y5801959D01*
X7350000Y2650000D02*
Y2802351D01*
X7426175D01*
X7451567Y2776959D01*
Y2726175D01*
X7426175Y2700784D01*
X7350000D01*
X7603918Y2776959D02*
X7578526Y2802351D01*
X7527743D01*
X7502351Y2776959D01*
Y2751567D01*
X7527743Y2726175D01*
X7578526D01*
X7603918Y2700784D01*
Y2675392D01*
X7578526Y2650000D01*
X7527743D01*
X7502351Y2675392D01*
X7756269Y2650000D02*
X7654701D01*
X7756269Y2751567D01*
Y2776959D01*
X7730877Y2802351D01*
X7680093D01*
X7654701Y2776959D01*
X4275000Y2800000D02*
Y2952351D01*
X4351175D01*
X4376567Y2926959D01*
Y2876175D01*
X4351175Y2850783D01*
X4275000D01*
X4528918Y2926959D02*
X4503526Y2952351D01*
X4452743D01*
X4427351Y2926959D01*
Y2901567D01*
X4452743Y2876175D01*
X4503526D01*
X4528918Y2850783D01*
Y2825392D01*
X4503526Y2800000D01*
X4452743D01*
X4427351Y2825392D01*
X4579702Y2926959D02*
X4605093Y2952351D01*
X4655877D01*
X4681269Y2926959D01*
Y2901567D01*
X4655877Y2876175D01*
X4630485D01*
X4655877D01*
X4681269Y2850783D01*
Y2825392D01*
X4655877Y2800000D01*
X4605093D01*
X4579702Y2825392D01*
X1905000Y3048000D02*
Y3200351D01*
X1981175D01*
X2006567Y3174959D01*
Y3124175D01*
X1981175Y3098783D01*
X1905000D01*
X1955783D02*
X2006567Y3048000D01*
X2057351D02*
X2108134D01*
X2082743D01*
Y3200351D01*
X2057351Y3174959D01*
X3150000Y4600000D02*
Y4752350D01*
X3226176D01*
X3251568Y4726959D01*
Y4676175D01*
X3226176Y4650783D01*
X3150000D01*
X3200784D02*
X3251568Y4600000D01*
X3403918D02*
X3302351D01*
X3403918Y4701567D01*
Y4726959D01*
X3378526Y4752350D01*
X3327743D01*
X3302351Y4726959D01*
X2667000Y3048000D02*
Y3200351D01*
X2743175D01*
X2768567Y3174959D01*
Y3124175D01*
X2743175Y3098783D01*
X2667000D01*
X2717783D02*
X2768567Y3048000D01*
X2819351Y3174959D02*
X2844743Y3200351D01*
X2895526D01*
X2920918Y3174959D01*
Y3149567D01*
X2895526Y3124175D01*
X2870134D01*
X2895526D01*
X2920918Y3098783D01*
Y3073392D01*
X2895526Y3048000D01*
X2844743D01*
X2819351Y3073392D01*
X2667000Y2667000D02*
Y2819351D01*
X2743175D01*
X2768567Y2793959D01*
Y2743175D01*
X2743175Y2717783D01*
X2667000D01*
X2717783D02*
X2768567Y2667000D01*
X2895526D02*
Y2819351D01*
X2819351Y2743175D01*
X2920918D01*
X5644000Y5024002D02*
Y5176353D01*
X5720175D01*
X5745567Y5150961D01*
Y5100178D01*
X5720175Y5074786D01*
X5644000D01*
X5694783D02*
X5745567Y5024002D01*
X5897918Y5176353D02*
X5796350D01*
Y5100178D01*
X5847134Y5125569D01*
X5872526D01*
X5897918Y5100178D01*
Y5049394D01*
X5872526Y5024002D01*
X5821742D01*
X5796350Y5049394D01*
X3378200Y3225800D02*
Y3378151D01*
X3454375D01*
X3479767Y3352759D01*
Y3301975D01*
X3454375Y3276583D01*
X3378200D01*
X3428983D02*
X3479767Y3225800D01*
X3632118Y3378151D02*
X3581334Y3352759D01*
X3530551Y3301975D01*
Y3251192D01*
X3555943Y3225800D01*
X3606726D01*
X3632118Y3251192D01*
Y3276583D01*
X3606726Y3301975D01*
X3530551D01*
X1905000Y2667000D02*
Y2819351D01*
X1981175D01*
X2006567Y2793959D01*
Y2743175D01*
X1981175Y2717783D01*
X1905000D01*
X1955783D02*
X2006567Y2667000D01*
X2057351Y2819351D02*
X2158918D01*
Y2793959D01*
X2057351Y2692392D01*
Y2667000D01*
X6402000Y4620000D02*
Y4772350D01*
X6478175D01*
X6503567Y4746959D01*
Y4696175D01*
X6478175Y4670783D01*
X6402000D01*
X6452783D02*
X6503567Y4620000D01*
X6554350Y4746959D02*
X6579742Y4772350D01*
X6630526D01*
X6655918Y4746959D01*
Y4721567D01*
X6630526Y4696175D01*
X6655918Y4670783D01*
Y4645392D01*
X6630526Y4620000D01*
X6579742D01*
X6554350Y4645392D01*
Y4670783D01*
X6579742Y4696175D01*
X6554350Y4721567D01*
Y4746959D01*
X6579742Y4696175D02*
X6630526D01*
X4907000Y5024002D02*
Y5176352D01*
X4983175D01*
X5008567Y5150960D01*
Y5100177D01*
X4983175Y5074785D01*
X4907000D01*
X4957783D02*
X5008567Y5024002D01*
X5059351Y5049394D02*
X5084742Y5024002D01*
X5135526D01*
X5160918Y5049394D01*
Y5150960D01*
X5135526Y5176352D01*
X5084742D01*
X5059351Y5150960D01*
Y5125569D01*
X5084742Y5100177D01*
X5160918D01*
X4064000Y3175000D02*
Y3327351D01*
X4140175D01*
X4165567Y3301959D01*
Y3251175D01*
X4140175Y3225783D01*
X4064000D01*
X4114783D02*
X4165567Y3175000D01*
X4216351D02*
X4267134D01*
X4241743D01*
Y3327351D01*
X4216351Y3301959D01*
X4343310D02*
X4368701Y3327351D01*
X4419485D01*
X4444877Y3301959D01*
Y3200392D01*
X4419485Y3175000D01*
X4368701D01*
X4343310Y3200392D01*
Y3301959D01*
X2658460Y5938240D02*
X2734635D01*
X2760027Y5963632D01*
X2734635Y5989024D01*
X2683852D01*
X2658460Y6014415D01*
X2683852Y6039807D01*
X2760027D01*
X2886986Y5938240D02*
X2836203D01*
X2810811Y5963632D01*
Y6014415D01*
X2836203Y6039807D01*
X2886986D01*
X2912378Y6014415D01*
Y5989024D01*
X2810811D01*
X2963161Y6039807D02*
Y5938240D01*
Y5989024D01*
X2988553Y6014415D01*
X3013945Y6039807D01*
X3039337D01*
X3115512D02*
X3166296Y5938240D01*
X3217079Y6039807D01*
X3293255Y5938240D02*
X3344038D01*
X3369430Y5963632D01*
Y6014415D01*
X3344038Y6039807D01*
X3293255D01*
X3267863Y6014415D01*
Y5963632D01*
X3293255Y5938240D01*
X3420214D02*
X3470997D01*
X3445606D01*
Y6090591D01*
X3420214Y6065199D01*
X3302000Y5486351D02*
Y5359392D01*
X3327392Y5334000D01*
X3378175D01*
X3403567Y5359392D01*
Y5486351D01*
X3530526Y5334000D02*
Y5486351D01*
X3454351Y5410175D01*
X3555918D01*
X2768567Y2184351D02*
X2717783D01*
X2743175D01*
Y2057392D01*
X2717783Y2032000D01*
X2692392D01*
X2667000Y2057392D01*
X2819351Y2032000D02*
X2870134D01*
X2844743D01*
Y2184351D01*
X2819351Y2158959D01*
X6875000Y5102351D02*
Y4975392D01*
X6900392Y4950000D01*
X6951175D01*
X6976567Y4975392D01*
Y5102351D01*
X7027351Y4950000D02*
X7078134D01*
X7052743D01*
Y5102351D01*
X7027351Y5076959D01*
X4191000Y4851351D02*
Y4724392D01*
X4216392Y4699000D01*
X4267175D01*
X4292567Y4724392D01*
Y4851351D01*
X4444918Y4699000D02*
X4343351D01*
X4444918Y4800567D01*
Y4825959D01*
X4419526Y4851351D01*
X4368743D01*
X4343351Y4825959D01*
X2150000Y4777351D02*
Y4650392D01*
X2175392Y4625000D01*
X2226176D01*
X2251568Y4650392D01*
Y4777351D01*
X2302351Y4751959D02*
X2327743Y4777351D01*
X2378526D01*
X2403918Y4751959D01*
Y4726567D01*
X2378526Y4701175D01*
X2353134D01*
X2378526D01*
X2403918Y4675783D01*
Y4650392D01*
X2378526Y4625000D01*
X2327743D01*
X2302351Y4650392D01*
X2076120Y5976480D02*
Y6128831D01*
X2152295D01*
X2177687Y6103439D01*
Y6052655D01*
X2152295Y6027264D01*
X2076120D01*
X2228471Y5976480D02*
X2279254D01*
X2253863D01*
Y6128831D01*
X2228471Y6103439D01*
X6057900Y6413451D02*
Y6261100D01*
X6134075D01*
X6159467Y6286492D01*
Y6388059D01*
X6134075Y6413451D01*
X6057900D01*
X6210251D02*
Y6261100D01*
Y6337275D01*
X6311818D01*
Y6413451D01*
Y6261100D01*
X6362601Y6413451D02*
X6464169D01*
X6413385D01*
Y6261100D01*
X6616519D02*
X6514952D01*
X6616519Y6362667D01*
Y6388059D01*
X6591128Y6413451D01*
X6540344D01*
X6514952Y6388059D01*
X1905000Y5791175D02*
X2006567D01*
X1905000Y5664175D02*
X2006567D01*
X1955783Y5714959D02*
Y5613392D01*
X2133567Y5486351D02*
X2032000D01*
Y5410175D01*
X2082783Y5435567D01*
X2108175D01*
X2133567Y5410175D01*
Y5359392D01*
X2108175Y5334000D01*
X2057392D01*
X2032000Y5359392D01*
X2184351Y5486351D02*
Y5384783D01*
X2235134Y5334000D01*
X2285918Y5384783D01*
Y5486351D01*
X1905000Y4953000D02*
Y5105351D01*
X1981175D01*
X2006567Y5079959D01*
Y5029175D01*
X1981175Y5003783D01*
X1905000D01*
X1955783D02*
X2006567Y4953000D01*
X2133526D02*
X2082743D01*
X2057351Y4978392D01*
Y5029175D01*
X2082743Y5054567D01*
X2133526D01*
X2158918Y5029175D01*
Y5003783D01*
X2057351D01*
X2209701Y4953000D02*
X2285877D01*
X2311269Y4978392D01*
X2285877Y5003783D01*
X2235093D01*
X2209701Y5029175D01*
X2235093Y5054567D01*
X2311269D01*
X2362052Y4902217D02*
Y5054567D01*
X2438228D01*
X2463619Y5029175D01*
Y4978392D01*
X2438228Y4953000D01*
X2362052D01*
X2514403D02*
X2565186D01*
X2539795D01*
Y5054567D01*
X2514403D01*
X2641362D02*
Y4953000D01*
Y5003783D01*
X2666754Y5029175D01*
X2692145Y5054567D01*
X2717537D01*
X2869888Y5105351D02*
X2819104D01*
X2793712Y5079959D01*
Y4978392D01*
X2819104Y4953000D01*
X2869888D01*
X2895280Y4978392D01*
Y5079959D01*
X2869888Y5105351D01*
X3047630Y5079959D02*
X3022239Y5105351D01*
X2971455D01*
X2946063Y5079959D01*
Y5054567D01*
X2971455Y5029175D01*
X3022239D01*
X3047630Y5003783D01*
Y4978392D01*
X3022239Y4953000D01*
X2971455D01*
X2946063Y4978392D01*
X3250765Y5054567D02*
X3301548Y4953000D01*
X3352332Y5054567D01*
X3403115Y5079959D02*
X3428507Y5105351D01*
X3479291D01*
X3504683Y5079959D01*
Y4978392D01*
X3479291Y4953000D01*
X3428507D01*
X3403115Y4978392D01*
Y5079959D01*
%TF.MD5,7f47f5b79506fe6bb3a149e6ab0d0ec9*%
M02*
