M48
;Layer_Color=9474304
;FILE_FORMAT=4:4
METRIC,LZ
;TYPE=PLATED
T1F00S00C0.6000
T3F00S00C0.7000
T4F00S00C0.9000
T5F00S00C1.0160
T6F00S00C2.7500
%
T01
X00215Y005673
Y0058
T03
X00345Y003792
X005207Y004191
Y004445
Y004699
X005969
Y004445
Y004191
X00345Y0043
Y004046
T04
X002144Y003669
Y003923
X002906
Y003669
X003937Y003683
Y003937
X004699
Y003683
Y004191
Y004445
X004802Y005369
X005056
X00531
X005564
Y006131
X00531
X005056
X004802
X004548
X004294
X00404
X004011Y006773
Y007027
X004265
Y006773
X004519
Y007027
X004773
Y006773
X005027
Y007027
X005281
Y006773
X005535
Y007027
X005789
Y006773
X006043
Y007027
X006297
Y006773
X006551
X006805
X007059
X007313
Y007027
X007059
X006805
X006551
X006604Y006096
X00635
X006096
X007112
X007366
X00762
X007706Y004831
X007452
X007198
X006944
Y004069
X007198
X007452
X007706
X004548Y005369
X004294
X00404
X003786
Y006131
X003757Y006773
X003503
X003249
X002995
X002741
X002487
Y007027
X002741
X002995
X003249
X003503
X003757
X003279Y005725
X003025
X002771
X002906Y004431
Y004177
X002144
Y004431
X003937Y004445
Y004191
T05
X005084Y0022
X005338
X005592
X005846
X0061
X006354
X006288Y003225
X006034
X00578
X006542
X006796
X00705
X007021Y005475
X006767
X006513
X007275
X007529
X007783
T06
X002Y002
X0078
Y0069
X002
M30
